<svg width="55" height="54" viewBox="0 0 55 54" fill="none" xmlns="http://www.w3.org/2000/svg">
<path d="M54.5 27C54.5 41.6269 42.4204 53.5 27.5 53.5C12.5796 53.5 0.5 41.6269 0.5 27C0.5 12.3731 12.5796 0.5 27.5 0.5C42.4204 0.5 54.5 12.3731 54.5 27Z" fill="white" stroke="black"/>
<path d="M38.0263 27.1298C38.0263 28.5071 38.2813 29.6549 38.7915 30.5731C39.3016 31.4914 39.8627 32.2311 40.4749 32.7922C41.087 33.3533 41.6609 33.7614 42.1966 34.0165L43 34.3991C42.949 34.5011 42.7322 35.0623 42.3496 36.0825C41.967 37.1028 41.3166 38.2506 40.3984 39.5259C39.6332 40.6482 38.8297 41.6557 37.988 42.5484C37.1463 43.4411 36.0878 43.913 34.8125 43.964C34.2003 43.964 33.6647 43.9002 33.2056 43.7727C32.7464 43.6452 32.3001 43.4794 31.8665 43.2753C31.4329 43.0713 30.9737 42.8927 30.4891 42.7397C30.0045 42.5866 29.4051 42.5101 28.6909 42.5101C27.9767 42.5101 27.3773 42.5866 26.8927 42.7397C26.4081 42.8927 25.949 43.0585 25.5154 43.2371C25.0818 43.4156 24.6482 43.5814 24.2146 43.7344C23.7809 43.8875 23.2581 43.9895 22.6459 44.0405C21.4726 44.0915 20.4014 43.6197 19.4321 42.6249C18.4629 41.6302 17.5956 40.5716 16.8305 39.4494C16.0653 38.3271 15.3511 37.0135 14.6879 35.5086C14.0248 34.0038 13.5529 32.4351 13.2723 30.8027C12.9917 29.1703 12.928 27.5251 13.081 25.8672C13.2341 24.2093 13.7187 22.6917 14.5349 21.3143C15.3511 19.937 16.4224 18.853 17.7487 18.0623C19.075 17.2716 20.5289 16.8507 22.1103 16.7997C22.7224 16.7997 23.3218 16.8762 23.9085 17.0293C24.4951 17.1823 25.0435 17.3481 25.5536 17.5266C26.0638 17.7052 26.5484 17.8837 27.0075 18.0623C27.4666 18.2408 27.8747 18.3301 28.2318 18.3301C28.5889 18.3301 29.0225 18.2281 29.5326 18.024C30.0428 17.82 30.6039 17.6159 31.2161 17.4119C31.8282 17.2078 32.4786 17.0293 33.1673 16.8762C33.856 16.7232 34.5574 16.6722 35.2716 16.7232C35.5776 16.7232 35.9985 16.7614 36.5341 16.838C37.0698 16.9145 37.6564 17.0803 38.2941 17.3353C38.9317 17.5904 39.5694 17.9475 40.2071 18.4066C40.8447 18.8657 41.4441 19.4779 42.0053 20.2431C41.9542 20.2941 41.7247 20.4599 41.3166 20.7404C40.9085 21.021 40.4494 21.4419 39.9392 22.003C39.4291 22.5641 38.9827 23.2783 38.6002 24.1455C38.2176 25.0128 38.0263 26.0075 38.0263 27.1298ZM33.3586 13.7389C32.7464 14.5041 31.943 15.1418 30.9482 15.6519C29.9535 16.162 28.946 16.3661 27.9257 16.2641C27.7727 15.2438 27.913 14.2363 28.3466 13.2416C28.7802 12.2468 29.3031 11.4179 29.9152 10.7547C30.5784 9.9895 31.4074 9.35184 32.4021 8.84171C33.3969 8.33158 34.3788 8.05101 35.3481 8C35.4501 9.07127 35.3098 10.1043 34.9272 11.099C34.5446 12.0938 34.0218 12.9737 33.3586 13.7389Z" fill="black"/>
</svg>
