<svg width="25" height="25" viewBox="0 0 25 25" fill="none" xmlns="http://www.w3.org/2000/svg">
<g clip-path="url(#clip0_311_415)">
<path d="M20.5602 10.8261C20.532 11.3983 20.0979 12.1048 19.3982 12.7838V21.7316C19.3975 21.962 19.3067 22.1573 19.1533 22.3099C18.9992 22.4595 18.7993 22.5479 18.5643 22.5495H3.98233C3.74888 22.5479 3.5482 22.4594 3.3941 22.3099C3.24073 22.1573 3.15074 21.962 3.14996 21.7316V7.43257C3.15074 7.20293 3.24073 7.00684 3.3941 6.85425C3.5482 6.70469 3.74888 6.61621 3.98233 6.6147H11.7269C12.3533 5.79224 13.0834 4.94995 13.9105 4.17788C13.9143 4.17329 13.9173 4.1687 13.9211 4.16416H3.98233C3.0668 4.16338 2.2253 4.53188 1.62637 5.1209C1.02442 5.70991 0.649031 6.53389 0.649812 7.43262V21.7316C0.649031 22.6304 1.02442 23.4559 1.62637 24.0434C2.22525 24.6323 3.0668 25 3.98233 25H18.5644C19.4815 25 20.323 24.6323 20.9219 24.0433C21.5223 23.4558 21.8984 22.6303 21.8977 21.7315V9.93501C21.8977 9.93501 21.8916 9.92739 21.8816 9.91973C21.5024 10.2448 21.0607 10.5545 20.5602 10.8261Z" fill="white"/>
<path d="M24.3192 0C24.3192 0 23.5532 1.14443 18.5499 2.83735C13.4481 4.56392 10.3078 11.5875 10.3078 11.5875C9.55175 13.0265 6.56328 19.0048 6.56328 19.0048C5.74008 20.549 7.24839 21.4615 8.1334 19.8669C9.82939 16.806 10.9242 14.0091 13.503 13.9297C17.265 13.8138 19.8376 10.5286 19.0282 10.6812C17.9631 11.145 15.6148 10.7163 16.998 10.5026C20.3183 10.2364 22.3645 7.74077 21.6977 7.57144C20.5205 8.02461 19.4226 7.59434 19.2075 7.4646C25.0677 6.752 24.3192 0 24.3192 0Z" fill="white"/>
</g>
<defs>
<clipPath id="clip0_311_415">
<rect width="25" height="25" fill="white"/>
</clipPath>
</defs>
</svg>
