<svg width="38" height="38" viewBox="0 0 38 38" fill="none" xmlns="http://www.w3.org/2000/svg">
<path d="M3.76238 26.3548C3.76238 25.3394 2.92013 24.5161 1.88119 24.5161C0.842246 24.5161 0 25.3394 0 26.3548H3.76238ZM38 26.3548C38 25.3394 37.1577 24.5161 36.1188 24.5161C35.0799 24.5161 34.2376 25.3394 34.2376 26.3548H38ZM17.5166 27.6755C16.8778 28.4762 17.0238 29.6317 17.8429 30.2563C18.6621 30.8808 19.8443 30.7381 20.4834 29.9374L17.5166 27.6755ZM30.2656 17.6793C30.9044 16.8786 30.7584 15.7232 29.9392 15.0985C29.12 14.4741 27.9379 14.6168 27.2988 15.4175L30.2656 17.6793ZM17.5166 29.9374C18.1557 30.7381 19.3379 30.8808 20.1571 30.2563C20.9763 29.6317 21.1222 28.4762 20.4834 27.6755L17.5166 29.9374ZM10.7012 15.4175C10.0622 14.6168 8.88004 14.4741 8.06084 15.0985C7.24162 15.7232 7.09552 16.8786 7.73449 17.6793L10.7012 15.4175ZM17.1188 28.8065C17.1188 29.8219 17.9611 30.6452 19 30.6452C20.0389 30.6452 20.8812 29.8219 20.8812 28.8065H17.1188ZM20.8812 1.83871C20.8812 0.823227 20.0389 0 19 0C17.9611 0 17.1188 0.823227 17.1188 1.83871H20.8812ZM0 26.3548V28.8065H3.76238V26.3548H0ZM0 28.8065C0 33.8399 4.08235 38 9.21782 38V34.3226C6.24948 34.3226 3.76238 31.8972 3.76238 28.8065H0ZM9.21782 38H28.7822V34.3226H9.21782V38ZM28.7822 38C33.9176 38 38 33.8399 38 28.8065H34.2376C34.2376 31.8972 31.7504 34.3226 28.7822 34.3226V38ZM38 28.8065V26.3548H34.2376V28.8065H38ZM20.4834 29.9374L30.2656 17.6793L27.2988 15.4175L17.5166 27.6755L20.4834 29.9374ZM20.4834 27.6755L10.7012 15.4175L7.73449 17.6793L17.5166 29.9374L20.4834 27.6755ZM20.8812 28.8065V1.83871H17.1188V28.8065H20.8812Z" fill="#FCFCFC"/>
</svg>
