<svg width="60" height="60" viewBox="0 0 60 60" fill="none" xmlns="http://www.w3.org/2000/svg">
<path d="M45.0411 6.09195L45.0413 6.09171C46.0832 5.04874 47.7772 5.04816 48.8224 6.09117L48.8231 6.09195C49.1324 6.40191 49.35 6.76876 49.4759 7.15871C49.6023 6.76944 49.8208 6.40335 50.1312 6.09415C51.1751 5.04842 52.8652 5.04916 53.9104 6.09417L45.0411 6.09195ZM45.0411 6.09195C43.9982 7.13726 43.9982 8.82601 45.041 9.8714L45.0411 9.87144C45.3514 10.1825 45.7191 10.401 46.11 10.527C45.7206 10.6529 45.3541 10.8704 45.0441 11.1796L45.0435 11.1803C43.9983 12.2266 43.9978 13.9155 45.0434 14.9612C46.0851 16.0043 47.7772 16.0047 48.8224 14.9618L48.8227 14.9614C49.1323 14.6518 49.3501 14.2854 49.4762 13.896C49.6026 14.2846 49.8209 14.6501 50.131 14.9593C51.1733 16.0043 52.8631 16.0036 53.9063 14.9616C54.9537 13.9156 54.9545 12.2226 53.908 11.1785C53.5989 10.8696 53.2334 10.6522 52.8451 10.5263M45.0411 6.09195L52.8451 10.5263M52.8451 10.5263C53.2345 10.4001 53.6009 10.1823 53.9105 9.87271L53.9106 9.87268C54.9538 8.8295 54.9541 7.13707 53.9106 6.09434L52.8451 10.5263ZM14.4604 48.3875L13.2695 49.5785L14.4607 50.7699L14.1071 51.1234L14.4607 50.7699C15.2463 51.5556 15.2465 52.8288 14.4606 53.6143C14.0682 54.0068 13.5539 54.2037 13.0386 54.2037C12.5234 54.2037 12.0086 54.0068 11.6161 53.6141L11.9698 53.2606L11.6161 53.6141L10.4247 52.4217L9.23168 53.6141C8.83897 54.007 8.32232 54.2037 7.80953 54.2037C7.2942 54.2037 6.77994 54.0068 6.38743 53.6143L14.4604 48.3875ZM14.4604 48.3875C15.2466 47.6025 15.2462 46.3285 14.4608 45.5428C13.6781 44.7596 12.405 44.7544 11.6163 45.5426L11.6162 45.5427L10.4249 46.7341M14.4604 48.3875L10.4249 46.7341M10.4249 46.7341L9.23352 45.5427C9.23351 45.5427 9.23349 45.5427 9.23348 45.5427C8.44789 44.757 7.17465 44.757 6.38914 45.5428C5.60358 46.3285 5.60373 47.6012 6.38908 48.3871L6.38935 48.3874L7.58039 49.5775L6.38768 50.7695C5.60122 51.5545 5.60155 52.8287 6.38733 53.6142L10.4249 46.7341ZM24.856 50.3L24.8554 50.3006C24.4005 50.754 23.6638 50.7538 23.2088 50.3007L23.2082 50.3L9.70404 36.7967C9.70344 36.7961 9.70284 36.7955 9.70225 36.7949C9.47893 36.5743 9.35982 36.2764 9.35982 35.9708C9.35982 35.6651 9.47904 35.3672 9.70238 35.1465C9.70288 35.146 9.70339 35.1455 9.7039 35.145L35.1521 9.69513L35.1557 9.6916C35.3726 9.47897 35.6641 9.35466 35.976 9.35466C36.2871 9.35466 36.5795 9.47809 36.7972 9.69234L36.8001 9.69519L50.2997 23.2017C50.2999 23.2018 50.3001 23.202 50.3002 23.2022C50.756 23.6561 50.7559 24.3943 50.3009 24.8484L24.856 50.3ZM24.856 50.3L50.3002 24.8491L24.856 50.3ZM4.91925 33.7464L4.91936 33.7462L33.746 4.91901C39.6377 -0.972997 49.1891 -0.973005 55.0811 4.91901C60.973 10.8112 60.973 20.3629 55.0811 26.2547L55.4346 26.6083L55.081 26.2547L26.2567 55.0807C20.3649 60.9729 10.8135 60.9729 4.92151 55.0818C2.0905 52.2513 0.5 48.4135 0.5 44.4132C0.5 40.4127 2.08875 36.5751 4.91925 33.7464ZM48.8225 9.87205C49.1319 9.56298 49.3496 9.19692 49.4756 8.80759C49.602 9.19711 49.8205 9.56344 50.1311 9.8728C50.4398 10.1822 50.8054 10.4 51.1944 10.5262C50.8053 10.6523 50.4396 10.87 50.1308 11.1791C49.8208 11.4892 49.6025 11.8556 49.476 12.2448C49.3498 11.8552 49.1319 11.4889 48.8225 11.1798L48.8223 11.1797C48.5119 10.87 48.1449 10.6522 47.7548 10.5265C48.1451 10.4004 48.5123 10.1822 48.8225 9.87205Z" fill="black" stroke="black"/>
</svg>
