<svg width="24" height="24" viewBox="0 0 24 24" fill="none" xmlns="http://www.w3.org/2000/svg">
<path d="M6.97001 4.235C6.93141 4.24487 6.89517 4.26232 6.8634 4.28635C6.83162 4.31037 6.80495 4.34048 6.78494 4.37492C6.76492 4.40937 6.75197 4.44745 6.74683 4.48695C6.74169 4.52645 6.74447 4.56658 6.75501 4.605L7.82001 8.605C7.83023 8.64279 7.84788 8.67817 7.87191 8.70907C7.89595 8.73998 7.9259 8.76579 7.96001 8.785L11.46 10.84C11.5283 10.8802 11.6098 10.8918 11.6867 10.8721C11.7635 10.8524 11.8294 10.8031 11.87 10.735L13.87 7.205C13.9099 7.13527 13.9207 7.05262 13.9 6.975L12.845 3C12.8292 2.92339 12.7846 2.85576 12.7204 2.81109C12.6562 2.76643 12.5773 2.74814 12.5 2.76L9.72001 3.5L6.97001 4.235Z" stroke="white" stroke-width="1.25" stroke-linecap="round" stroke-linejoin="round"/>
<path d="M19.765 6.97C19.7551 6.93141 19.7377 6.89516 19.7136 6.86339C19.6896 6.83161 19.6595 6.80494 19.6251 6.78493C19.5906 6.76491 19.5525 6.75196 19.513 6.74682C19.4735 6.74168 19.4334 6.74446 19.395 6.755L15.42 7.82C15.3822 7.83022 15.3468 7.84787 15.3159 7.8719C15.285 7.89594 15.2592 7.92589 15.24 7.96L13.185 11.46C13.1447 11.5283 13.1332 11.6098 13.1529 11.6867C13.1726 11.7635 13.2219 11.8294 13.29 11.87L16.82 13.87C16.8897 13.9099 16.9724 13.9207 17.05 13.9L21.02 12.835C21.0972 12.8139 21.163 12.7633 21.2033 12.694C21.2435 12.6248 21.2549 12.5425 21.235 12.465L20.5 9.72L19.765 6.97Z" stroke="white" stroke-width="1.25" stroke-linecap="round" stroke-linejoin="round"/>
<path d="M17.03 19.765C17.0686 19.7551 17.1048 19.7377 17.1366 19.7137C17.1684 19.6896 17.1951 19.6595 17.2151 19.6251C17.2351 19.5906 17.248 19.5525 17.2532 19.513C17.2583 19.4735 17.2555 19.4334 17.245 19.395L16.18 15.42C16.1698 15.3822 16.1521 15.3468 16.1281 15.3159C16.1041 15.285 16.0741 15.2592 16.04 15.24L12.54 13.185C12.4717 13.1448 12.3902 13.1332 12.3133 13.1529C12.2365 13.1726 12.1706 13.2219 12.13 13.29L10.13 16.82C10.0901 16.8897 10.0793 16.9724 10.1 17.05L11.165 21.02C11.1861 21.0972 11.2367 21.1631 11.306 21.2033C11.3752 21.2435 11.4575 21.2549 11.535 21.235L14.28 20.5L17.03 19.765Z" stroke="white" stroke-width="1.25" stroke-linecap="round" stroke-linejoin="round"/>
<path d="M4.23502 17.03C4.24489 17.0686 4.26234 17.1048 4.28637 17.1366C4.31039 17.1684 4.3405 17.1951 4.37494 17.2151C4.40939 17.2351 4.44747 17.248 4.48697 17.2532C4.52647 17.2583 4.5666 17.2555 4.60502 17.245L8.60502 16.18C8.64281 16.1698 8.67819 16.1521 8.70909 16.1281C8.74 16.1041 8.76581 16.0741 8.78502 16.04L10.84 12.54C10.8803 12.4717 10.8918 12.3902 10.8721 12.3133C10.8525 12.2365 10.8032 12.1706 10.735 12.13L7.20502 10.13C7.1353 10.0901 7.05265 10.0793 6.97502 10.1L3.00002 11.155C2.92279 11.1761 2.85697 11.2267 2.81674 11.296C2.77652 11.3652 2.76512 11.4475 2.78502 11.525L3.50002 14.28L4.23502 17.03Z" stroke="white" stroke-width="1.25" stroke-linecap="round" stroke-linejoin="round"/>
</svg>
