<svg width="55" height="54" viewBox="0 0 55 54" fill="none" xmlns="http://www.w3.org/2000/svg">
<path d="M54.5 27C54.5 41.6269 42.4204 53.5 27.5 53.5C12.5796 53.5 0.5 41.6269 0.5 27C0.5 12.3731 12.5796 0.5 27.5 0.5C42.4204 0.5 54.5 12.3731 54.5 27Z" fill="white" stroke="black"/>
<path d="M28 29.5141C30.0833 29.5141 32.0278 29.6836 33.8333 30.0226C35.6389 30.3616 37.2188 30.8136 38.5729 31.3785C39.9271 31.9435 41.0035 32.6026 41.8021 33.3559C42.6007 34.1092 43 34.919 43 35.7853C43 36.6516 42.6007 37.4614 41.8021 38.2147C41.0035 38.968 39.9271 39.6271 38.5729 40.1921C37.2188 40.7571 35.6389 41.1996 33.8333 41.5198C32.0278 41.8399 30.0833 42 28 42C25.9167 42 23.9722 41.8399 22.1667 41.5198C20.3611 41.1996 18.7812 40.7571 17.4271 40.1921C16.0729 39.6271 14.9965 38.968 14.1979 38.2147C13.3993 37.4614 13 36.6516 13 35.7853C13 34.7684 13.5556 33.8267 14.6667 32.9605C15.7778 32.0942 17.2361 31.3785 19.0417 30.8136C18.6944 30.3992 18.434 29.9755 18.2604 29.5424C18.0868 29.1092 18 28.6667 18 28.2147C18 27.2354 18.3819 26.275 19.1458 25.3333C17.7569 24.7307 16.6458 23.9868 15.8125 23.1017C14.9792 22.2166 14.5625 21.2467 14.5625 20.1921C14.5625 19.2881 14.875 18.4313 15.5 17.6215C16.125 16.8117 16.9931 16.1055 18.1042 15.5028C19.2153 14.9002 20.5174 14.42 22.0104 14.0621C23.5035 13.7043 25.1181 13.5254 26.8542 13.5254C29.2153 13.5254 31.4028 13.9021 33.4167 14.6554L42.2708 12V16.4633L38 17.7062C38.4861 17.9322 38.8854 18.2994 39.1979 18.8079C39.5104 19.3164 39.6667 19.7778 39.6667 20.1921C39.6667 21.096 39.3368 21.9529 38.6771 22.7627C38.0174 23.5725 37.1146 24.2787 35.9688 24.8814C34.8229 25.484 33.5035 25.9642 32.0104 26.322C30.5174 26.6798 28.9028 26.8588 27.1667 26.8588H26.75C26.6111 26.8588 26.5069 27.0188 26.4375 27.339C26.3681 27.6591 26.3333 27.951 26.3333 28.2147C26.3333 28.4783 26.3681 28.7232 26.4375 28.9492C26.5069 29.1751 26.6111 29.3823 26.75 29.5706C26.9583 29.5706 27.1667 29.5612 27.375 29.5424C27.5833 29.5235 27.7917 29.5141 28 29.5141ZM27.1667 17.0847C25.5694 17.0847 24.1979 17.3861 23.0521 17.9887C21.9062 18.5913 21.3333 19.3258 21.3333 20.1921C21.3333 21.0584 21.9062 21.7928 23.0521 22.3955C24.1979 22.9981 25.5694 23.2994 27.1667 23.2994C28.7639 23.2994 30.1354 22.9981 31.2812 22.3955C32.4271 21.7928 33 21.0584 33 20.1921C33 19.3258 32.4271 18.5913 31.2812 17.9887C30.1354 17.3861 28.7639 17.0847 27.1667 17.0847ZM28 38.1582C29.875 38.1582 31.4549 37.9228 32.7396 37.452C34.0243 36.9812 34.6667 36.4256 34.6667 35.7853C34.6667 35.1073 34.0243 34.533 32.7396 34.0621C31.4549 33.5913 29.875 33.3559 28 33.3559C26.1944 33.3559 24.6319 33.5913 23.3125 34.0621C21.9931 34.533 21.3333 35.1073 21.3333 35.7853C21.3333 36.4256 21.9931 36.9812 23.3125 37.452C24.6319 37.9228 26.1944 38.1582 28 38.1582Z" fill="black"/>
</svg>
