<svg width="298" height="113" viewBox="0 0 298 113" fill="none" xmlns="http://www.w3.org/2000/svg">
<path d="M127 7H111C109.895 7 109 7.89543 109 9V13C109 14.1046 109.895 15 111 15H127C128.105 15 129 14.1046 129 13V9C129 7.89543 128.105 7 127 7Z" stroke="white" stroke-width="2" stroke-linecap="round" stroke-linejoin="round"/>
<path d="M127 19H111C109.895 19 109 19.8954 109 21V25C109 26.1046 109.895 27 111 27H127C128.105 27 129 26.1046 129 25V21C129 19.8954 128.105 19 127 19Z" stroke="white" stroke-width="2" stroke-linecap="round" stroke-linejoin="round"/>
<path d="M113 11H113.01" stroke="white" stroke-width="2" stroke-linecap="round" stroke-linejoin="round"/>
<path d="M113 23H113.01" stroke="white" stroke-width="2" stroke-linecap="round" stroke-linejoin="round"/>
<path d="M151.97 8.235C151.931 8.24487 151.895 8.26232 151.863 8.28635C151.832 8.31037 151.805 8.34048 151.785 8.37492C151.765 8.40937 151.752 8.44745 151.747 8.48695C151.742 8.52645 151.744 8.56658 151.755 8.605L152.82 12.605C152.83 12.6428 152.848 12.6782 152.872 12.7091C152.896 12.74 152.926 12.7658 152.96 12.785L156.46 14.84C156.528 14.8802 156.61 14.8918 156.687 14.8721C156.764 14.8524 156.829 14.8031 156.87 14.735L158.87 11.205C158.91 11.1353 158.921 11.0526 158.9 10.975L157.845 7C157.829 6.92339 157.785 6.85576 157.72 6.81109C157.656 6.76643 157.577 6.74814 157.5 6.76L154.72 7.5L151.97 8.235Z" stroke="white" stroke-width="1.25" stroke-linecap="round" stroke-linejoin="round"/>
<path d="M164.765 10.97C164.755 10.9314 164.738 10.8952 164.714 10.8634C164.69 10.8316 164.66 10.8049 164.625 10.7849C164.591 10.7649 164.553 10.752 164.513 10.7468C164.474 10.7417 164.433 10.7445 164.395 10.755L160.42 11.82C160.382 11.8302 160.347 11.8479 160.316 11.8719C160.285 11.8959 160.259 11.9259 160.24 11.96L158.185 15.46C158.145 15.5283 158.133 15.6098 158.153 15.6867C158.173 15.7635 158.222 15.8294 158.29 15.87L161.82 17.87C161.89 17.9099 161.972 17.9207 162.05 17.9L166.02 16.835C166.097 16.8139 166.163 16.7633 166.203 16.694C166.243 16.6248 166.255 16.5425 166.235 16.465L165.5 13.72L164.765 10.97Z" stroke="white" stroke-width="1.25" stroke-linecap="round" stroke-linejoin="round"/>
<path d="M162.03 23.765C162.069 23.7551 162.105 23.7377 162.137 23.7137C162.168 23.6896 162.195 23.6595 162.215 23.6251C162.235 23.5906 162.248 23.5525 162.253 23.513C162.258 23.4735 162.256 23.4334 162.245 23.395L161.18 19.42C161.17 19.3822 161.152 19.3468 161.128 19.3159C161.104 19.285 161.074 19.2592 161.04 19.24L157.54 17.185C157.472 17.1448 157.39 17.1332 157.313 17.1529C157.236 17.1726 157.171 17.2219 157.13 17.29L155.13 20.82C155.09 20.8897 155.079 20.9724 155.1 21.05L156.165 25.02C156.186 25.0972 156.237 25.1631 156.306 25.2033C156.375 25.2435 156.457 25.2549 156.535 25.235L159.28 24.5L162.03 23.765Z" stroke="white" stroke-width="1.25" stroke-linecap="round" stroke-linejoin="round"/>
<path d="M149.235 21.03C149.245 21.0686 149.262 21.1048 149.286 21.1366C149.31 21.1684 149.341 21.1951 149.375 21.2151C149.409 21.2351 149.447 21.248 149.487 21.2532C149.526 21.2583 149.567 21.2555 149.605 21.245L153.605 20.18C153.643 20.1698 153.678 20.1521 153.709 20.1281C153.74 20.1041 153.766 20.0741 153.785 20.04L155.84 16.54C155.88 16.4717 155.892 16.3902 155.872 16.3133C155.852 16.2365 155.803 16.1706 155.735 16.13L152.205 14.13C152.135 14.0901 152.053 14.0793 151.975 14.1L148 15.155C147.923 15.1761 147.857 15.2267 147.817 15.296C147.777 15.3652 147.765 15.4475 147.785 15.525L148.5 18.28L149.235 21.03Z" stroke="white" stroke-width="1.25" stroke-linecap="round" stroke-linejoin="round"/>
<g clip-path="url(#clip0_311_406)">
<path d="M213.56 14.8261C213.532 15.3983 213.098 16.1048 212.398 16.7838V25.7316C212.397 25.962 212.307 26.1573 212.153 26.3099C211.999 26.4595 211.799 26.5479 211.564 26.5495H196.982C196.749 26.5479 196.548 26.4594 196.394 26.3099C196.241 26.1573 196.151 25.962 196.15 25.7316V11.4326C196.151 11.2029 196.241 11.0068 196.394 10.8542C196.548 10.7047 196.749 10.6162 196.982 10.6147H204.727C205.353 9.79224 206.083 8.94995 206.91 8.17788C206.914 8.17329 206.917 8.1687 206.921 8.16416H196.982C196.067 8.16338 195.225 8.53188 194.626 9.1209C194.024 9.70991 193.649 10.5339 193.65 11.4326V25.7316C193.649 26.6304 194.024 27.4559 194.626 28.0434C195.225 28.6323 196.067 29 196.982 29H211.564C212.481 29 213.323 28.6323 213.922 28.0433C214.522 27.4558 214.898 26.6303 214.898 25.7315V13.935C214.898 13.935 214.892 13.9274 214.882 13.9197C214.502 14.2448 214.061 14.5545 213.56 14.8261Z" fill="white"/>
<path d="M217.319 4C217.319 4 216.553 5.14443 211.55 6.83735C206.448 8.56392 203.308 15.5875 203.308 15.5875C202.552 17.0265 199.563 23.0048 199.563 23.0048C198.74 24.549 200.248 25.4615 201.133 23.8669C202.829 20.806 203.924 18.0091 206.503 17.9297C210.265 17.8138 212.838 14.5286 212.028 14.6812C210.963 15.145 208.615 14.7163 209.998 14.5026C213.318 14.2364 215.364 11.7408 214.698 11.5714C213.521 12.0246 212.423 11.5943 212.207 11.4646C218.068 10.752 217.319 4 217.319 4Z" fill="white"/>
</g>
<path d="M11 22L6 17L11 12" stroke="white" stroke-width="2" stroke-linecap="round" stroke-linejoin="round"/>
<path d="M18 22L13 17L18 12" stroke="white" stroke-width="2" stroke-linecap="round" stroke-linejoin="round"/>
<path d="M238 24C242.418 24 246 20.4183 246 16C246 11.5817 242.418 8 238 8C233.582 8 230 11.5817 230 16C230 20.4183 233.582 24 238 24Z" stroke="white" stroke-width="2" stroke-linecap="round" stroke-linejoin="round"/>
<path d="M248 26L243.65 21.65" stroke="white" stroke-width="2" stroke-linecap="round" stroke-linejoin="round"/>
<path d="M289 21V19C289 17.9391 288.579 16.9217 287.828 16.1716C287.078 15.4214 286.061 15 285 15H277C275.939 15 274.922 15.4214 274.172 16.1716C273.421 16.9217 273 17.9391 273 19V21" stroke="white" stroke-width="2" stroke-linecap="round" stroke-linejoin="round"/>
<path d="M281 11C283.209 11 285 9.20914 285 7C285 4.79086 283.209 3 281 3C278.791 3 277 4.79086 277 7C277 9.20914 278.791 11 281 11Z" stroke="white" stroke-width="2" stroke-linecap="round" stroke-linejoin="round"/>
<path d="M245 92C244.042 92.6755 242.982 93.1921 241.86 93.53C241.258 92.8375 240.457 92.3467 239.567 92.1239C238.677 91.9012 237.739 91.9572 236.882 92.2845C236.025 92.6117 235.288 93.1944 234.773 93.9537C234.258 94.713 233.988 95.6123 234 96.53V97.53C232.243 97.5756 230.501 97.1858 228.931 96.3954C227.361 95.6051 226.01 94.4386 225 93C225 93 221 102 230 106C227.941 107.398 225.487 108.099 223 108C232 113 243 108 243 96.5C242.999 96.2215 242.972 95.9436 242.92 95.67C243.941 94.6635 244.661 93.3927 245 92Z" stroke="white" stroke-width="2" stroke-linecap="round" stroke-linejoin="round"/>
<path d="M181 97C182.591 97 184.117 97.6321 185.243 98.7574C186.368 99.8826 187 101.409 187 103V110H183V103C183 102.47 182.789 101.961 182.414 101.586C182.039 101.211 181.53 101 181 101C180.47 101 179.961 101.211 179.586 101.586C179.211 101.961 179 102.47 179 103V110H175V103C175 101.409 175.632 99.8826 176.757 98.7574C177.883 97.6321 179.409 97 181 97Z" stroke="white" stroke-width="2" stroke-linecap="round" stroke-linejoin="round"/>
<path d="M171 98H167V110H171V98Z" stroke="white" stroke-width="2" stroke-linecap="round" stroke-linejoin="round"/>
<path d="M169 95C170.105 95 171 94.1046 171 93C171 91.8954 170.105 91 169 91C167.895 91 167 91.8954 167 93C167 94.1046 167.895 95 169 95Z" stroke="white" stroke-width="2" stroke-linecap="round" stroke-linejoin="round"/>
<path d="M126 91H123C121.674 91 120.402 91.5268 119.464 92.4645C118.527 93.4021 118 94.6739 118 96V99H115V103H118V111H122V103H125L126 99H122V96C122 95.7348 122.105 95.4804 122.293 95.2929C122.48 95.1054 122.735 95 123 95H126V91Z" stroke="white" stroke-width="2" stroke-linecap="round" stroke-linejoin="round"/>
<path d="M60 93H76C77.1 93 78 93.9 78 95V107C78 108.1 77.1 109 76 109H60C58.9 109 58 108.1 58 107V95C58 93.9 58.9 93 60 93Z" stroke="white" stroke-width="2" stroke-linecap="round" stroke-linejoin="round"/>
<path d="M78 95L68 102L58 95" stroke="white" stroke-width="2" stroke-linecap="round" stroke-linejoin="round"/>
<path d="M296.54 95.42C296.421 94.9454 296.179 94.5106 295.839 94.1594C295.498 93.8082 295.071 93.5532 294.6 93.42C292.88 93 286 93 286 93C286 93 279.12 93 277.4 93.46C276.929 93.5932 276.502 93.8482 276.161 94.1994C275.821 94.5506 275.579 94.9854 275.46 95.46C275.145 97.2056 274.991 98.9763 275 100.75C274.989 102.537 275.143 104.321 275.46 106.08C275.591 106.54 275.838 106.958 276.178 107.294C276.518 107.631 276.939 107.874 277.4 108C279.12 108.46 286 108.46 286 108.46C286 108.46 292.88 108.46 294.6 108C295.071 107.867 295.498 107.612 295.839 107.261C296.179 106.909 296.421 106.475 296.54 106C296.852 104.268 297.006 102.51 297 100.75C297.011 98.963 296.857 97.1787 296.54 95.42Z" stroke="white" stroke-width="2" stroke-linecap="round" stroke-linejoin="round"/>
<path d="M283.75 104.02L289.5 100.75L283.75 97.48V104.02Z" stroke="white" stroke-width="2" stroke-linecap="round" stroke-linejoin="round"/>
<path d="M68 67C73.5228 67 78 62.5228 78 57C78 51.4772 73.5228 47 68 47C62.4772 47 58 51.4772 58 57C58 62.5228 62.4772 67 68 67Z" stroke="white" stroke-width="2" stroke-linecap="round" stroke-linejoin="round"/>
<path d="M68 61V57" stroke="white" stroke-width="2" stroke-linecap="round" stroke-linejoin="round"/>
<path d="M68 53H68.01" stroke="white" stroke-width="2" stroke-linecap="round" stroke-linejoin="round"/>
<path d="M63.44 6.68L63.66 6.7L63.78 6.76L63.86 6.88L63.94 7.18L64.06 7.78L64.2 8.22L64.36 8.52L64.5 8.68L64.7 8.78L64.92 8.82H65.18L65.4 8.74L65.56 8.6L65.7 8.38L65.82 8.12L65.96 7.66L66.08 7.02L66.16 6.84L66.26 6.72L66.38 6.68H66.64L67.06 6.74L67.48 6.86L67.8 7L68.16 7.2L68.5 7.44L68.76 7.66L68.96 7.84L69.16 8.06L69.38 8.36L69.6 8.72L69.76 9.04L70.08 9.82L70.32 10.38L70.58 10.94L70.88 11.48L71.08 11.76L71.24 11.94V11.98L71.32 12.02L71.5 12.18L71.76 12.3L71.84 12.32L72.24 12.34L72.44 12.28L72.6 12.16L72.78 11.98L72.94 11.88L73.08 11.84H73.46L73.78 11.9L74.02 12L74.26 12.16L74.52 12.38L74.84 12.7L74.98 12.9L75.12 13.18L75.2 13.48L75.26 13.9V14.08L75.2 14.56L75.06 15.12L74.9 15.56L74.64 16.12L74.34 16.68L74.06 17.14L73.84 17.46L73.58 17.8L73.44 17.98L73.22 18.24L72.98 18.5L72.54 18.94L72.38 19.08L72.18 19.26L71.84 19.52L71.48 19.8L71.22 20L71.04 20.12L71 20.16L71.56 20.24L72.12 20.36L72.72 20.56L73.04 20.72L73.4 20.92L73.74 21.18L74 21.42L74.2 21.6L74.44 21.84L74.54 21.98V22.04H74.5V22.08L74.44 22.1L74.02 22.12L73.74 22.18L73.26 22.2H70.4L70.02 22.24H69.8L69.42 22.18L69 22.1L68.36 22.08H68L67.96 22.2L67.78 22.4L67.52 22.6L67.26 22.82L67.1 22.98L66.94 23.12L66.9 23.18H66.86L66.82 23.26L66.7 23.44L66.54 23.62L66.24 23.78L66.02 23.84L65.82 23.86H65.48L65.06 23.8H64.84L64.4 23.86H64.12L63.88 23.82L63.64 23.72L63.44 23.6L63.28 23.42L63.12 23.2L62.72 22.8L62.5 22.62L62.3 22.44L62.14 22.3L61.96 22.06H59.94L59.9 22.22V22.46L59.96 22.66L60.24 23.02L60.28 23.14L60.18 23.16L59.16 23.04L58.88 22.94L58.68 22.82L58.48 22.64L58.36 22.46L58.26 22.16L58.24 22.04L56.5 22.06L56.28 22.14L56.12 22.16H55.92L55.6 22.1L55.4 21.98L55.3 21.9L55.14 21.68L55.06 21.5L55.02 21.18L55.06 20.92L55.16 20.72L55.34 20.52L55.54 20.38L55.8 20.28L56 20.22L56.28 20.04L56.62 19.8L56.94 19.62L57.26 19.5L57.7 19.38L57.9 19.34V19.3L57.82 19.26L57.58 19.04L57.42 18.9L57.1 18.6L56.96 18.44L56.72 18.18L56.52 17.94L56.26 17.6L56.02 17.26L55.74 16.84L55.42 16.26L55.22 15.84L55 15.28L54.88 14.9L54.8 14.5L54.76 14.24V13.72L54.84 13.3L54.94 13.06L55.06 12.84L55.22 12.64L55.4 12.44L55.62 12.24L55.94 12.02L56.18 11.92L56.42 11.86L56.58 11.84H56.88L57.06 11.88L57.28 12.04L57.5 12.26L57.7 12.34H58.02L58.34 12.26L58.56 12.12L58.8 11.9L59 11.64L59.18 11.34L59.46 10.82L59.78 10.12L60.08 9.4L60.3 8.88L60.54 8.44L60.8 8.1L61 7.88L61.04 7.82H61.08L61.12 7.74L61.28 7.6L61.52 7.4L61.82 7.2L62.14 7.02L62.4 6.9L62.86 6.76L63.18 6.7L63.44 6.68Z" fill="#2D0606"/>
<path d="M73.04 22.8H73.26L73.38 22.86L73.56 22.84L73.68 23.04L73.96 23.6L74.22 24.16L74.98 25.76L75.24 26.3L75.26 26.42L75.1 26.5L75.08 26.52L75.16 26.56V26.6L75.18 26.56H75.22V26.6H75.26L75.3 26.68L75.38 26.74L75.36 26.7V26.58L75.42 26.66L75.7 27.26L76.02 27.96L76.04 28.12L75.5 28.4L75.04 28.62L74.76 28.72L74.68 28.68L74.62 28.58L74.54 28.62V28.58L74.4 28.64L74.32 28.68L74.2 28.58L73.86 27.9L73.64 27.44L73.48 27.12L73.34 26.98V26.94H73.3L73.16 26.62L73.12 26.54L73.08 26.32L72.96 26.06L72.86 25.82L72.7 25.5L72.64 25.44L72.58 25.34L72.54 25.32V25.26L72.44 25.24L72.38 25.18V25.14L72.34 25.18V25.28H72.22L72.62 26.54L72.84 27.24L72.86 27.44L72.7 27.52L72.18 27.68L71.64 27.86L71.46 27.88L71.42 27.76L71.28 27.78L71.02 27.84L70.96 27.76L70.8 27.28L70.68 26.88L70.42 26.14L70.22 25.54L70.26 25.84L70.36 26.32L70.46 27.04L70.74 28.7L70.8 29.14L70.78 29.4L70.7 29.62L70.52 29.82L70.42 29.9L70.24 29.96L69.12 30.16L68.22 30.3H68.04L67.48 30.22L67.3 30.14L67.1 29.96L67.02 29.86L66.92 29.56L66.8 28.9L66.48 27.02L66.32 26.02L66.3 25.84V25.58L66.38 25.36L66.5 25.2L66.66 25.06L66.84 24.98L67.42 24.86L68.72 24.64H69.18L69.62 24.7L69.84 24.82L70 24.98L70.04 25L69.96 24.78L69.84 24.48L69.78 24.22L69.8 24.12L70.02 24.04L70.58 23.86L71.04 23.7L71.22 23.64L71.5 23.58L71.7 23.46L71.84 23.38L71.94 23.3L72.18 23.2L72.54 23.04L72.7 22.96L72.84 22.9L73.04 22.8Z" fill="#FCFBFB"/>
<path d="M63.38 7.1H63.5L63.52 7.12L63.58 7.54L63.68 7.96L63.78 8.28L63.94 8.64L64.12 8.9L64.28 9.06L64.48 9.18L64.64 9.24L64.84 9.26H65.18L65.38 9.22L65.7 9.06L65.84 8.92L65.98 8.72L66.14 8.42L66.34 7.82L66.44 7.34L66.5 7.1L66.74 7.12L67.18 7.22L67.4 7.3L67.8 7.48L68.02 7.62L68.24 7.78L68.56 8.04L68.76 8.24L68.94 8.46L69.22 8.88L69.38 9.2L69.74 10.08L69.96 10.6L70.28 11.26L70.52 11.68L70.76 12.04L70.94 12.26L71.16 12.46L71.34 12.58L71.56 12.68L71.88 12.76H72.12L72.4 12.72L72.66 12.62L72.86 12.48L73.06 12.28L73.16 12.24H73.42L73.7 12.32L73.92 12.44L74.2 12.64L74.44 12.88L74.64 13.16L74.76 13.46L74.82 13.68L74.84 13.88V14.14L74.78 14.52L74.66 15L74.44 15.58L74.16 16.16L73.9 16.62L73.66 17L73.4 17.36L73.14 17.68L72.92 17.94L72.68 18.2L72.6 18.3H72.56L72.52 18.38L72.28 18.62L72.12 18.76L71.86 18.98L71.6 19.18L71.36 19.38L70.98 19.64L70.42 20.02L70.12 20.22L70.02 20.24L70 20.16L70.16 19.96L70.2 19.94L70.12 19.96L69.9 20.14L69.82 20.22H69.74L69.78 20.14L69.84 20.04V20L69.68 20.08L69.56 20.22L69.48 20.2L69.56 20.08L69.44 20.12L69.24 20.22H69.12V20.18L69.4 20.02L69.64 19.92L70.04 19.68L70.66 19.26L71 19.02L71.26 18.82L71.54 18.6L71.74 18.42L72.04 18.14L72.14 18.04H72.18L72.22 17.96H72.26L72.28 17.9L72.4 17.8L72.58 17.58L72.72 17.44L72.92 17.18L73.12 16.9L73.32 16.6L73.48 16.34L73.66 16.02L73.84 15.56L74.02 14.88L74.04 14.62L74.02 14.56H73.98L73.78 14.14L73.54 13.88L73.36 13.76L73.16 13.68L73.04 13.7L72.72 13.94L72.44 14.08L72.02 14.18H71.68L71.34 14.12L71.06 14.02L70.88 13.92L70.66 13.76L70.4 13.5L70.22 13.26L70.02 12.96L69.84 12.64L69.62 12.18L69.5 11.92L69.44 11.76L69.46 11.7L69.7 12.14L69.86 12.46L70 12.7L70.08 12.8V12.84H70.12L69.92 12.48L69.74 12.14L69.54 11.7L69.34 11.32L69.12 10.86L69 10.6L68.8 10.08L68.58 9.54L68.38 9.18L68.18 8.92L68.04 8.78L67.84 8.66L67.58 8.54L67.4 8.5L67.2 9.02L67.04 9.34L66.96 9.44L66.92 9.42L67.02 9.14V9.06L66.86 9.42L66.66 9.74L66.44 10L66.16 10.28L65.96 10.42L65.66 10.56L65.42 10.64L65.28 10.66H64.72L64.32 10.56L63.98 10.4L63.74 10.22L63.54 9.96L63.32 9.6L63.1 9.18L62.96 8.86L63.02 9.08L63.16 9.4L63.36 9.78L63.38 9.9L63.28 9.8L63.1 9.56L62.94 9.3L62.76 8.96L62.6 8.52V8.48L62.26 8.6L62.04 8.72L61.84 8.88L61.66 9.08L61.5 9.34L61.34 9.66L61.1 10.28L60.92 10.78L60.72 11.3L60.44 11.98L60.28 12.28L59.96 12.76L59.72 13.08L59.5 13.32L59.42 13.42L59.2 13.6L59 13.76L58.8 13.86L58.52 13.94L58.32 13.96H58.46L58.88 13.84L59.18 13.68L59.44 13.48L59.62 13.3L59.76 13.14L59.86 13.04L59.94 12.98L59.9 13.08L59.72 13.34L59.48 13.62L59.28 13.8L58.96 14L58.66 14.12L58.32 14.18H58.02L57.6 14.1L57.24 13.94L57.04 13.78L56.92 13.68L56.78 13.7L56.46 13.86L56.32 14L56.26 14.1L56.2 14.12V13.98L56.34 13.7H56.38L56.42 13.62L56.52 13.5V13.46L56.36 13.6L56.22 13.8L56.14 13.96L56.06 14.36L56.02 14.8L55.96 14.72L55.94 14.58V14.24L56 13.9L55.92 14.16L55.9 14.36V14.76L56 15.2L56.14 15.58L56.34 16.04L56.54 16.4L56.82 16.84L57.06 17.16L57.32 17.48L57.46 17.64L57.7 17.9L57.8 18V18.04L57.88 18.08L58.02 18.24L58.22 18.42L58.48 18.64L58.74 18.84L58.98 19.02L59.28 19.24L59.4 19.32L59.44 19.42L59.3 19.36L59.22 19.32H59.1L59.02 19.26L58.96 19.24L58.94 19.34L58.82 19.3L58.64 19.28V19.24L58.54 19.22V19.28L58.44 19.24L58.18 19.04L57.96 18.84L57.64 18.56V18.52L57.56 18.48L57.18 18.1L57 17.88L56.76 17.6V17.56H56.72L56.48 17.22L56.3 16.96L56.1 16.66L55.88 16.28L55.64 15.82L55.42 15.28L55.28 14.86L55.18 14.4L55.16 14.26V13.72L55.24 13.4L55.4 13.08L55.58 12.84L55.8 12.62L56.1 12.42L56.38 12.28L56.56 12.24H56.8L56.92 12.28L57.02 12.36L57.16 12.52L57.44 12.68L57.68 12.74L58.1 12.76L58.42 12.68L58.82 12.48V12.44L58.98 12.3L59.16 12.12L59.3 11.92L59.56 11.5L59.8 11.06L60.06 10.5L60.36 9.8L60.62 9.16L60.78 8.82L61 8.5L61.22 8.24L61.5 7.96L61.84 7.7L62.12 7.52L62.44 7.36L62.72 7.24L63.22 7.12L63.38 7.1Z" fill="#FAF207"/>
<path d="M63.14 14.78L63.22 14.8L63.4 14.94L63.48 15L63.6 15.06V15.1H63.66V15.14L63.76 15.16L63.94 15.26L63.88 15.12L63.74 15L63.68 14.92L63.7 14.88L63.9 15L64.12 15.14L64.4 15.34L64.76 15.6L64.96 15.74L65.24 15.94L65.48 16.12L65.7 16.3L65.76 16.54L65.84 16.76L65.9 16.84L66 16.88L66.14 17.08L66.34 17.26L66.62 17.42L66.6 17.54L66.46 17.8L66.72 17.7L66.88 17.62L67.18 17.4L67.52 17.3L67.8 17.16L68 16.98L68.1 16.82L68.24 16.46L68.38 16.02L68.48 15.96L68.56 15.92H68.66L68.76 16.3L68.78 16.56V17.38L68.74 17.9L68.68 18.1L68.58 18.26L68.48 18.28L68.5 18.16L68.56 18L68.58 17.88V17.6L68.52 17.48L68.46 17.44L68.44 17.8L68.36 18.06L68.28 18.24L68.2 18.22L68.24 18.04V17.8L68.22 17.76L68.16 17.74L68.12 17.92L68.02 18.18L67.92 18.2L67.86 18.16L67.88 17.84L67.8 17.86L67.68 18.1L67.66 18.12H67.24L67.08 18.2L66.94 18.34L66.8 18.56L66.64 18.86L66.62 18.92L67 18.88H67.38L67.46 18.98L67.58 19.3L67.64 19.36V19.4H67.72L67.66 19.06L67.64 18.9L67.7 18.92L67.82 19.16L67.86 19.26L67.94 19.66L67.96 19.7L68.02 19.72L68.04 19.36L68 19.16L68.02 19.08L68.12 19.22L68.16 19.36L68.18 19.56V19.84L68.14 20.2L68.12 20.28L67.9 20.26L67.42 20.22L67.28 20.2L67.3 20.02H67.34L67.36 19.9L67.38 19.8L67.3 19.88H67.26L67.22 19.96L67.16 20.02L67.02 20.1L66.94 20.28L66.9 20.48L66.78 20.66L66.7 20.72L66.52 20.7L66.48 20.6L66.42 20.3L66.32 20.26L66.34 20.54L66.28 20.72L66.08 20.84L65.98 20.86L65.94 20.82V20.74H65.9L65.86 20.5L65.74 20.52V20.86L65.66 20.92L65.52 20.96L65.36 20.98H65.18L65.16 20.96V20.7L65.12 20.66L65.02 20.72L65 20.96L64.98 20.98H64.82L64.5 20.92L64.44 20.88V20.72L64.54 20.28L64.64 20.16L64.72 20.12H64.84L64.96 20.2L65.06 20.28H65.16L65.34 20.14L65.48 20.12L65.62 20.18L65.72 20.26L65.82 20.22L65.94 20.12L66.04 20.02L66.12 20.06L66.24 20.2L66.34 20.24L66.38 20.16L66.5 20.1L66.66 19.96L66.84 19.94L66.92 19.96L66.9 19.86L66.86 19.78L66.72 19.8L66.68 19.9L66.54 19.88L66.44 20L66.32 20.02L66.2 19.98V19.94L66.12 19.92L66.06 19.88H65.98L65.9 19.96L65.84 20.06L65.8 20.1H65.7L65.6 19.98V19.92H65.56V19.88L65.42 19.86L65.4 19.92H65.34L65.32 19.98H65.28L65.24 20.06L65.16 20.1L65.04 20.08V20.04L64.96 20.02L64.78 19.86L64.7 19.88L64.6 20.02H64.56L64.54 20.1L64.48 20.12V20.08L64.4 20.06L64.24 19.88L64.14 19.92L63.98 20H63.78L63.76 19.92L63.64 19.88H63.56L63.52 19.78L63.36 19.84L63.3 19.96L63.46 19.94L63.66 20.04L63.82 20.18H63.96L64.04 20.14H64.1L64.12 20.06L64.22 20.04L64.38 20.22V20.34L64.32 20.42L64.26 20.84L64.24 20.86L64.08 20.84L64.04 20.82V20.78L63.9 20.74L63.88 20.7L63.86 20.4H63.8L63.74 20.58L63.68 20.7H63.52L63.44 20.62L63.34 20.32L63.32 20.28L63.24 20.26V20.46H63.18L63.1 20.36L63.06 20.2L62.98 20.16L62.92 19.96L62.84 19.88L62.86 20.04L62.88 20.16L62.86 20.18H62.52L62.36 19.78L62.3 19.56L62.28 19.42V19.22L62.34 18.98L62.38 18.9H63.06L63.34 18.92L63.3 18.8V18.72H63.26L63.2 18.52L63.14 18.5V18.42L63.08 18.4V18.32L63 18.28L62.88 18.18L62.64 18.12L62.24 18.18L62.12 18.22H62L61.88 18.18L61.86 18.22H61.76V18.18H61.72V18.22L61.64 18.26L61.62 18.3L61.5 18.28L61.44 18.14L61.4 18.12L61.38 18.22H61.34V18.08L61.26 18.06L61.22 17.88L61.2 17.66V17.22L61.22 16.4L61.28 16.08L61.38 15.82L61.46 15.66L61.58 15.48L61.76 15.28L61.96 15.12L62.24 14.96L62.34 14.92H62.48L62.74 15.1L62.98 15.24L62.92 15.04L62.84 15L62.68 14.86L62.7 14.82H62.88L63 14.92L63.38 15.16L63.48 15.2L63.46 15.1L63.34 15L63.24 14.9L63.14 14.82V14.78Z" fill="#FCFBFC"/>
<path d="M61.68 24.78H61.92L63.02 24.9L63.88 25.02L64.38 25.12L64.62 25.26L64.78 25.48L64.86 25.68V26.14L64.74 27.18L64.6 28.42L64.44 29.44L64.38 29.84L64.3 30.02L64.18 30.18L64.04 30.3L63.86 30.38L63.78 30.4H63.42L61.82 30.2L61.02 30.06L60.82 29.96L60.68 29.82L60.54 29.54L60.5 29.38V29.22L60.54 29.02L60.62 28.22L60.82 26.64L60.96 25.54L61.04 25.24L61.16 25.04L61.34 24.88L61.56 24.8L61.68 24.78Z" fill="#2D0606"/>
<path d="M56.46 23.18H56.92L57.36 23.24L57.66 23.34L58.3 23.62L58.98 23.92L59.5 24.14L59.64 24.22L59.66 24.3L59.5 24.7L59.28 25.22L59.18 25.46L59.1 25.58L58.94 25.56L58.74 25.48L58.58 25.44V25.5L58.46 25.48L58.32 25.42L58.2 25.36L57.94 25.24L57.62 25.12L57.5 25.06L57.48 25.14L57.36 25.4L57.18 25.88L57.64 25.96L57.96 26.08L58.46 26.3L58.84 26.48L58.9 26.52L58.88 26.7L58.7 27.18L58.5 27.64L58.32 28.02L58.1 28.54L57.96 28.74L57.82 28.86L57.62 28.96L57.54 28.98H57.26L56.88 28.92L56.52 28.82L55.92 28.58L55.32 28.32L54.82 28.1L54.64 27.98L54.5 27.82L54.42 27.64L54.4 27.56V27.28L54.5 27L54.72 26.48L54.86 26.18L55.22 25.36L55.56 24.58L55.96 23.68L56.08 23.46L56.24 23.3L56.46 23.18Z" fill="#2D0606"/>
<path d="M69.16 24.76H69.58L69.76 24.8V24.84L69.84 24.88L69.94 24.98L70.06 25.14L70.12 25.3L70.2 25.72L70.32 26.5L70.44 27.2L70.52 27.66L70.56 27.94L70.68 28.56L70.72 28.86L70.76 29.02L70.78 29.24L70.76 29.48L70.66 29.68L70.48 29.86L70.32 29.94L69.7 30.06L68.5 30.26L68.36 30.28H68.06L67.86 30.22L67.68 30.1L67.54 29.94L67.46 29.76L67.28 28.72L67.12 27.76L66.84 26.1L66.82 26V25.62L66.9 25.42L67.08 25.22L67.26 25.1L67.36 25.06L67.76 25L68.78 24.82L69.16 24.76Z" fill="#2D0606"/>
<path d="M67.12 20.58L67.72 20.6L70.76 20.62L71.34 20.66L71.84 20.76L72.18 20.84L72.48 20.94L72.66 20.98L73.04 21.18L73.32 21.38L73.5 21.52L73.48 21.6H60.24L60.28 21.46L60.38 21.36H60.42V21.3L60.56 21.18L62.48 21.2H67.32L72.24 21.18L72.26 21.16L71.96 21.06L71.58 20.96L71.22 20.86L70.78 20.78L70.02 20.7H69.56L69.32 20.72H67.08L67.06 20.68L67.12 20.58Z" fill="#FDFDFD"/>
<path d="M71.58 23.82L71.66 23.84L71.9 24.56L72.14 25.26L72.62 26.7L72.84 27.34V27.46L72.62 27.54L71.9 27.78L71.64 27.86H71.5L71.32 27.4L70.3 24.34L70.32 24.24L70.64 24.12L71.24 23.92L71.58 23.82Z" fill="#2D0606"/>
<path d="M73.44 22.96H73.58L73.74 23.28L74 23.82L74.12 24.06L74.3 24.46L74.46 24.78L74.62 25.14L74.78 25.46L74.98 25.88L75.16 26.28L75.18 26.38L74.86 26.54L74.4 26.76L73.98 26.96H73.9L73.58 26.34L73.36 25.86L73.08 25.28L72.76 24.6L72.54 24.14L72.28 23.58L72.32 23.5L72.66 23.32L72.96 23.18L73.38 23L73.44 22.96Z" fill="#2D0606"/>
<path d="M64.66 13.06H65.3L65.82 13.14L66.42 13.28L67.1 13.52L67.68 13.76L67.8 13.84L67.88 13.88V13.92H67.72L67.5 13.88L67.3 13.86V13.9L67.4 13.92L67.72 14.1L67.94 14.26L68.14 14.44L68.28 14.56V14.6L68.36 14.64L68.5 14.8L68.6 14.9V14.94L68.48 14.92L68.16 14.76L67.74 14.56L67.42 14.44L66.92 14.32L66.4 14.22L65.56 14.1L65.36 14.08H64.66L64.18 14.14L63.36 14.26L62.68 14.4L62.32 14.52L61.5 14.92L61.42 14.96H61.36L61.4 14.88L61.48 14.78L61.78 14.48L61.94 14.34L62.2 14.14L62.52 13.96L62.7 13.9V13.86L62.4 13.88L62.06 13.92L62.12 13.86L62.44 13.7L63 13.48L63.4 13.34L63.9 13.2L64.24 13.12L64.6 13.08L64.66 13.06Z" fill="#F9F109"/>
<path d="M62.72 15.44H62.96L63.14 15.5L63.38 15.62L63.4 15.68L63.32 15.66H63.26L63.36 15.74L63.6 15.9L63.82 16.06L64.02 16.16H64.42L64.6 16.14V16.1L64.7 16.12L64.72 16.34V16.62L64.64 17.04L64.56 17.24L64.4 17.46L64.26 17.58L64 17.7L63.86 17.74H63.48L63.2 17.68L62.94 17.58L62.78 17.5V17.46L62.9 17.44L62.88 17.38L62.52 17.26L62.2 17.08L61.98 16.9L61.86 16.72L61.88 16.64L62.02 16.56H62.06L62.1 16.48L62.16 16.34V16.04L62.14 15.88L62.12 15.86V15.76L62.26 15.62L62.36 15.58L62.38 15.54L62.6 15.46L62.72 15.44Z" fill="#2D0606"/>
<path d="M63.68 14.88L63.9 15L64.12 15.14L64.4 15.34L64.76 15.6L64.96 15.74L65.24 15.94L65.48 16.12L65.7 16.3L65.76 16.54L65.84 16.76L65.9 16.84L66 16.88L66.14 17.08L66.34 17.26L66.62 17.42L66.6 17.54L66.46 17.8L66.72 17.7L66.88 17.62L67.18 17.4L67.52 17.3L67.8 17.16L68 16.98L68.1 16.82L68.24 16.46L68.38 16.02L68.48 15.96L68.56 15.92H68.66L68.76 16.3L68.78 16.56V17.38L68.74 17.9L68.68 18.1L68.58 18.26L68.48 18.28L68.5 18.16L68.56 18L68.58 17.88V17.6L68.52 17.48L68.46 17.44L68.44 17.8L68.36 18.06L68.28 18.24L68.2 18.22L68.24 18.04V17.8L68.22 17.76L68.16 17.74L68.12 17.92L68.02 18.18L67.92 18.2L67.86 18.16L67.88 17.84L67.8 17.86L67.68 18.1L67.66 18.12H67.24L67.08 18.2L66.94 18.34L66.8 18.56L66.64 18.86L66.62 18.92L67 18.88H67.38L67.46 18.98L67.58 19.3L67.64 19.36V19.4H67.72L67.66 19.06L67.64 18.9L67.7 18.92L67.82 19.16L67.86 19.26L67.94 19.66L67.96 19.7L68.02 19.72L68.04 19.36L68 19.16L68.02 19.08L68.12 19.22L68.16 19.36L68.18 19.56V19.84L68.14 20.2L68.12 20.28L67.9 20.26L67.42 20.22V20.2H67.56L67.52 19.9L67.4 19.48L67.28 19.3L67.1 19.14L66.94 19.08H66.72L66.52 19.12L66.44 19.1L66.42 19.06V18.92L66.48 18.68L66.64 18.36L66.82 18.16L67.04 18.02L67.44 17.9L67.5 17.8L67.58 17.56L67.28 17.64L66.94 17.8L66.7 17.92L66.42 18H66.26L66.24 17.94L66.3 17.66V17.54L66.26 17.46L66.18 17.42L66 17.26L65.72 16.88L65.52 16.52L65.42 16.42L65.22 16.26L65.02 16.12L64.72 15.9L64.36 15.64L64.04 15.4L63.86 15.28L63.78 15.2L63.9 15.24L63.94 15.26L63.88 15.12L63.74 15L63.68 14.92V14.88Z" fill="#788797"/>
<path d="M60.96 20.56L63.04 20.58L63.14 20.64L63.16 20.72L63.12 20.76L62.96 20.8L62.98 20.88L63.04 20.9V20.94L62.7 21.02L62.32 21.14H62.28V21.18H65.24L67.36 21.16L67.12 21.1L66.8 21.04L66.74 20.98L66.9 20.92L67.02 20.68L67.08 20.64V20.7H69.32L69.56 20.68H70.02L70.78 20.76L71.28 20.86L71.58 20.94L72.08 21.08L72.32 21.16L72.24 21.2L67.26 21.22H62.32L60.56 21.2L60.44 21.3L60.48 21.22L60.64 21.04L60.82 20.78L60.92 20.6L60.96 20.56Z" fill="#768798"/>
<path d="M58.28 19.74H59.16L59.58 19.8L59.98 19.92L60.18 20.02L60.38 20.18L60.5 20.32L60.54 20.42L60.52 20.58L60.32 20.84L60.14 21.04L59.94 21.32L59.78 21.54L59.6 21.86L59.5 22.12L59.48 22.28V22.52L59.54 22.7L59.56 22.8L59.24 22.68L59 22.58L58.82 22.44L58.72 22.28L58.68 22.16V22.02L58.74 21.82L58.86 21.6L59.34 20.96L59.94 20.36L59.96 20.3H59.78L59.28 20.26H58.44L57.76 20.32L57.56 20.38L57.3 20.52L57.18 20.58H56.64L56.52 20.52L56.5 20.42L56.8 20.22L57 20.08L57.24 19.94L57.46 19.86L57.96 19.76L58.28 19.74Z" fill="#F9F009"/>
<path d="M61.68 24.78H61.92L63.02 24.9L63.88 25.02L64.38 25.12L64.62 25.26L64.78 25.48L64.86 25.68V26.14L64.74 27.18L64.6 28.42L64.44 29.44L64.38 29.84L64.3 30.02L64.28 29.96L64.32 29.84L64.36 29.6L64.4 29.24L64.5 28.36L64.62 27.36L64.7 26.68L64.74 26.46L64.78 26.02L64.8 25.78L64.74 25.56L64.62 25.38V25.34L64.54 25.3L64.32 25.2L64.18 25.16L63.82 25.12L63.56 25.08L62.72 24.98L62.42 24.94H62.02L61.82 25.02L61.66 25.16L61.58 25.28L61.5 25.52L61.34 26.8L61.06 29.12L61.04 29.24V29.54L61.1 29.74L61.22 29.92L61.34 30.02L61.58 30.14L61.36 30.12L61.02 30.06L60.82 29.96L60.68 29.82L60.54 29.54L60.5 29.38V29.22L60.54 29.02L60.62 28.22L60.82 26.64L60.96 25.54L61.04 25.24L61.16 25.04L61.34 24.88L61.56 24.8L61.68 24.78Z" fill="#928584"/>
<path d="M62.52 22L62.66 22.02L62.96 22.32L63.16 22.46L63.22 22.48L63.18 22.3H63.3L63.28 22.16L63.26 22.06L63.4 22.18L63.78 22.56L63.94 22.66V22.7H64.02L64.04 22.5L64.14 22.52L64.56 22.7L64.88 22.78H65.14L65.52 22.66L65.88 22.5L65.96 22.52L65.98 22.64L66.1 22.6L66.34 22.38L66.5 22.24L66.7 22.04L66.74 22.02H67.54L67.5 22.1L67.34 22.24L67.18 22.36L67.08 22.46L66.8 22.72H66.76L66.72 22.8H66.68L66.64 22.88L66.48 23.06L66.34 23.26L66.12 23.4L65.98 23.46L65.88 23.48H65.62L65.36 23.42L65.26 23.38H64.88L64.66 23.4L64.36 23.5H64.12L63.86 23.42L63.7 23.32L63.56 23.16L63.46 23L63.3 22.82L63.1 22.62L62.84 22.38L62.56 22.16L62.48 22.08V22.02L62.52 22Z" fill="#788797"/>
<path d="M56.46 23.18H56.92L57.36 23.24L57.66 23.34L58.3 23.62L58.98 23.92L59.5 24.14L59.64 24.22L59.66 24.3L59.62 24.34L59.6 24.26L59.28 24.14L59.04 24.02L58.48 23.78L58.12 23.62L57.4 23.32L57.34 23.3H56.96L56.8 23.36L56.62 23.5L56.52 23.62L56.36 24L56 24.84L55.48 26.04L55.14 26.82L54.98 27.2L54.94 27.34V27.66L55.02 27.88L55.12 28L55.32 28.14L55.76 28.34L56.62 28.7L56.78 28.78L57.24 28.94V28.96L56.98 28.94L56.58 28.84L55.92 28.58L55.32 28.32L54.82 28.1L54.64 27.98L54.5 27.82L54.42 27.64L54.4 27.56V27.28L54.5 27L54.72 26.48L54.86 26.18L55.22 25.36L55.56 24.58L55.96 23.68L56.08 23.46L56.24 23.3L56.46 23.18Z" fill="#968A8A"/>
<path d="M72.42 27.84H72.54L72.58 27.94L73 27.88L73.08 27.98L73.2 28.3L73.5 29.16L73.46 29.26L72.72 29.52L72.26 29.66L72.08 29.68L72.02 29.6V29.54L71.7 29.62L71.6 29.6L71.48 29.32L71.28 28.76L71.16 28.34V28.24L71.48 28.16L71.7 28.08L72.06 27.96L72.22 27.92H72.28L72.42 27.84Z" fill="#2D0707"/>
<path d="M64.86 28.9H66.24L66.54 28.92L66.6 28.94L66.62 29.04L66.66 29.8V30.36L66.64 30.4L66.58 30.42L65.98 30.46H65.2L65.14 30.42L64.78 30.4L64.72 30.36L64.7 30.3L64.66 29.48V28.96L64.68 28.92L64.86 28.9Z" fill="#2D0606"/>
<path d="M58.54 27.98H58.72L59 28.02L59.3 28.06L60.02 28.26L60.4 28.36L60.42 28.44L60.28 29.06L60.1 29.7L60.04 29.8L59.82 29.78L59.28 29.66L58.66 29.5L58.3 29.42L58.18 29.36L58.2 29.16L58.44 28.18L58.54 27.98Z" fill="#2E0808"/>
<path d="M68.76 24.7H69.06L69.54 24.72L69.72 24.78L69.66 24.8L69.58 24.78H69.16L68.78 24.84L68.3 24.92L67.96 24.98L67.36 25.08L67.12 25.2L66.96 25.36L66.86 25.56L66.84 25.62V26L67 26.94L67.14 27.76L67.3 28.72L67.48 29.76L67.58 29.96L67.72 30.12L67.9 30.22L68.22 30.28V30.3H68.04L67.48 30.22L67.3 30.14L67.1 29.96L67 29.74L66.92 29.42L66.84 28.9L66.6 27.46L66.54 27.08L66.52 27.04L66.48 26.68L66.4 26.28L66.34 25.86V25.54L66.46 25.3L66.62 25.14L66.8 25.04L67.08 24.96L67.78 24.86L68.46 24.74L68.76 24.7Z" fill="#928585"/>
<path d="M66.64 14.72L66.94 14.74L67.06 14.78L67.48 14.84L67.7 14.92L67.96 15.06L68.2 15.24L68.36 15.4L68.44 15.52V15.6L68.28 15.66L68.16 15.68H67.82L67.5 15.58L67.36 15.52L67.2 15.22L67.12 15.04H67.1L67.08 15.38L67.06 15.5H66.66L66.34 15.58L66.1 15.68L66.02 15.7H65.88L65.56 15.54L65.12 15.28L64.76 15.04L64.56 14.9V14.86H65.22L65.74 14.78L66.14 14.74L66.64 14.72Z" fill="#788796"/>
<path d="M75.4 26.84L75.46 26.9L75.74 27.5L75.9 27.82L75.92 27.92L75.98 27.94L76.02 28.1L75.94 28.18L75.46 28.42L75.04 28.62L74.76 28.72L74.68 28.68L74.64 28.52L74.44 28.14L74.14 27.5L74.16 27.42L74.54 27.22L75.32 26.86L75.4 26.84Z" fill="#2D0606"/>
<path d="M71.12 23.74L71.18 23.76L71.24 23.88H71.38L71.34 23.92L71.1 23.98L70.36 24.24L70.32 24.26L70.34 24.4L70.6 25.2L70.88 26.02L71.38 27.52L71.48 27.74L71.5 27.86L71.56 27.88H71.46L71.42 27.76L71.28 27.78L71.02 27.84L70.96 27.76L70.8 27.28L70.68 26.88L70.62 26.64L70.3 25.66L70.1 25.1L69.8 24.2L69.86 24.14L71.02 23.76L71.12 23.74Z" fill="#918585"/>
<path d="M73.04 22.88L73.14 22.9L73.22 23.02L73.32 23L73.4 22.98L73.34 23.04L72.86 23.24L72.54 23.4L72.32 23.52L72.3 23.58L72.62 24.26L72.86 24.76L73.12 25.32L73.3 25.7L73.46 26.02L73.7 26.54L73.84 26.8L73.82 26.84L73.8 26.82L73.66 26.84L73.52 26.9L73.42 26.88L73.08 26.16L72.76 25.5L72.44 24.82L72.16 24.22L71.86 23.6L71.84 23.48L72.02 23.36L72.58 23.1L73.04 22.88Z" fill="#918584"/>
<path d="M57.3 20.94H58.1L58.92 20.96L58.94 21L58.82 21.2L58.7 21.44L58.64 21.6L58.6 21.62H56.6L56.54 21.6L56.5 21.36V21.16L56.58 20.98L56.6 20.96L57.3 20.94Z" fill="#F8F00A"/>
<path d="M60.96 20.56L63.04 20.58L63.14 20.64L63.16 20.72L63.12 20.76L62.96 20.8L62.98 20.88L63.04 20.9V20.94L62.7 21.02L62.32 21.14H62.28V21.18H65.24L67.36 21.16L67.32 21.12L67.44 21.14V21.2L67.26 21.22H62.32L60.56 21.2L60.44 21.3L60.48 21.22L60.64 21.04L60.82 20.78L60.92 20.6L60.96 20.56Z" fill="#788797"/>
<path d="M66.04 20L66.12 20.04L66.24 20.18L66.34 20.22L66.38 20.14L66.5 20.08L66.62 20L66.66 20.18L66.7 20.42L66.84 20.3L66.96 20.14L66.98 20.18L66.94 20.26L66.9 20.46L66.78 20.64L66.7 20.7L66.52 20.68L66.48 20.58L66.42 20.28L66.32 20.24L66.34 20.52L66.28 20.7L66.08 20.82L65.98 20.84L65.94 20.8V20.72H65.9L65.86 20.48L65.74 20.5V20.84L65.66 20.9L65.52 20.94L65.36 20.96H65.18L65.16 20.94V20.68L65.12 20.64L65.02 20.7L65 20.94L64.98 20.96H64.82L64.5 20.9L64.44 20.86V20.7L64.54 20.26L64.64 20.14L64.72 20.1H64.84L64.96 20.18L65.06 20.26H65.16L65.34 20.12L65.48 20.1L65.62 20.16L65.72 20.24L65.82 20.2L65.94 20.1L66.04 20Z" fill="#7A8796"/>
<path d="M64.96 17.14L65.04 17.16L65.18 17.36L65.24 17.46L65.28 17.48L65.42 17.76L65.52 18L65.64 18.34L65.7 18.48V18.62L65.58 18.82L65.5 18.92L65.4 18.9L65.22 18.7L65.14 18.56V18.38L65.04 18.46L64.86 18.4L64.84 18.6L64.66 18.84L64.58 18.92L64.48 18.9L64.36 18.76L64.28 18.6L64.3 18.48L64.36 18.32L64.56 17.78L64.74 17.46L64.8 17.34L64.86 17.28L64.96 17.14Z" fill="#2D0606"/>
<path d="M60.82 17.88H60.9L60.86 18L60.72 18.16L60.68 18.22L60.76 18.18L60.86 18.12H60.9L60.86 18.2L60.7 18.44L60.64 18.66V18.84L60.7 19.02L60.82 19.1L60.88 19.12H61.1L61.3 19.02L61.48 18.82L61.58 18.58L61.64 18.48L61.84 18.42L61.86 18.44V18.66L61.8 18.9L61.64 19.22L61.44 19.46L61.28 19.58L61.04 19.7L60.82 19.76L60.6 19.74L60.44 19.66L60.3 19.54L60.18 19.3L60.14 19.06L60.18 18.74L60.3 18.42L60.44 18.2L60.62 18L60.82 17.88Z" fill="#788796"/>
<path d="M71.04 20L71.08 20.02L71 20.1L71.56 20.18L72.12 20.3L72.72 20.5L73.04 20.66L73.4 20.86L73.74 21.12L74 21.36L74.2 21.54L74.44 21.78L74.54 21.92V21.98H74.5V22.02L74.44 22.04L74.02 22.06L73.74 22.12L73.26 22.14H70.4L70.02 22.18H69.8L69.42 22.12L69 22.04L68.36 22.02H68L67.96 22.14L67.88 22.2L67.9 22.1L68.02 21.94L69.9 21.92H74.44V21.86L74.36 21.82L73.92 21.38V21.34L73.84 21.3L73.6 21.08L73.26 20.84L72.84 20.62L72.2 20.4L71.62 20.26L71.2 20.2L70.92 20.18L70.86 20.16L70.88 20.1L71.04 20Z" fill="#FBFBFB"/>
<path d="M69.16 17.9L69.26 17.92L69.46 18.08L69.64 18.32L69.78 18.6L69.84 18.84V19.14L69.8 19.34L69.7 19.52L69.6 19.62L69.48 19.7L69.36 19.74H69.1L68.86 19.66L68.64 19.52L68.58 19.48V19.44L68.5 19.4L68.38 19.26L68.32 19.12H68.36L68.46 19.22L68.54 19.26L68.36 19.02L68.3 18.82L68.34 18.78L68.36 18.52H68.4L68.48 18.76L68.6 18.92L68.76 19.06L68.9 19.12H69.12L69.24 19.06L69.34 18.9L69.36 18.84V18.66L69.28 18.4L69.12 18.14L69.14 17.94L69.16 17.9Z" fill="#788797"/>
<path d="M64.28 11.32L64.48 11.36L64.56 11.46L64.6 11.58L64.92 11.74H65.06L65.36 11.6L65.42 11.56L65.44 11.42L65.56 11.34L65.7 11.32L65.84 11.38L65.94 11.46L65.96 11.62L65.86 11.7L65.82 11.72L65.64 11.7H65.46L65.22 11.82L65.24 11.88L65.56 12.02L65.74 11.98H65.92L66.08 12.08L66.2 12.24V12.46L66.1 12.56L65.9 12.6L65.7 12.52L65.56 12.34L65.52 12.18L65.42 12.1L65.06 11.94H64.92L64.52 12.14L64.48 12.18L64.4 12.4L64.26 12.54L64.1 12.6L63.92 12.58L63.8 12.48L63.76 12.32L63.82 12.18L63.96 12.04L64.12 11.98H64.26L64.36 12.02L64.5 12L64.78 11.86H64.82L64.78 11.8L64.58 11.72L64.56 11.7H64.38L64.2 11.74L64.06 11.66L64.04 11.64V11.5L64.14 11.38L64.28 11.32Z" fill="#7A8795"/>
<path d="M68.74 26.3H68.82L68.92 26.76L69.06 27.62L69.18 28.36L69.22 28.52V28.62L69.08 28.68L68.94 28.72H68.78L68.7 28.52L68.48 27.2L68.42 26.86L68.36 26.58V26.4L68.4 26.36L68.74 26.3Z" fill="#938584"/>
<path d="M62.84 26.44H63.02L63.26 26.48L63.28 26.5V26.72L63.14 27.92L63.04 28.7L62.98 28.84H62.78L62.56 28.8L62.54 28.78V28.58L62.6 28.16L62.68 27.46L62.76 26.8L62.82 26.48L62.84 26.44Z" fill="#938584"/>
<path d="M62.34 14.92H62.48L62.74 15.1L62.86 15.18L62.82 15.2H62.68L62.48 15.28L62.28 15.42L62.1 15.58L61.9 15.86L61.7 16.22L61.42 16.8L61.28 17.16L61.26 17.26V17.76L61.28 17.88L61.32 17.62L61.38 17.64L61.42 17.94V18.04H61.46V17.88L61.54 17.96L61.58 18.06L61.64 18.1L61.74 18.06L62 18.14L62.16 18.18L62.12 18.22H62L61.88 18.18L61.86 18.22H61.76V18.18H61.72V18.22L61.64 18.26L61.62 18.3L61.5 18.28L61.44 18.14L61.4 18.12L61.38 18.22H61.34V18.08L61.26 18.06L61.22 17.88L61.2 17.66V17.22L61.22 16.4L61.28 16.08L61.38 15.82L61.46 15.66L61.58 15.48L61.76 15.28L61.96 15.12L62.24 14.96L62.34 14.92Z" fill="#768798"/>
<path d="M72.42 27.84H72.54L72.58 27.94L73 27.88L73.08 27.98L73.2 28.3L73.5 29.16L73.48 29.2L73.4 29.1L73.36 28.96L73.3 28.82L73.2 28.5L73.06 28.08L73 27.94L72.9 27.96L72.32 28.14L71.78 28.32L71.7 28.36V28.48L71.98 29.3L72.1 29.64L72.16 29.68L72.06 29.66L72.02 29.6V29.54L71.7 29.62L71.6 29.6L71.48 29.32L71.28 28.76L71.16 28.34V28.24L71.48 28.16L71.7 28.08L72.06 27.96L72.22 27.92H72.28L72.42 27.84Z" fill="#958989"/>
<path d="M57.52 24.96L57.68 24.98L58 25.12L58.56 25.36L58.78 25.44L58.86 25.5L58.66 25.46L58.58 25.44V25.5L58.46 25.48L58.32 25.42L58.2 25.36L57.94 25.24L57.62 25.12L57.5 25.06L57.48 25.14L57.36 25.4L57.18 25.88L57.64 25.96L57.96 26.08L58.46 26.3L58.84 26.48L58.9 26.52V26.62L58.88 26.56L58.78 26.54L58.18 26.28L57.68 26.06L57.58 26.02L57.54 26.14L57.4 26.42L57.18 26.94L57.02 27.28L56.88 27.26L56.66 27.16L56.58 27.1L56.6 27L56.8 26.56L57.04 26L57.26 25.5L57.46 25.04L57.52 24.96Z" fill="#928584"/>
<path d="M64.86 28.9H66.24L66.54 28.92L66.6 28.94L66.58 29L66.22 29.02L66.12 29L65.28 29.02L65.18 29.04L65.2 30.24L65.24 30.42L66.14 30.4H66.58V30.42L65.98 30.46H65.2L65.14 30.42L64.78 30.4L64.72 30.36L64.7 30.3L64.66 29.48V28.96L64.68 28.92L64.86 28.9Z" fill="#918686"/>
<path d="M69.16 15.12H69.32L69.78 15.3L69.96 15.34L70.22 15.36L70.24 15.42L70.08 15.7L69.92 15.92L69.76 16.08L69.58 16.16H69.22L68.94 16.08L68.9 15.9L68.92 15.8L69 15.78L69.2 15.76L69.4 15.66L69.46 15.64L69.48 15.58L69.28 15.54L68.88 15.44L68.82 15.36V15.22L68.88 15.18L69.16 15.12Z" fill="#F6EE0D"/>
<path d="M65 17.18L65.1 17.28L65.3 17.52L65.48 17.82L65.6 18.08L65.7 18.46L65.74 18.7L65.72 18.9L65.62 19.06L65.5 19.16L65.4 19.2L65.22 19.18L65.06 19.08L64.92 18.96L64.74 19.14L64.6 19.2L64.46 19.18L64.32 19.1L64.18 18.94L64.14 18.82L64.16 18.52L64.26 18.12L64.4 17.8L64.52 17.64L64.58 17.54L64.72 17.36L64.74 17.4L64.54 17.74L64.38 18.14L64.28 18.46L64.24 18.52L64.26 18.62L64.36 18.82L64.44 18.9L64.54 18.88L64.68 18.72L64.76 18.6L64.78 18.4L64.82 18.38L64.94 18.44L65.02 18.4L65.08 18.38L65.1 18.52L65.14 18.64L65.32 18.86L65.36 18.9L65.44 18.92L65.48 18.84L65.56 18.74L65.62 18.62V18.48L65.46 18.08L65.36 17.78L65.28 17.64L65.22 17.54V17.48L65.16 17.46L65.02 17.24L65 17.18Z" fill="#778797"/>
<path d="M58.54 27.98H58.72L59 28.02L59.3 28.06L60.02 28.26L60.4 28.36L60.42 28.44L60.18 28.38L59.64 28.24L59.12 28.1H59.04L58.96 28.3L58.72 29.2L58.7 29.3V29.44L59.04 29.56L58.98 29.58L58.56 29.48L58.24 29.4L58.18 29.36L58.2 29.16L58.44 28.18L58.54 27.98Z" fill="#918585"/>
<path d="M74.88 26.8H74.98L75.06 26.92L75.18 26.9L75.28 26.88L75.2 26.94L74.72 27.16L74.18 27.42L74.16 27.5L74.42 28.04L74.64 28.5L74.68 28.56L74.66 28.64L74.6 28.58L74.58 28.62H74.54V28.58L74.4 28.64L74.32 28.68L74.2 28.58L73.86 27.9L73.78 27.64L73.7 27.46L73.72 27.36L74.04 27.2L74.54 26.96L74.88 26.8Z" fill="#918586"/>
<path d="M63.34 22.56L63.48 22.58L63.78 22.84L63.92 22.94L63.98 22.96H64.12L64.18 22.94V22.72L64.26 22.7L64.58 22.84L64.92 22.94L65 23.02L65.12 23.24L65.14 23.32L64.7 23.36L64.36 23.46H64.16L63.94 23.42L63.74 23.32L63.6 23.16L63.5 23L63.48 22.94L63.42 22.92L63.28 22.76L63.24 22.72L63.26 22.62L63.34 22.56Z" fill="#FEFEFE"/>
<path d="M62.26 15.62L62.3 15.64L62.16 15.78L62.18 15.86L62.28 15.98L62.34 16.12V16.38L62.26 16.5L62.16 16.6L61.96 16.66H61.9L61.98 16.78L62.34 17.04L62.62 17.2L62.88 17.3H63.34L63.84 17.16L63.96 17.12L63.94 17.2L63.7 17.32L63.44 17.4L63.22 17.44L63.28 17.5L63.4 17.52H63.58L63.82 17.46L63.94 17.44V17.4L64.18 17.24L64.24 17.18L64.28 17.2L64.1 17.4L63.88 17.54L63.7 17.62H63.78L63.98 17.56L64.18 17.44L64.34 17.3L64.38 17.22H64.42L64.48 17L64.64 16.54L64.66 16.5V16.14L64.6 16.1L64.7 16.12L64.72 16.34V16.62L64.64 17.04L64.56 17.24L64.4 17.46L64.26 17.58L64 17.7L63.86 17.74H63.48L63.2 17.68L62.94 17.58L62.78 17.5V17.46L62.9 17.44L62.88 17.38L62.52 17.26L62.2 17.08L61.98 16.9L61.86 16.72L61.88 16.64L62.02 16.56H62.06L62.1 16.48L62.16 16.34V16.04L62.14 15.88L62.12 15.86V15.76L62.26 15.62Z" fill="#7D8A98"/>
<path d="M66.24 14.78H66.8L66.94 14.82V14.96L66.88 15.2L66.82 15.28L66.52 15.3L66.14 15.4L66.06 15.44H65.94L65.74 15.28L65.4 15.04L65.3 14.96V14.88L65.7 14.82L66.24 14.78Z" fill="#FEFEFE"/>
<path d="M55.96 20.7H56.14L56.24 20.74L56.22 20.9L56.16 21.1V21.46L56.2 21.62V21.74L56.14 21.76L56.1 21.74V21.7H56.04V21.78L55.96 21.8L55.88 21.76L55.84 21.56H55.8V21.74L55.76 21.76L55.62 21.64L55.58 21.5L55.5 21.46L55.44 21.28V21.14L55.52 20.96L55.56 20.88L55.7 20.78L55.86 20.72L55.96 20.7Z" fill="#FAFAFA"/>
<path d="M64.14 22H64.94L64.98 22.02L65 22.26L65.06 22.24L65.14 22.02L65.16 22H65.84L65.88 22.02V22.16L65.78 22.26L65.62 22.34L65.32 22.42L65.04 22.46H64.88L64.54 22.4L64.24 22.28L64.14 22.2L64.12 22.16V22.02L64.14 22Z" fill="#EAE9E9"/>
<path d="M67.18 15.58L67.26 15.62L67.34 15.82L67.4 16.04L67.42 16.2V16.48L67.36 16.76L67.22 17.08L67.02 17.34L66.84 17.52L66.76 17.54L66.78 17.4L66.9 17.16L67 16.78L67.12 16.2L67.16 15.94L67.18 15.58Z" fill="#F3EA11"/>
<path d="M62.42 18.86H62.88L63.2 18.9V18.92H62.38L62.32 19.1L62.3 19.22V19.42L62.36 19.7L62.48 20.02L62.52 20.18L62.86 20.16L62.82 19.96L62.84 19.86L62.94 19.96L62.96 20.06L62.9 20V20.06L62.92 20.18L62.86 20.22H62.5L62.38 20.16L62.28 19.9L62.24 19.82L62.18 19.8V20L62.2 20.18H62.12L62.1 20.1L62.08 19.74V19.24L62.02 19.26L61.96 19.4L61.94 19.58V20L61.96 20.16L61.94 20.2L61.86 20.16L61.82 20.04V19.4L61.9 19.18L62.06 19L62.18 18.94L62.42 18.86Z" fill="#798796"/>
<path d="M60.24 21.52L60.26 21.56L60.24 21.6L73.48 21.58L73.52 21.54L73.56 21.62L73.52 21.64H60.26L60.2 21.62L60.24 21.52Z" fill="#928584"/>
<path d="M61.68 24.78H61.92L63.02 24.9L63.88 25.02L64.38 25.12L64.62 25.26L64.72 25.38L64.7 25.42L64.64 25.36V25.32L64.56 25.28L64.44 25.2L64.26 25.14L63.78 25.06L63.08 24.98L62.22 24.88L61.7 24.86L61.4 24.94L61.14 25.18L61.04 25.44L60.88 26.78L60.84 27.08L60.78 27.6L60.72 28.16L60.68 28.42L60.6 29.02L60.58 29.44L60.6 29.64L60.56 29.6L60.5 29.38V29.22L60.54 29.02L60.62 28.22L60.82 26.64L60.96 25.54L61.04 25.24L61.16 25.04L61.34 24.88L61.56 24.8L61.68 24.78Z" fill="#FEFEFE"/>
<path d="M68.72 24.64H69.18L69.62 24.7L69.8 24.8L69.76 24.82L69.54 24.74L69.06 24.72H68.76L68.12 24.82L67.02 25L66.74 25.08L66.56 25.22L66.44 25.36L66.36 25.54V25.86L66.44 26.42L66.5 26.68L66.54 27.04L66.58 27.24L66.66 27.66L66.82 28.68L66.9 29.14L66.98 29.62L67.08 29.88L67.06 29.92L66.98 29.76L66.9 29.46L66.74 28.56L66.46 26.88L66.32 26.02L66.3 25.84V25.58L66.38 25.36L66.5 25.2L66.66 25.06L66.84 24.98L67.42 24.86L68.02 24.76L68.72 24.64Z" fill="#FEFEFE"/>
<path d="M64.68 11.94L64.74 11.96L64.66 12.04L64.5 12.12L64.46 12.16L64.42 12.36L64.28 12.52L64.18 12.58L64 12.6L63.86 12.54L63.78 12.44L63.76 12.32L63.82 12.18L63.96 12.04L64.12 11.98H64.26L64.36 12.02L64.5 12L64.68 11.94Z" fill="#798796"/>
<path d="M63.3 16.16L63.44 16.18L63.58 16.26L63.64 16.36V16.58L63.52 16.74L63.4 16.8L63.3 16.82L63.16 16.78L63.06 16.68L63 16.58V16.4L63.04 16.32H63.08L63.1 16.24L63.22 16.18L63.3 16.16Z" fill="#F2F1F1"/>
<path d="M64.72 25.42L64.78 25.48L64.86 25.68V26.14L64.74 27.18L64.6 28.42L64.44 29.44L64.38 29.84L64.3 30.02L64.28 29.96L64.32 29.84L64.36 29.6L64.4 29.24L64.5 28.36L64.62 27.36L64.7 26.68L64.74 26.46L64.78 26.02L64.8 25.78L64.74 25.56L64.72 25.54V25.42Z" fill="#8E8587"/>
<path d="M67.38 14.86L67.58 14.9L67.82 14.98L68.04 15.12L68.3 15.38V15.46L68.26 15.48H67.98L67.74 15.42L67.58 15.32L67.46 15.14L67.38 14.98L67.36 14.88L67.38 14.86Z" fill="#FAFAFA"/>
<path d="M74.44 21.92L74.48 21.94V22.02L73.46 22.04H68.08L68.02 22.06L67.94 22.22L67.88 22.26L67.9 22.16L68.02 22L69.9 21.98H74.44V21.92Z" fill="#8C8588"/>
<path d="M57.52 24.96L57.68 24.98L58 25.12L58.56 25.36L58.78 25.44L58.86 25.5L58.66 25.46L58.58 25.44V25.5L58.46 25.48L58.32 25.42L58.2 25.36L57.94 25.24L57.62 25.12L57.5 25.06L57.48 25.14L57.36 25.4L57.18 25.88L57.64 25.96L57.96 26.08L58.46 26.3L58.8 26.46L58.74 26.48L58.06 26.18L57.6 26L57.54 26.08L57.36 26.06L57.12 25.94L57.16 25.74L57.28 25.44L57.42 25.14L57.5 24.98L57.52 24.96Z" fill="#9C9496"/>
<path d="M65.3 20.32L65.42 20.34L65.52 20.44L65.6 20.58V20.62H65.64L65.68 20.72V20.88L65.5 20.94L65.36 20.98H65.18V20.52L65.26 20.34L65.3 20.32Z" fill="#FCFCFC"/>
<path d="M64.66 20.34H64.78L64.9 20.52L64.96 20.72L64.98 20.94L64.96 20.96L64.7 20.94L64.52 20.9L64.48 20.88V20.64L64.56 20.42L64.66 20.34Z" fill="#FEFEFE"/>
<path d="M57.9 19.3L57.98 19.36V19.42L57.56 19.5L57.18 19.6L56.94 19.7L56.66 19.86L56.4 20.04L56.2 20.18L56.04 20.3L55.72 20.38L55.5 20.48L55.34 20.6L55.2 20.76L55.12 20.96L55.08 21.16V21.3L55.16 21.62L55.24 21.76L55.22 21.8L55.1 21.6L55.04 21.42L55.02 21.18L55.06 20.92L55.16 20.72L55.34 20.52L55.54 20.38L55.8 20.28L56 20.22L56.28 20.04L56.62 19.8L56.94 19.62L57.26 19.5L57.7 19.38L57.9 19.34V19.3Z" fill="#A6A1A4"/>
<path d="M73.46 22.92H73.58L73.66 23L73.96 23.6L74.22 24.16L74.98 25.76L75.24 26.3L75.26 26.42L75.18 26.46L75.12 26.44L75.16 26.34L75.06 26.1L74.86 25.66L74.7 25.34L74.38 24.66L74.12 24.12L74.04 23.94L73.88 23.62L73.66 23.14L73.58 22.98L73.44 22.96L73.46 22.92Z" fill="#CFCACA"/>
<path d="M61.36 15.86L61.38 15.92L61.3 16.18L61.26 16.46V17.76L61.28 17.88L61.32 17.62L61.38 17.64L61.42 17.94V18.04H61.46V17.88L61.54 17.96L61.58 18.06L61.64 18.1L61.74 18.06L62 18.14L62.16 18.18L62.12 18.22H62L61.88 18.18L61.86 18.22H61.76V18.18H61.72V18.22L61.64 18.26L61.62 18.3L61.5 18.28L61.44 18.14L61.4 18.12L61.38 18.22H61.34V18.08L61.26 18.06L61.22 17.88L61.2 17.66V17.22L61.22 16.4L61.28 16.08L61.36 15.86Z" fill="#8E8384"/>
<path d="M60.96 20.62H63.06L63.12 20.66L63.1 20.74L61.26 20.72L61.02 20.7L60.96 20.68V20.62Z" fill="#FEFEFE"/>
<path d="M66.6 20L66.66 20.18L66.7 20.42L66.84 20.3L66.96 20.14L66.98 20.18L66.94 20.26L66.9 20.46L66.78 20.64L66.7 20.7L66.52 20.68L66.48 20.58L66.42 20.28L66.32 20.24V20.36H66.3L66.26 20.2L66.34 20.22L66.38 20.14L66.5 20.08L66.6 20Z" fill="#7A8795"/>
<path d="M74.34 12.24L74.5 12.36L74.84 12.7L74.98 12.9L75.12 13.18L75.2 13.48L75.26 13.9V14.08L75.2 14.56L75.06 15.12L74.9 15.56L74.64 16.12L74.34 16.68L74.32 16.62L74.54 16.22L74.7 15.9L74.76 15.7L74.84 15.52L74.9 15.34L74.98 15.16L75.08 14.8L75.14 14.56L75.18 14.22V13.84L75.14 13.48L75.1 13.4L75.04 13.16L74.88 12.84L74.68 12.62L74.54 12.46L74.34 12.28V12.24Z" fill="#C1BAB9"/>
<path d="M70.06 25.14L70.1 25.16L70.22 25.58L70.28 25.94L70.38 26.44L70.44 26.92L70.74 28.7L70.8 29.14L70.78 29.4H70.76V29.22L70.72 28.96L70.68 28.76L70.64 28.46L70.58 28.18L70.44 27.32L70.32 26.58L70.2 25.88L70.12 25.42L70.06 25.14Z" fill="#AAA3A4"/>
<path d="M67.14 20.56L70.7 20.58L71.3 20.62L71.76 20.7L72.16 20.8L72.52 20.92L72.56 20.96L72.42 20.94L72.04 20.82L71.48 20.7L71.02 20.66L70.76 20.64L67.72 20.62L67.24 20.6L67.14 20.58V20.56Z" fill="#88868B"/>
<path d="M68.98 16.28L69.18 16.36L69.44 16.44L69.6 16.48L69.62 16.54L69.54 16.64L69.38 16.72L69.2 16.76H69.06L69.02 16.68L68.96 16.3L68.98 16.28Z" fill="#F0E813"/>
<path d="M64.28 11.32L64.48 11.36L64.52 11.4L64.56 11.58L64.72 11.68L64.82 11.74L64.76 11.76L64.58 11.72L64.56 11.7H64.38L64.2 11.74L64.06 11.66L64.04 11.64V11.5L64.14 11.38L64.28 11.32Z" fill="#778798"/>
<path d="M59.94 22H61.96L62.04 22.08L62.06 22.16L61.96 22.06H59.94L59.9 22.22V22.46L59.96 22.66L60.24 23.02L60.28 23.14L60.18 23.16V23.1L59.94 22.78L59.82 22.58L59.8 22.52V22.28L59.9 22.06L59.94 22Z" fill="#919197"/>
<path d="M71.04 20L71.08 20.02L71 20.1L71.56 20.18L72.12 20.3L72.72 20.5L73.04 20.66L73.4 20.86L73.74 21.12L73.92 21.32H73.86L73.6 21.08L73.26 20.84L72.84 20.62L72.2 20.4L71.62 20.26L71.2 20.2L70.92 20.18L70.86 20.16L70.88 20.1L71.04 20Z" fill="#90898B"/>
<path d="M62.26 21.12L62.32 21.14H62.28V21.18H65.24L67.36 21.16L67.32 21.12L67.44 21.14V21.2L67.26 21.22H62.32L62.18 21.18L62.26 21.12Z" fill="#87868C"/>
<path d="M70.58 23.86H70.66V23.9L69.86 24.16L69.82 24.2L70.06 24.92L70.3 25.62L70.68 26.76L70.66 26.82L70.42 26.14L70.22 25.54L70.18 25.56L70.1 25.22L70.08 25.16L70 25.08L69.88 24.92L69.76 24.84L69.82 24.8L70 24.98L70.04 25L69.96 24.78L69.84 24.48L69.78 24.22L69.8 24.12L70.02 24.04L70.58 23.86Z" fill="#FEFEFE"/>
<path d="M71.12 11.84L71.24 11.94V11.98L71.32 12.02L71.5 12.18L71.76 12.3L71.84 12.32L72.24 12.34L72.44 12.28L72.6 12.16L72.78 11.98L72.94 11.88L73.08 11.84H73.46L73.78 11.9L74.02 12L74.26 12.16L74.34 12.24L74.26 12.22L74 12.06L73.82 11.98L73.46 11.9L73.02 11.92L72.86 11.98L72.66 12.16L72.52 12.32L72.34 12.4H72L71.68 12.34L71.56 12.28V12.24L71.46 12.22L71.22 12L71.12 11.88V11.84Z" fill="#AFA8A9"/>
<path d="M65.62 11.32L65.78 11.34L65.94 11.46L65.96 11.62L65.9 11.68L65.72 11.7L65.48 11.66L65.38 11.7H65.3L65.32 11.64L65.46 11.6V11.44L65.56 11.34L65.62 11.32Z" fill="#768798"/>
<path d="M66.02 20.24L66.12 20.3L66.2 20.44L66.26 20.62V20.72L66.16 20.8L66.04 20.86L65.96 20.84L65.92 20.74L65.9 20.48L65.96 20.28L66.02 20.24Z" fill="#FEFEFE"/>
<path d="M57.3 23.24L57.5 23.28L58.08 23.52L58.84 23.86L59.36 24.08L59.64 24.22L59.66 24.3L59.62 24.34L59.6 24.26L59.28 24.14L59.04 24.02L58.48 23.78L58.12 23.62L57.4 23.32L57.34 23.3V23.26L57.3 23.24Z" fill="#C7C3C4"/>
<path d="M71.56 23.8H71.66L71.74 23.98L72.48 26.2V26.24H72.52L72.82 27.16L72.86 27.32V27.44H72.84L72.76 27.18L72.48 26.32L72.2 25.5L71.94 24.74L71.68 23.94L71.64 23.84L71.44 23.86L71.5 23.82L71.56 23.8Z" fill="#8D8587"/>
<path d="M62.26 15.62L62.3 15.64L62.16 15.78L62.18 15.86L62.28 15.98L62.34 16.12V16.38L62.26 16.5L62.16 16.6L61.96 16.66H61.9L61.98 16.8L61.9 16.78L61.86 16.72L61.88 16.64L62.02 16.56H62.06L62.1 16.48L62.16 16.34V16.04L62.14 15.88L62.12 15.86V15.76L62.26 15.62Z" fill="#798492"/>
<path d="M64.86 28.9H66.24L66.54 28.92V28.94L66.34 28.96H66.2L66.1 28.94H64.72L64.74 30.36L64.7 30.3L64.66 29.48V28.96L64.68 28.92L64.86 28.9Z" fill="#FEFEFE"/>
<path d="M58.86 26.64L58.88 26.7L58.7 27.18L58.5 27.64L58.32 28.02L58.1 28.54L57.96 28.74L57.88 28.82L57.84 28.8L58 28.62L58.12 28.34L58.24 28.08L58.46 27.52L58.72 26.94L58.86 26.64Z" fill="#B1ACAE"/>
<path d="M58.42 19.08L58.68 19.1L58.86 19.16L59.06 19.22L59.14 19.26H59.22L59.16 19.18L59.26 19.22L59.42 19.34L59.44 19.42L59.3 19.36L59.22 19.32H59.1L59.02 19.26L58.96 19.24L58.94 19.34L58.82 19.3L58.64 19.28V19.24L58.54 19.22V19.28L58.44 19.24L58.36 19.16L58.46 19.2L58.42 19.08Z" fill="#938584"/>
<path d="M68 24.82H68.12V24.84L67.82 24.9L67.36 24.98L67.14 25L66.78 25.12L66.66 25.18L66.48 25.36L66.4 25.52V25.96L66.46 26.3L66.5 26.52V26.68L66.46 26.6L66.4 26.28L66.34 25.86V25.54L66.46 25.3L66.62 25.14L66.8 25.04L67.08 24.96L67.78 24.86L68 24.82Z" fill="#768899"/>
<path d="M64.84 25.94H64.86V26.14L64.74 27.18L64.6 28.42L64.5 29.04H64.48V28.84L64.7 27.08L64.78 26.42L64.84 25.94Z" fill="#FEFEFE"/>
<path d="M57.2 25.7L57.22 25.76L57.18 25.88L57.64 25.96L57.96 26.08L58.46 26.3L58.8 26.46L58.74 26.48L58.06 26.18L57.6 26L57.54 26.08L57.36 26.06L57.12 25.94L57.16 25.74H57.2V25.7Z" fill="#FCFCFC"/>
<path d="M63.44 6.68L63.66 6.7L63.78 6.76L63.82 6.84L63.7 6.76L63.52 6.74L63.18 6.76L62.9 6.82L62.52 6.94L62.2 7.06L61.86 7.24L61.68 7.34L61.64 7.38L61.58 7.36L61.88 7.16L62.34 6.92L62.86 6.76L63.18 6.7L63.44 6.68Z" fill="#BBB6B8"/>
<path d="M55.96 20.7H56.14L56.24 20.74L56.22 20.9L56.16 21.1V21.46L56.2 21.62V21.74L56.14 21.76L56.1 21.74V21.7H56.04V21.78L55.96 21.8L55.88 21.76L55.84 21.56H55.8V21.74L55.76 21.76L55.7 21.7L55.78 21.72L55.76 21.4L55.82 21.34L55.9 21.66L55.96 21.74L55.94 21.48H56L56.06 21.6V21.64H56.1L56.18 21.72L56.12 21.5V21.08L56.18 20.86V20.76H55.88L55.76 20.78L55.78 20.74L55.96 20.7Z" fill="#8C8588"/>
<path d="M68.36 18.52H68.4L68.48 18.76L68.66 19L68.58 18.96H68.52L68.46 18.98V19.08L68.6 19.24V19.28H68.64V19.34L68.54 19.32L68.5 19.3L68.48 19.38L68.38 19.26L68.32 19.12H68.36L68.46 19.22L68.54 19.26L68.36 19.02L68.3 18.82L68.34 18.78L68.36 18.52Z" fill="#918382"/>
<path d="M62.36 24.88L62.76 24.92L63.56 25.02L63.86 25.06L64.26 25.12L64.48 25.2L64.64 25.32L64.72 25.42L64.7 25.48L64.62 25.38V25.34L64.54 25.3L64.32 25.2L64.18 25.16L63.82 25.12L63.56 25.08L62.72 24.98L62.42 24.94V24.9L62.36 24.88Z" fill="#8E8587"/>
<path d="M57.9 19.3L57.98 19.36V19.42L57.56 19.5L57.18 19.6L56.94 19.7L56.66 19.86L56.4 20.04L56.36 20.02L56.46 19.94L56.56 19.84L56.94 19.62L57.26 19.5L57.7 19.38L57.9 19.34V19.3Z" fill="#C5C0C1"/>
<path d="M58.54 27.98H58.72L59 28.02L59.2 28.04V28.06L58.92 28.08L58.56 28.02L58.52 28.2L58.3 29L58.22 29.36H58.18L58.2 29.16L58.44 28.18L58.54 27.98Z" fill="#FBFBFB"/>
<path d="M66.38 6.68H66.64L67.06 6.74L67.48 6.86L67.8 7L68.16 7.2L68.3 7.3H68.24L67.84 7.08L67.6 6.96L67.26 6.86L66.82 6.76L66.64 6.74H66.38L66.26 6.8H66.22V6.84H66.18L66.22 6.76L66.3 6.7L66.38 6.68Z" fill="#BCB7B8"/>
<path d="M70.12 12.78L70.2 12.88L70.3 13.02V13.06L70.38 13.1L70.48 13.22L70.64 13.34V13.38L70.74 13.42L70.94 13.56L71.18 13.66V13.7L70.98 13.66L70.76 13.54L70.54 13.38L70.24 13.08L70.1 12.9L70.08 12.84H70.12V12.78Z" fill="#928382"/>
<path d="M63.6 22H63.92L63.98 22.1V22.24L63.92 22.32H63.82L63.62 22.12L63.6 22Z" fill="#EDECEC"/>
<path d="M66.08 22H66.38L66.4 22.06L66.22 22.28L66.18 22.32H66.08L66.02 22.22V22.08L66.04 22.02L66.08 22Z" fill="#EAE9E9"/>
<path d="M64.14 20L64.24 20.02L64.38 20.18V20.3L64.32 20.38L64.26 20.8L64.24 20.82L64.08 20.8V20.78H64.24L64.26 20.34L64.18 20.2L64.1 20.16L63.98 20.18H63.82V20.16L64.02 20.12L64.1 20.1L64.12 20.02L64.14 20Z" fill="#7F8792"/>
<path d="M55.7 12.18L55.74 12.2L55.44 12.48L55.22 12.7L55.12 12.84L55.06 12.94L54.94 13.18L54.84 13.5L54.8 13.88L54.82 14.38L54.78 14.36L54.76 14.24V13.72L54.84 13.3L54.94 13.06L55.06 12.84L55.22 12.64L55.4 12.44L55.62 12.24L55.7 12.18Z" fill="#AEA4A4"/>
<path d="M75.36 26.82L75.46 26.84L75.54 26.92L75.82 27.52L76.04 28.02V28.12L76 28.1L75.96 27.94L75.92 27.92L75.76 27.56L75.6 27.24L75.42 26.86H75.32L75.36 26.82Z" fill="#FEFEFE"/>
<path d="M63.18 22.66L63.32 22.78L63.44 22.92L63.54 23.02L63.68 23.24L63.76 23.32L64.02 23.42L64.16 23.44H64.36L64.7 23.34L65.2 23.32L65.22 23.36L64.66 23.4L64.36 23.5H64.12L63.86 23.42L63.7 23.32L63.56 23.16L63.46 23L63.3 22.82L63.2 22.72L63.18 22.66Z" fill="#8E8587"/>
<path d="M70.5 27.58H70.54L70.62 27.98L70.78 28.96L70.8 29.28L70.78 29.4H70.76V29.22L70.72 28.96L70.68 28.76L70.64 28.46L70.58 28.18L70.5 27.66V27.58Z" fill="#A89F9F"/>
<path d="M58.78 11.92V11.98L58.68 12.1L58.4 12.3L58.2 12.38L58.08 12.4H57.68L57.5 12.32L57.34 12.18L57.2 12.02H57.26L57.5 12.26L57.7 12.34H58.02L58.34 12.26L58.56 12.12L58.78 11.92Z" fill="#AFAAAB"/>
<path d="M61.52 7.4H61.56V7.44L61.36 7.6L61.2 7.74L61.1 7.86H61.04L61 7.96L60.86 8.1L60.54 8.54L60.46 8.68L60.42 8.78L60.3 8.98L60.26 9.02L60.28 8.92L60.48 8.54L60.72 8.2L60.94 7.94L61.04 7.82H61.08L61.12 7.74L61.28 7.6L61.52 7.4Z" fill="#9E9393"/>
<path d="M67.32 21.12L67.44 21.14V21.2L67.26 21.22H64.88V21.2L65.24 21.18L67.36 21.16L67.32 21.12Z" fill="#8B8589"/>
<path d="M59.2 28.06L59.38 28.08L60.02 28.26L60.4 28.36L60.42 28.44L60.18 28.38L59.64 28.24L59.34 28.16L59.32 28.1L59.2 28.08V28.06Z" fill="#A7A1A3"/>
<path d="M72.96 27.88L73.04 27.92L73.14 28.12L73.46 29.06L73.5 29.2L73.4 29.1L73.36 28.96L73.3 28.82L73.2 28.5L73.06 28.08L73 27.94L72.84 27.96L72.78 27.92L72.96 27.88Z" fill="#A89E9E"/>
<path d="M62.7 14.82H62.88L63 14.92L63.34 15.14L63.3 15.16L63.22 15.12H63L62.96 15.18L62.92 15.04L62.84 15L62.68 14.86L62.7 14.82Z" fill="#808691"/>
<path d="M65.66 8.46L65.68 8.5L65.56 8.68L65.48 8.78L65.3 8.88H64.76L64.6 8.82L64.38 8.62L64.4 8.58L64.54 8.7L64.7 8.78L64.92 8.82H65.18L65.4 8.74L65.56 8.6L65.66 8.46Z" fill="#B3AFB2"/>
<path d="M72.38 20.46L72.56 20.5L72.9 20.64L73.3 20.86L73.56 21.04L73.76 21.2L73.92 21.38H73.86L73.6 21.14L73.26 20.9L72.84 20.68L72.72 20.64L72.7 20.6L72.38 20.48V20.46Z" fill="#B8B4B7"/>
<path d="M66.64 14.72L66.94 14.74L67 14.78L66.98 14.8H66.24L65.7 14.84L65.26 14.9L65.22 14.86L65.74 14.78L66.14 14.74L66.64 14.72Z" fill="#8D8588"/>
<path d="M56.58 11.84H56.88L57.06 11.88L57.2 11.98L57.16 12L56.98 11.92L56.54 11.9L56.22 11.98L55.98 12.06L55.78 12.18L55.74 12.16L55.94 12.02L56.18 11.92L56.42 11.86L56.58 11.84Z" fill="#BAB4B4"/>
<path d="M56.48 22H58.24V22.02L57.96 22.04L56.42 22.06L56.48 22Z" fill="#B4ADAE"/>
<path d="M71.12 11.84L71.24 11.94V11.98L71.32 12.02L71.5 12.18L71.76 12.3L71.84 12.32L72.24 12.34H72.4V12.38L72.28 12.4H72L71.68 12.34L71.56 12.28V12.24L71.46 12.22L71.22 12L71.12 11.88V11.84Z" fill="#AFA6A6"/>
<path d="M65.48 11.38L65.52 11.4L65.48 11.44L65.46 11.6L65.32 11.66L65.3 11.7L65.48 11.64L65.8 11.68L65.86 11.7L65.82 11.72L65.64 11.7H65.46L65.28 11.76V11.72L65.1 11.76L65.04 11.8H64.92L64.8 11.74L64.58 11.62L64.52 11.54V11.42L64.56 11.46L64.6 11.58L64.92 11.74H65.06L65.36 11.6L65.42 11.56L65.44 11.42L65.48 11.38Z" fill="#938584"/>
<path d="M59.6 24.34L59.62 24.42L59.36 25.02L59.18 25.46L59.1 25.58L59.02 25.56H59.06V25.52H59.1L59.14 25.4L59.24 25.12H59.28L59.3 25L59.44 24.7L59.52 24.5L59.6 24.34Z" fill="#B4ACAC"/>
<path d="M74.96 15.24H74.98V15.36L74.78 15.82L74.54 16.32L74.34 16.68L74.32 16.62L74.54 16.22L74.7 15.9L74.76 15.7L74.84 15.52L74.9 15.34L74.96 15.24Z" fill="#A9A6A9"/>
<path d="M58.72 23.84L58.84 23.86L59.36 24.08L59.64 24.22L59.66 24.3L59.62 24.34L59.6 24.26L59.28 24.14L59.04 24.02L58.72 23.88V23.84Z" fill="#B8B3B4"/>
<path d="M72.44 26.2H72.48V26.24H72.52L72.82 27.16L72.86 27.32V27.44H72.84L72.76 27.18L72.48 26.32L72.44 26.2Z" fill="#C1BCBC"/>
<path d="M56.44 19.92L56.48 19.94L56.38 20.02L56.28 20.12L56.04 20.3L55.72 20.38L55.52 20.42L55.58 20.36L55.8 20.28L56 20.22L56.28 20.04L56.44 19.92Z" fill="#CCC6C6"/>
<path d="M71.32 28.2L71.4 28.22L71.22 28.28L71.24 28.44L71.58 29.46L71.56 29.52L71.3 28.82L71.16 28.34V28.24L71.32 28.2Z" fill="#FEFEFE"/>
<path d="M68.02 22H69.86V22.02L68.08 22.04L68.02 22.06L67.94 22.22L67.88 22.26L67.9 22.16L68.02 22Z" fill="#9A9193"/>
<path d="M64.72 25.42L64.78 25.48L64.86 25.68V25.94L64.8 26.42L64.76 26.36V26.16L64.8 25.78L64.74 25.56L64.72 25.54V25.42Z" fill="#AAA2A2"/>
<path d="M57.78 26.06L57.9 26.1L58.48 26.34L58.74 26.46L58.86 26.5L58.9 26.52V26.62L58.88 26.56L58.78 26.54L58.18 26.28L57.78 26.1V26.06Z" fill="#8D8588"/>
<path d="M70.06 25.14L70.1 25.16L70.22 25.58L70.28 25.94L70.38 26.44V26.6H70.36L70.28 26.12V26.04L70.22 26.02L70.16 25.64L70.08 25.24L70.06 25.14Z" fill="#BFBABC"/>
<path d="M67.34 19.8H67.38L67.36 19.94L67.32 20.02V19.9L67.24 20.04L67.14 20.28H67.08L67.06 20.12L66.98 20.16L67.02 20.08L67.2 19.96L67.34 19.8Z" fill="#7D8691"/>
<path d="M64.46 28.86H64.48V29.18L64.38 29.84L64.3 30.02L64.28 29.96L64.32 29.84L64.36 29.6L64.44 28.88L64.46 28.86Z" fill="#A7A0A2"/>
<path d="M64.6 27.66H64.64L64.58 28.16L64.5 28.84L64.46 28.86V28.66L64.58 27.68L64.6 27.66Z" fill="#8C8588"/>
<path d="M66.6 29.04H66.62L66.66 29.8V30.36H66.64L66.6 30.14V29.04Z" fill="#9B9293"/>
<path d="M59.84 22.2L59.86 22.28V22.46L59.92 22.64L60.04 22.82L60.22 23.04V23.08H60.26L60.28 23.14L60.18 23.16V23.1L59.94 22.78L59.82 22.58L59.8 22.52V22.28L59.84 22.2Z" fill="#8C8589"/>
<path d="M66.08 7.02H66.1V7.22L66.04 7.54L65.88 8.1L65.74 8.42L65.72 8.46H65.68L65.72 8.34L65.82 8.12L65.96 7.66L66.08 7.02Z" fill="#A69E9F"/>
<path d="M61.82 19.4H61.84L61.86 19.94H61.9L61.88 19.78L61.92 19.48H61.94V20L61.96 20.16L61.94 20.2L61.86 20.16L61.82 20.04V19.4Z" fill="#8E8587"/>
<path d="M70.22 25.5H70.26L70.52 26.26L70.68 26.76L70.66 26.82L70.42 26.14L70.22 25.54V25.5Z" fill="#FEFEFE"/>
<path d="M74.34 12.24L74.5 12.36L74.84 12.7L74.98 12.9L75.12 13.18L75.1 13.24V13.2H75.06L74.9 12.88L74.76 12.7L74.48 12.4L74.34 12.28V12.24Z" fill="#C6BFBF"/>
<path d="M64.96 11.88L65.12 11.92L65.3 12L65.5 12.08V12.12L65.56 12.14L65.58 12.22H65.54L65.46 12.12L65.16 11.98L65.06 11.94H64.92L64.52 12.14L64.48 12.18L64.44 12.26V12.16L64.52 12.08L64.72 11.98L64.64 11.94L64.76 11.9V11.94L64.96 11.88Z" fill="#938584"/>
<path d="M58.38 27.78L58.42 27.8L58.16 28.4L58.04 28.64L57.88 28.82L57.84 28.8L58 28.62L58.12 28.34L58.24 28.08L58.34 27.82L58.38 27.78Z" fill="#B8B0B1"/>
<path d="M63.36 15.6L63.44 15.64L63.58 15.76L63.62 15.78V15.88L63.68 15.96L63.6 15.92L63.3 15.72L63.2 15.62H63.3L63.4 15.68L63.36 15.6Z" fill="#8F8586"/>
<path d="M60.7 28.16H60.72L60.7 28.44L60.62 29.1V29.52L60.66 29.7L60.62 29.72L60.58 29.58L60.56 29.3L60.6 28.88L60.68 28.22L60.7 28.16Z" fill="#7A8C9C"/>
<path d="M57.66 25.98L57.74 26L58.24 26.2L58.76 26.44L58.8 26.48L58.68 26.46L58.38 26.32L58 26.16L57.66 26.02V25.98Z" fill="#FEFEFE"/>
<path d="M63.7 25.04L63.86 25.06L64.26 25.12L64.48 25.2L64.64 25.32L64.72 25.42L64.7 25.48L64.62 25.38V25.34L64.54 25.3L64.32 25.2L64.18 25.16L63.82 25.12L63.74 25.1V25.06L63.7 25.04Z" fill="#8F8586"/>
<path d="M67.42 22.62L67.46 22.64L67.16 22.92L66.92 23.14L66.9 23.18H66.86L66.82 23.26L66.7 23.44L66.66 23.46L66.7 23.36L66.78 23.22L66.96 23.02L67.24 22.78L67.42 22.62Z" fill="#A8A1A3"/>
<path d="M70.76 27.06L70.8 27.12L70.98 27.66L71.02 27.76L71.2 27.74L71.3 27.7H71.4L71.42 27.74L71.06 27.84L70.98 27.8L70.88 27.52L70.76 27.14V27.06Z" fill="#FEFEFE"/>
<path d="M73.46 22.92H73.58L73.66 23L73.8 23.28L73.86 23.46L74 23.76L73.98 23.82L73.82 23.48L73.68 23.2L73.58 22.98L73.44 22.96L73.46 22.92Z" fill="#9A9395"/>
<path d="M69.44 11.7L69.52 11.8L69.72 12.18L69.78 12.3L69.76 12.34L69.68 12.32L69.5 11.92L69.44 11.76V11.7Z" fill="#CFC680"/>
<path d="M60.24 9.02L60.26 9.08L60.14 9.38L60.04 9.64L59.96 9.82L59.88 10.04L59.78 10.22L59.76 10.16L60 9.6L60.22 9.06L60.24 9.02Z" fill="#A49B9C"/>
<path d="M69.8 24.8L69.94 24.92L70.06 25.02H70.1L70.24 25.44L70.22 25.5L70.18 25.56L70.1 25.22L70.08 25.16L70 25.08L69.88 24.92L69.76 24.84L69.8 24.8Z" fill="#E7E6E7"/>
<path d="M74.92 25.74L74.98 25.82L75.08 26.02V26.06L75.14 26.08L75.26 26.36L75.24 26.44L75.12 26.46L75.16 26.34L75.06 26.1L74.92 25.8V25.74Z" fill="#C2BDBE"/>
<path d="M74.68 25.22H74.72L75.1 26L75.08 26.06L74.94 25.78V25.74H74.9L74.68 25.3V25.22Z" fill="#DDDADA"/>
<path d="M70.66 28.36L70.7 28.44L70.8 29.14L70.78 29.4H70.76V29.22L70.72 28.96L70.68 28.76L70.64 28.4L70.66 28.36Z" fill="#A19B9D"/>
<path d="M60.74 18.08V18.14L60.68 18.22L60.76 18.18L60.86 18.12H60.9L60.86 18.2L60.72 18.4L60.7 18.36L60.72 18.3L60.62 18.36H60.56L60.6 18.24L60.74 18.08Z" fill="#938584"/>
<path d="M72.96 27.88L73.04 27.92L73.14 28.12L73.26 28.46V28.52L73.2 28.5L73.06 28.08L73 27.94L72.84 27.96L72.78 27.92L72.96 27.88Z" fill="#B0A8A8"/>
<path d="M59.2 28.06L59.38 28.08L60.02 28.26L59.94 28.28L59.7 28.22H59.54L59.34 28.16L59.32 28.1L59.2 28.08V28.06Z" fill="#D0CCCD"/>
<path d="M73.8 23.32L73.86 23.4L74.12 23.94L74.24 24.2L74.22 24.24L74.16 24.14L74.12 24.12L74.04 23.94L73.94 23.68L73.8 23.38V23.32Z" fill="#EAE8E8"/>
<path d="M57.2 12L57.28 12.04L57.5 12.26L57.7 12.34H58.14L58.06 12.38H57.62L57.46 12.3L57.22 12.06L57.2 12Z" fill="#D0CDCE"/>
<path d="M75.72 28.24L75.78 28.26L75.4 28.44L75.08 28.6L74.84 28.7L74.8 28.68L75.12 28.52L75.6 28.3L75.72 28.24Z" fill="#BCB5B6"/>
<path d="M75.18 14.48L75.2 14.56L75.06 15.12L75 15.3L74.96 15.24L75 15.06L75.06 14.9L75.14 14.56L75.18 14.48Z" fill="#B2ADAF"/>
<path d="M72.38 20.46L72.56 20.5L72.9 20.64L73.2 20.8V20.82L73.06 20.8L72.78 20.66L72.72 20.64L72.7 20.6L72.38 20.48V20.46Z" fill="#DCD9DA"/>
<path d="M73.86 13.94L73.96 14.04L74.02 14.14L74.06 14.34V14.54L74.02 14.52L73.94 14.18L73.86 13.98V13.94Z" fill="#2D0606"/>
<path d="M59.86 22.22H59.88L59.92 22.54L60 22.72L60.24 23.02L60.22 23.08L60.02 22.82L59.9 22.64L59.84 22.46V22.28L59.86 22.22Z" fill="#FEFEFE"/>
<path d="M56.32 13.36L56.34 13.42L56.2 13.58L56.08 13.82L56.04 13.94L55.98 13.9L56.04 13.72L56.18 13.5L56.32 13.36Z" fill="#938584"/>
<path d="M73.72 27.46L73.78 27.54L73.92 27.86L73.98 28.04L74.1 28.28L74.08 28.34L73.86 27.9L73.78 27.64L73.72 27.52V27.46Z" fill="#B6C0C8"/>
<path d="M63.88 7L63.92 7.08L64.04 7.7L64.02 7.76V7.72H63.98L63.96 7.58L63.92 7.4L63.88 7.34V7Z" fill="#A49A9A"/>
<path d="M61.18 25.12L61.2 25.16L61.1 25.36L61.06 25.46L60.98 26.16L60.94 26.24L60.96 25.92L61.02 25.44L61.12 25.18L61.18 25.12Z" fill="#768899"/>
<path d="M60.66 8.28H60.7L60.66 8.38L60.54 8.54L60.46 8.68L60.42 8.78L60.3 8.98L60.26 9.02L60.28 8.92L60.48 8.54L60.66 8.28Z" fill="#A59A99"/>
<path d="M60.3 28.8H60.32L60.3 28.98L60.12 29.64L60.08 29.7L60.1 29.5L60.2 29.14L60.3 28.8Z" fill="#A79E9E"/>
<path d="M58.16 23.58L58.26 23.6L58.76 23.82L58.68 23.86L58.3 23.7L58.2 23.62L58.16 23.58Z" fill="#C1BCBD"/>
<path d="M56.46 23.18H56.92L57.24 23.22V23.24L56.94 23.26L56.82 23.22H56.54L56.32 23.3L56.28 23.28L56.46 23.18Z" fill="#FEFEFE"/>
<path d="M57.9 19.3L57.98 19.36V19.42L57.56 19.5L57.48 19.48L57.62 19.4L57.86 19.36L57.9 19.34V19.3Z" fill="#A09C9F"/>
<path d="M62.26 6.96L62.3 6.98L62.24 7V7.04L61.86 7.24L61.68 7.34L61.64 7.38L61.58 7.36L61.88 7.16L62.26 6.96Z" fill="#C3BEBF"/>
<path d="M64.8 23.76H65.22L65.48 23.82V23.84H65.32L65.06 23.8H64.84L64.6 23.84H64.48V23.82L64.8 23.76Z" fill="#9C9090"/>
<path d="M55.08 20.86L55.1 20.94L55.08 21.02V21.3L55.16 21.62L55.24 21.76L55.22 21.8L55.1 21.6L55.04 21.42L55.02 21.18L55.06 20.92L55.08 20.86Z" fill="#CCC8C9"/>
<path d="M75.36 26.82L75.46 26.84L75.56 27.02L75.64 27.22L75.78 27.52L75.76 27.56L75.6 27.24L75.42 26.86H75.32L75.36 26.82Z" fill="#8E8587"/>
<path d="M66.5 26.68H66.52L66.58 27.02L66.64 27.42V27.6H66.62L66.54 27.08L66.52 27.04L66.5 26.86V26.68Z" fill="#768899"/>
<path d="M59.6 24.34L59.62 24.42L59.38 24.98L59.32 24.96L59.44 24.7L59.52 24.5L59.6 24.34Z" fill="#A79F9F"/>
<path d="M55.58 21.18L55.62 21.2L55.64 21.56L55.66 21.66L55.62 21.64L55.58 21.5L55.5 21.46L55.48 21.38L55.56 21.42V21.2L55.58 21.18Z" fill="#908585"/>
<path d="M73.96 14.26L74 14.32L74.04 14.52L74.06 14.36H74.08L74.1 14.58L74.08 14.72H74.06L74.04 14.62L74.02 14.56H73.98L73.9 14.38L73.92 14.34L73.94 14.36L73.96 14.26Z" fill="#918382"/>
<path d="M62.84 19.86L62.94 19.96L62.96 20.06L62.9 20V20.06L62.92 20.18L62.86 20.22H62.5V20.2L62.8 20.18L62.86 20.16L62.82 19.96L62.84 19.86Z" fill="#8E8587"/>
<path d="M62.08 19.74L62.12 19.78L62.16 19.84L62.2 20.18H62.12L62.1 20.1L62.08 19.74Z" fill="#938584"/>
<path d="M73.7 11.9L73.82 11.92L74.02 12L74.26 12.16L74.34 12.24L74.26 12.22L74 12.06L73.7 11.92V11.9Z" fill="#D3D0D1"/>
<path d="M74.18 28.5H74.24V28.54L74.36 28.58L74.5 28.54H74.62L74.58 28.62H74.54V28.58L74.4 28.64L74.32 28.68L74.2 28.58L74.18 28.5Z" fill="#BFC7CF"/>
<path d="M64.24 17.18L64.28 17.2L64.1 17.4L63.98 17.48H63.88L63.9 17.44H63.94V17.4L64.18 17.24L64.24 17.18Z" fill="#9A9396"/>
<path d="M68.52 7.48L68.6 7.52L68.9 7.78L69.16 8.06L69.14 8.1L69 7.96L68.86 7.8L68.66 7.62L68.52 7.5V7.48Z" fill="#AFA9AA"/>
<path d="M63.44 6.68L63.66 6.7L63.78 6.76L63.82 6.84L63.7 6.76L63.52 6.74L63.12 6.76L63.18 6.7L63.44 6.68Z" fill="#ADA3A2"/>
<path d="M71.12 11.84L71.24 11.94V11.98L71.32 12.02L71.5 12.18L71.66 12.26L71.6 12.28L71.46 12.22L71.22 12L71.12 11.88V11.84Z" fill="#C9C6C7"/>
<path d="M65.66 8.46L65.68 8.5L65.56 8.68L65.48 8.78L65.22 8.86H65.18V8.82L65.4 8.74L65.56 8.6L65.66 8.46Z" fill="#ECEAEA"/>
<path d="M71.04 20L71.08 20.02L71 20.1L71.56 20.18V20.2H71.4L70.98 20.16L70.9 20.12L70.98 20.04L71.04 20Z" fill="#EEEEEF"/>
<path d="M63.14 14.78L63.22 14.8L63.4 14.94L63.48 15L63.54 15.04H63.44L63.42 15.08L63.28 14.92L63.14 14.82V14.78Z" fill="#83868F"/>
<path d="M57.42 25.14H57.46L57.42 25.26L57.24 25.7H57.2L57.18 25.74L57.2 25.64L57.42 25.14Z" fill="#B7B1B2"/>
<path d="M69.58 20H69.74L69.62 20.14L69.56 20.2L69.48 20.18L69.56 20.06L69.48 20.04L69.58 20Z" fill="#938584"/>
<path d="M68.26 17.8H68.28V18.06L68.36 18.02L68.3 18.2L68.28 18.24L68.2 18.22L68.24 18.04L68.26 17.8Z" fill="#938584"/>
<path d="M70.24 26.04H70.28L70.38 26.6L70.34 26.62L70.3 26.5L70.24 26.04Z" fill="#8D8588"/>
<path d="M63.26 22.06L63.4 22.18L63.46 22.26L63.36 22.22L63.32 22.34H63.24V22.48H63.22L63.18 22.3H63.3L63.28 22.16L63.26 22.06Z" fill="#938584"/>
<path d="M58.42 26.34L58.5 26.36L58.74 26.46L58.86 26.5L58.9 26.52V26.62L58.88 26.56L58.78 26.54L58.42 26.38V26.34Z" fill="#979092"/>
<path d="M58.86 26.64L58.88 26.7L58.74 27.08H58.7V27.12H58.66L58.72 26.94L58.86 26.64Z" fill="#A59D9E"/>
<path d="M58.24 22.02L58.32 22.04L58.36 22.34L58.46 22.54L58.44 22.58L58.34 22.4L58.26 22.16L58.24 22.02Z" fill="#C3BCBB"/>
<path d="M62.72 22.78L62.8 22.82L63.22 23.24L63.24 23.32L62.72 22.8V22.78Z" fill="#B1A9A9"/>
<path d="M69.16 17.9L69.26 17.92L69.32 17.98L69.2 17.96V18.24L69.14 18.18L69.12 18.14L69.14 17.94L69.16 17.9Z" fill="#938584"/>
<path d="M60.64 29.72L60.7 29.74L60.84 29.9L61.04 30.02L61.02 30.06L60.82 29.96L60.68 29.82L60.64 29.72Z" fill="#9DAAB6"/>
<path d="M55.7 12.18L55.74 12.2L55.44 12.48L55.3 12.6L55.32 12.52L55.46 12.38L55.68 12.2L55.7 12.18Z" fill="#B1A7A7"/>
<path d="M66.08 7.02H66.1V7.22L66.04 7.54L66.02 7.6L65.98 7.58L66.08 7.02Z" fill="#AFA8A8"/>
<path d="M75.78 27.56L75.84 27.64L75.9 27.76L75.94 27.78L76.04 28.02V28.12L76 28.1L75.96 27.94L75.92 27.92L75.78 27.62V27.56Z" fill="#C4BEBE"/>
<path d="M66.6 23.5V23.56L66.44 23.68L66.18 23.8L66.02 23.82L66.08 23.78L66.34 23.68L66.5 23.58L66.6 23.5Z" fill="#9F989A"/>
<path d="M59.36 11.02L59.38 11.06L59.24 11.34L59.08 11.6L59.04 11.58L59.28 11.16L59.36 11.02Z" fill="#A39A9B"/>
<path d="M66.38 6.68H66.64V6.72L66.38 6.74L66.26 6.8H66.22V6.84H66.18L66.22 6.76L66.3 6.7L66.38 6.68Z" fill="#C3BCBC"/>
<path d="M60 22.84L60.08 22.86L60.22 23.04V23.08H60.26L60.28 23.14L60.18 23.16V23.1L60 22.86V22.84Z" fill="#948C8F"/>
<path d="M59.16 19.18L59.26 19.22L59.42 19.34L59.44 19.42L59.3 19.36L59.22 19.28L59.16 19.18Z" fill="#9B8E79"/>
<path d="M58.72 23.84L58.84 23.86L59.08 23.96L59.04 24L58.94 23.98L58.72 23.88V23.84Z" fill="#B7B0B0"/>
<path d="M74.88 12.78L74.96 12.86L75.12 13.18L75.1 13.24V13.2H75.06L74.9 12.88L74.88 12.78Z" fill="#C6C1C2"/>
<path d="M64.3 25.14L64.48 25.2L64.64 25.32L64.72 25.42L64.7 25.48L64.62 25.38V25.34L64.54 25.3L64.32 25.2L64.3 25.14Z" fill="#8B8589"/>
<path d="M73.58 21.08L73.66 21.12L73.82 21.26L73.92 21.4L73.84 21.36L73.6 21.14L73.58 21.08Z" fill="#C1BFC1"/>
<path d="M72.68 12.08L72.72 12.1L72.52 12.32L72.4 12.36L72.34 12.32L72.54 12.22L72.68 12.08Z" fill="#BAB4B5"/>
<path d="M67.06 29.86L67.12 29.88L67.16 29.98L67.24 30.02V30.06L67.32 30.08L67.4 30.14V30.18L67.3 30.14L67.1 29.96L67.06 29.86Z" fill="#A0ACB8"/>
<path d="M67.12 8.68H67.14V8.84L67.08 9.04L67.02 9.02L67.1 8.7L67.12 8.68Z" fill="#938584"/>
<path d="M72.7 26.96L72.76 26.98L72.86 27.32V27.44H72.84L72.76 27.18L72.7 26.96Z" fill="#A9A0A1"/>
<path d="M57.54 19.42L57.6 19.44L57.5 19.48L57.48 19.52L57.14 19.58V19.54L57.54 19.42Z" fill="#D9D4D4"/>
<path d="M59.94 9.74H59.98L59.92 9.92L59.84 10.1L59.78 10.22L59.76 10.16L59.94 9.74Z" fill="#A69D9E"/>
<path d="M61.32 17.62L61.38 17.64L61.4 17.9L61.32 17.84L61.3 17.92L61.32 17.62Z" fill="#86868C"/>
<path d="M65 20.64L65.06 20.66L64.96 20.72L64.94 20.96L64.92 20.98H64.76V20.96L64.9 20.94V20.68L65 20.64Z" fill="#908586"/>
<path d="M61.82 19.4H61.84L61.86 19.9L61.88 19.96L61.86 20.08L61.82 20.04V19.4Z" fill="#938584"/>
<path d="M64.46 28.86H64.48V29.18L64.42 29.24L64.44 28.88L64.46 28.86Z" fill="#A19A9B"/>
<path d="M63.68 14.88L63.9 15L63.96 15.06L63.86 15.04H63.78L63.68 14.92V14.88Z" fill="#938584"/>
<path d="M75.08 13.2L75.1 13.24H75.14L75.2 13.48V13.54H75.16L75.1 13.4L75.08 13.2Z" fill="#A89FA0"/>
<path d="M69.44 11.7L69.52 11.8L69.62 11.98L69.58 12.06L69.54 12L69.44 11.76V11.7Z" fill="#958786"/>
<path d="M64.28 11.32L64.48 11.36L64.5 11.4L64.36 11.38L64.16 11.42L64.06 11.5L64.1 11.42L64.18 11.36L64.28 11.32Z" fill="#908585"/>
<path d="M56.12 23.42L56.16 23.44L56.04 23.62L55.96 23.82H55.92L55.9 23.88L55.88 23.84L56.08 23.46L56.12 23.42Z" fill="#A2AEB9"/>
<path d="M73.74 13.78L73.82 13.82L73.96 13.98L73.94 14.04L73.88 13.96L73.84 13.98L73.74 13.82V13.78Z" fill="#938584"/>
<path d="M71.56 12.26L71.84 12.32L72 12.36V12.38H71.84L71.58 12.3L71.56 12.26Z" fill="#A09A9D"/>
<path d="M56.06 11.96L56.12 11.98H56.08V12.02L55.92 12.1L55.78 12.18L55.74 12.16L55.94 12.02L56.06 11.96Z" fill="#C2BEC0"/>
<path d="M61.52 7.4H61.56V7.44L61.36 7.6L61.26 7.7H61.22L61.26 7.62L61.52 7.4Z" fill="#B1A9A9"/>
<path d="M64.78 17.36L64.8 17.4L64.64 17.68L64.6 17.64L64.62 17.56L64.78 17.36Z" fill="#7D8793"/>
<path d="M59.92 12.98V13.04L59.84 13.18H59.78L59.64 13.3L59.68 13.22L59.82 13.06L59.92 12.98Z" fill="#B9AD56"/>
<path d="M56.32 11.88L56.42 11.9L56.36 11.94L56.14 12L56.08 11.98H56.12V11.94L56.32 11.88Z" fill="#ACA4A4"/>
<path d="M64.04 11.5H64.06V11.62L64.18 11.66L64.38 11.68V11.7L64.2 11.74L64.06 11.66L64.04 11.64V11.5Z" fill="#938584"/>
<path d="M59.74 10.22L59.76 10.3L59.56 10.7L59.54 10.64L59.74 10.22Z" fill="#A79D9E"/>
<path d="M66.88 23.14L66.9 23.18H66.86L66.82 23.26L66.7 23.44L66.66 23.46L66.7 23.36L66.78 23.22L66.88 23.14Z" fill="#B3AEB0"/>
<path d="M60.44 8.62H60.48L60.44 8.76L60.36 8.86L60.28 9.02L60.26 8.96L60.44 8.62Z" fill="#A39B9C"/>
<path d="M62.84 8.52H62.88L62.94 8.72L62.96 8.82L62.92 8.9L62.84 8.6V8.52Z" fill="#908180"/>
<path d="M57.5 25.04H57.6L57.84 25.16L57.94 25.2L57.88 25.22L57.62 25.12L57.5 25.06V25.04Z" fill="#FEFEFE"/>
<path d="M66.9 22.02H67.54L67.52 22.08L67.46 22.06L66.9 22.04V22.02Z" fill="#938584"/>
<path d="M63.06 6.72L63.14 6.74L62.98 6.8L62.8 6.84L62.78 6.78L63.06 6.72Z" fill="#C1B9B8"/>
<path d="M66.64 29.98H66.66V30.36H66.64L66.6 30.14V30.02L66.64 29.98Z" fill="#939094"/>
<path d="M64.76 26.36H64.78V26.62L64.76 26.76L64.7 26.68L64.76 26.36Z" fill="#908585"/>
<path d="M74.14 24.12L74.2 24.18L74.28 24.28L74.32 24.48L74.26 24.42L74.14 24.16V24.12Z" fill="#B5ADAD"/>
<path d="M68.08 22.02L68.36 22.04V22.08H68L68.02 22.04L68.08 22.02Z" fill="#FEFEFE"/>
<path d="M58.38 27.78L58.42 27.8L58.28 28.12H58.26L58.28 27.96L58.36 27.8L58.38 27.78Z" fill="#B9B2B1"/>
<path d="M73 11.86L73.06 11.88L73.02 11.92L72.86 11.98L72.74 12.08L72.7 12.06L72.86 11.92L73 11.86Z" fill="#A8A0A1"/>
<path d="M66.08 22H66.38L66.4 22.06L66.32 22.14L66.36 22.04H66.18L66.08 22.02V22Z" fill="#89858A"/>
<path d="M63.6 22H63.92V22.02L63.66 22.04L63.68 22.12V22.18L63.6 22.08V22Z" fill="#8E8587"/>
<path d="M62.52 22L62.66 22.02L62.68 22.06L62.54 22.04L62.6 22.14L62.64 22.2L62.56 22.16L62.48 22.08V22.02L62.52 22Z" fill="#938584"/>
<path d="M55.6 20.38L55.66 20.4L55.46 20.5L55.38 20.56L55.32 20.54L55.5 20.4L55.6 20.38Z" fill="#C3BEBE"/>
<path d="M71.94 20.34L72.12 20.36L72.38 20.44V20.46H72.2V20.42L72.02 20.38L71.94 20.34Z" fill="#F4F3F3"/>
<path d="M62.02 16.6L62.1 16.62L61.9 16.66L61.98 16.8L61.9 16.78L61.86 16.72L61.88 16.64L62.02 16.6Z" fill="#8A858A"/>
<path d="M65.62 11.32L65.78 11.34L65.94 11.46L65.92 11.52L65.82 11.42L65.76 11.38H65.58L65.56 11.34L65.62 11.32Z" fill="#938584"/>
<path d="M73.16 28.26L73.2 28.3L73.26 28.46V28.52L73.2 28.5L73.14 28.34L73.16 28.26Z" fill="#A29B9D"/>
<path d="M70.5 27.58H70.54L70.58 27.76V27.86L70.52 27.84L70.5 27.58Z" fill="#9F9799"/>
<path d="M65 17.18L65.1 17.28L65.22 17.42V17.48L65.16 17.46L65.02 17.24L65 17.18Z" fill="#818690"/>
<path d="M75.36 26.82L75.46 26.84L75.56 27.02L75.54 27.1L75.42 26.86H75.32L75.36 26.82Z" fill="#8C8588"/>
<path d="M72.6 26.68H72.64V26.72H72.68L72.74 26.96L72.68 26.94L72.6 26.68Z" fill="#B5AEAF"/>
<path d="M65.16 23.76L65.38 23.8L65.48 23.82V23.84H65.32L65.06 23.8V23.78L65.16 23.76Z" fill="#A79FA0"/>
<path d="M57.3 23.24L57.5 23.28L57.6 23.32V23.34H57.44L57.34 23.3V23.26L57.3 23.24Z" fill="#BBB6B7"/>
<path d="M67.3 17.36L67.38 17.38L67.08 17.52L67.06 17.48L67.22 17.38L67.3 17.36Z" fill="#938584"/>
<path d="M74.28 16.68L74.32 16.7L74.14 17.02L74.1 17.04L74.14 16.9L74.28 16.68Z" fill="#B0AFB3"/>
<path d="M54.96 28.14L55.08 28.16L55.22 28.22L55.3 28.26L55.28 28.3L54.96 28.16V28.14Z" fill="#99A6B3"/>
<path d="M58.24 28.08L58.26 28.16L58.16 28.38H58.12L58.18 28.2L58.24 28.08Z" fill="#ABA4A5"/>
<path d="M55.8 20.28H55.86V20.32L55.72 20.34V20.38L55.52 20.42L55.58 20.36L55.8 20.28Z" fill="#F3F2F2"/>
<path d="M75.2 14.22H75.22V14.44L75.18 14.54H75.16V14.38L75.18 14.24L75.2 14.22Z" fill="#9B999D"/>
<path d="M74.66 12.56L74.74 12.6L74.88 12.76L74.86 12.82L74.68 12.62L74.66 12.56Z" fill="#AEA8AA"/>
<path d="M58.78 11.92V11.98L58.68 12.1L58.54 12.18L58.58 12.1L58.78 11.92Z" fill="#BAB4B4"/>
<path d="M71.56 29.42L71.62 29.46L71.68 29.56L71.74 29.6L71.64 29.62L71.58 29.56L71.56 29.42Z" fill="#95A3B0"/>
<path d="M58.7 27.08L58.72 27.14L58.64 27.32L58.6 27.26L58.62 27.16L58.7 27.12V27.08Z" fill="#C0B9B9"/>
<path d="M55.38 24.98L55.42 25.06L55.34 25.24L55.28 25.26L55.34 25.08L55.38 24.98Z" fill="#B5BFC8"/>
<path d="M56.62 19.84L56.66 19.86L56.4 20.04L56.36 20.02L56.46 19.94L56.5 19.88L56.62 19.84Z" fill="#9D9597"/>
<path d="M64 17.36L64.08 17.38L63.98 17.48H63.88L63.9 17.44H63.94V17.4L64 17.36Z" fill="#CECED0"/>
<path d="M59.32 24.98H59.36L59.3 25.18L59.26 25.22L59.24 25.12H59.28L59.3 25L59.32 24.98Z" fill="#B3AAAA"/>
<path d="M63.7 25.04L63.86 25.06L63.98 25.08L63.96 25.12H63.82L63.74 25.1V25.06L63.7 25.04Z" fill="#8C8589"/>
<path d="M55.52 24.74L55.54 24.78L55.46 24.96L55.4 24.98L55.46 24.8L55.52 24.74Z" fill="#B2BCC6"/>
<path d="M57.94 23.52L58.06 23.54L58.16 23.56V23.6L58.26 23.64L58.22 23.66L57.94 23.54V23.52Z" fill="#988D8D"/>
<path d="M70.46 27.36L70.52 27.38L70.54 27.58H70.5L70.46 27.46V27.36Z" fill="#A69FA0"/>
<path d="M59.44 24.72L59.46 24.8L59.38 24.98L59.32 24.96L59.44 24.72Z" fill="#A09B9D"/>
<path d="M55.64 24.4L55.66 24.48L55.6 24.64L55.52 24.72L55.54 24.62L55.64 24.4Z" fill="#C3CBD2"/>
<path d="M71.58 20.26L71.78 20.28L71.86 20.32L71.72 20.34L71.62 20.32V20.28L71.58 20.26Z" fill="#C2BDBE"/>
<path d="M62.06 19.18L62.12 19.2V19.64H62.1L62.08 19.24L62.04 19.2L62.06 19.18Z" fill="#938584"/>
<path d="M58.46 27.58H58.48L58.46 27.72L58.42 27.78H58.38L58.4 27.68L58.46 27.58Z" fill="#A29B9D"/>
<path d="M72.44 26.2H72.48V26.24H72.52L72.56 26.36V26.44H72.52L72.44 26.2Z" fill="#B2ADAF"/>
<path d="M69.96 19.9L69.98 19.96L69.84 20.08V19.96L69.96 19.9Z" fill="#938584"/>
<path d="M61.2 7.68V7.74L61.1 7.86L61.02 7.84L61.08 7.82L61.12 7.74L61.2 7.68Z" fill="#A69B9A"/>
<path d="M62.34 6.92H62.48L62.46 6.96L62.3 7.02L62.24 7L62.34 6.92Z" fill="#A69B9A"/>
<path d="M66.64 6.7H66.84L66.94 6.74V6.76L66.64 6.74V6.7Z" fill="#A5A0A3"/>
<path d="M73.4 28.94L73.44 29L73.5 29.2L73.4 29.1V28.94Z" fill="#D2CFD0"/>
<path d="M70.18 25.56L70.22 25.58L70.24 25.82H70.2L70.16 25.6L70.18 25.56Z" fill="#B3AFB1"/>
<path d="M61.44 24.9L61.52 24.92L61.34 25.04L61.24 25.08L61.34 24.98L61.44 24.9Z" fill="#768899"/>
<path d="M69.58 20H69.64L69.6 20.08L69.56 20.12L69.48 20.1L69.58 20Z" fill="#DDD32B"/>
<path d="M74.8 15.66L74.84 15.7L74.72 15.94L74.7 15.9L74.76 15.7L74.8 15.66Z" fill="#9B989C"/>
<path d="M74.96 15.24H74.98V15.36L74.92 15.44L74.9 15.34L74.96 15.24Z" fill="#9A9395"/>
<path d="M65.66 8.46L65.68 8.5L65.56 8.68L65.5 8.72L65.52 8.64L65.66 8.46Z" fill="#ABA6A8"/>
<path d="M66.86 6.72L67.06 6.74L67.16 6.76L67.1 6.8L66.94 6.78V6.74L66.86 6.72Z" fill="#D4CFCF"/>
<path d="M110 54L119 47L128 54V65C128 65.5304 127.789 66.0391 127.414 66.4142C127.039 66.7893 126.53 67 126 67H112C111.47 67 110.961 66.7893 110.586 66.4142C110.211 66.0391 110 65.5304 110 65V54Z" stroke="white" stroke-width="2" stroke-linecap="round" stroke-linejoin="round"/>
<path d="M116 67V57H122V67" stroke="white" stroke-width="2" stroke-linecap="round" stroke-linejoin="round"/>
<defs>
<clipPath id="clip0_311_406">
<rect width="25" height="25" fill="white" transform="translate(193 4)"/>
</clipPath>
</defs>
</svg>
