<svg width="298" height="120" viewBox="0 0 298 120" fill="none" xmlns="http://www.w3.org/2000/svg">
<path d="M124.504 68.32C125.011 68.32 125.531 68.1067 126.064 67.68V62.52C126.064 60.8933 125.517 59.9733 124.424 59.76V58.88L128.464 56.6C129.024 56.84 129.571 57.24 130.104 57.8C130.637 58.3333 130.904 58.84 130.904 59.32V68.28C130.904 68.4933 129.437 69.1733 126.504 70.32C123.597 71.44 121.811 72 121.144 72C120.504 72 119.757 71.4267 118.904 70.28C118.077 69.1333 117.664 67.76 117.664 66.16V44.88C117.664 44.6933 119.184 44.04 122.224 42.92C125.291 41.7733 127.051 41.2 127.504 41.2C127.664 41.2 127.851 41.5867 128.064 42.36C128.277 43.1333 128.517 44.0667 128.784 45.16C129.077 46.2533 129.371 47.0667 129.664 47.6C129.984 48.1067 130.571 48.36 131.424 48.36V49.16C130.837 49.4267 129.837 49.9067 128.424 50.6C127.037 51.2667 126.291 51.6 126.184 51.6C125.784 51.6 125.277 50.52 124.664 48.36C124.051 46.1733 123.557 45.08 123.184 45.08C122.917 45.08 122.677 45.2133 122.464 45.48V65.36C122.464 67.3333 123.144 68.32 124.504 68.32ZM134.5 66.16V44.88C134.5 44.6933 136.02 44.04 139.06 42.92C142.1 41.7733 143.847 41.2 144.3 41.2C144.753 41.2 145.433 41.7467 146.34 42.84C147.273 43.9333 147.74 44.92 147.74 45.8V68.28C147.74 68.4933 146.273 69.1733 143.34 70.32C140.433 71.44 138.647 72 137.98 72C137.34 72 136.593 71.4267 135.74 70.28C134.913 69.1333 134.5 67.76 134.5 66.16ZM141.34 68.32C141.847 68.32 142.367 68.1067 142.9 67.68V47.88C142.9 45.9067 142.22 44.92 140.86 44.92C140.327 44.92 139.807 45.12 139.3 45.52V65.36C139.3 67.3333 139.98 68.32 141.34 68.32ZM151.727 65.96V48.6C151.727 47.6133 151.62 46.9067 151.407 46.48C151.193 46.0533 150.753 45.84 150.087 45.84V44.6L158.287 41.16L158.927 42.44C158.34 42.44 157.78 42.7867 157.247 43.48C156.767 44.1467 156.527 45.16 156.527 46.52V62.88C156.527 65.0133 156.713 66.2933 157.087 66.72C157.727 67.52 158.353 68 158.967 68.16C160.38 68.48 161.94 68.64 163.647 68.64V69.76C160.1 71.2533 158.073 72 157.567 72C157.087 72 156.42 71.7867 155.567 71.36C154.713 70.9067 153.86 70.1867 153.007 69.2C152.153 68.2133 151.727 67.1333 151.727 65.96ZM179.693 45.8V68.28C179.693 68.4933 178.226 69.1733 175.293 70.32C172.386 71.44 170.6 72 169.933 72C169.293 72 168.546 71.4267 167.693 70.28C166.866 69.1333 166.453 67.76 166.453 66.16V46.96C166.453 45.52 165.906 44.68 164.813 44.44V43.56L168.853 41.28C169.44 41.52 169.986 41.92 170.493 42.48C171 43.0133 171.253 43.52 171.253 44L176.213 41.2C176.693 41.2 177.386 41.7467 178.293 42.84C179.226 43.9333 179.693 44.92 179.693 45.8ZM173.293 68.32C173.8 68.32 174.32 68.1067 174.853 67.68V48.8C174.853 46.9067 174.173 45.96 172.813 45.96C172.28 45.96 171.76 46.16 171.253 46.56V65.36C171.253 67.3333 171.933 68.32 173.293 68.32ZM186.12 59.24C185.453 59.24 184.88 58.7333 184.4 57.72C183.92 56.7067 183.68 55.4667 183.68 54V45.68C183.68 45.1733 185.08 44.3067 187.88 43.08C190.68 41.8267 192.293 41.2 192.72 41.2C193.04 41.2 193.493 41.7333 194.08 42.8C194.213 43.0667 194.4 43.4267 194.64 43.88C194.906 44.3333 195.12 44.7067 195.28 45C195.626 45.64 196.066 45.96 196.6 45.96V46.76C196.173 46.9467 195.6 47.2267 194.88 47.6C193.2 48.5333 192.293 49 192.16 49C191.76 49 191.253 48.2133 190.64 46.64C190.053 45.0667 189.573 44.28 189.2 44.28C188.72 44.28 188.48 44.68 188.48 45.48V54.4C188.48 55.4667 188.72 56 189.2 56C189.306 56 190.133 55.6533 191.68 54.96C193.226 54.2667 194.16 53.92 194.48 53.92C195.12 53.92 195.68 54.44 196.16 55.48C196.666 56.4933 196.92 57.8 196.92 59.4V67.92C196.92 68.4267 195.386 69.3067 192.32 70.56C189.28 71.7867 187.533 72.4 187.08 72.4C186.893 72.4 186.68 72.1733 186.44 71.72C186.2 71.2667 185.88 70.6267 185.48 69.8C185.106 68.9467 184.76 68.24 184.44 67.68C184.146 67.12 183.733 66.84 183.2 66.84V66.04C183.626 65.8533 184.186 65.5733 184.88 65.2C186.586 64.2667 187.506 63.8 187.64 63.8C188.04 63.8 188.6 64.72 189.32 66.56C190.066 68.4 190.626 69.32 191 69.32C191.266 69.32 191.52 69.2133 191.76 69C192 68.7867 192.12 68.4933 192.12 68.12V59.12C192.12 57.92 191.786 57.32 191.12 57.32C190.906 57.32 190.066 57.64 188.6 58.28C187.133 58.92 186.306 59.24 186.12 59.24ZM208.289 66.16V44.88C208.289 44.6933 209.809 44.04 212.849 42.92C215.889 41.7733 217.636 41.2 218.089 41.2C218.542 41.2 219.222 41.7467 220.129 42.84C221.062 43.9333 221.529 44.92 221.529 45.8V68.28C221.529 68.4933 220.062 69.1733 217.129 70.32C214.222 71.44 212.436 72 211.769 72C211.129 72 210.382 71.4267 209.529 70.28C208.702 69.1333 208.289 67.76 208.289 66.16ZM215.129 68.32C215.636 68.32 216.156 68.1067 216.689 67.68V47.88C216.689 45.9067 216.009 44.92 214.649 44.92C214.116 44.92 213.596 45.12 213.089 45.52V65.36C213.089 67.3333 213.769 68.32 215.129 68.32ZM231.036 45.08C230.769 45.08 230.529 45.2133 230.316 45.48V56.36H235.556V57.32L233.556 58.32H230.316V65.84C230.316 66.8267 230.422 67.5333 230.636 67.96C230.849 68.3867 231.289 68.6 231.956 68.6V69.84L223.756 73.28L223.116 72C223.702 72 224.262 71.6533 224.796 70.96C225.276 70.2933 225.516 69.28 225.516 67.92V44.88C225.516 44.6933 227.036 44.04 230.076 42.92C233.142 41.7733 234.902 41.2 235.356 41.2C235.516 41.2 235.702 41.5867 235.916 42.36C236.129 43.1333 236.369 44.0667 236.636 45.16C236.929 46.2533 237.222 47.0667 237.516 47.6C237.836 48.1067 238.422 48.36 239.276 48.36V49.16C238.689 49.4267 237.689 49.9067 236.276 50.6C234.889 51.2667 234.142 51.6 234.036 51.6C233.636 51.6 233.129 50.52 232.516 48.36C231.902 46.1733 231.409 45.08 231.036 45.08ZM247.156 66.16V44.88C247.156 44.6933 248.676 44.04 251.716 42.92C254.756 41.7733 256.503 41.2 256.956 41.2C257.41 41.2 258.09 41.7467 258.996 42.84C259.93 43.9333 260.396 44.92 260.396 45.8V68.28C260.396 68.4933 258.93 69.1733 255.996 70.32C253.09 71.44 251.303 72 250.636 72C249.996 72 249.25 71.4267 248.396 70.28C247.57 69.1333 247.156 67.76 247.156 66.16ZM253.996 68.32C254.503 68.32 255.023 68.1067 255.556 67.68V47.88C255.556 45.9067 254.876 44.92 253.516 44.92C252.983 44.92 252.463 45.12 251.956 45.52V65.36C251.956 67.3333 252.636 68.32 253.996 68.32ZM264.383 65.96V48.6C264.383 47.6133 264.276 46.9067 264.063 46.48C263.849 46.0533 263.409 45.84 262.743 45.84V44.6L270.943 41.16L271.583 42.44C270.996 42.44 270.436 42.7867 269.903 43.48C269.423 44.1467 269.183 45.16 269.183 46.52V62.88C269.183 65.0133 269.369 66.2933 269.743 66.72C270.383 67.52 271.009 68 271.623 68.16C273.036 68.48 274.596 68.64 276.303 68.64V69.76C272.756 71.2533 270.729 72 270.223 72C269.743 72 269.076 71.7867 268.223 71.36C267.369 70.9067 266.516 70.1867 265.663 69.2C264.809 68.2133 264.383 67.1333 264.383 65.96ZM292.349 45.8V68.28C292.349 68.4933 290.883 69.1733 287.949 70.32C285.043 71.44 283.256 72 282.589 72C281.949 72 281.203 71.4267 280.349 70.28C279.523 69.1333 279.109 67.76 279.109 66.16V46.96C279.109 45.52 278.563 44.68 277.469 44.44V43.56L281.509 41.28C282.096 41.52 282.643 41.92 283.149 42.48C283.656 43.0133 283.909 43.52 283.909 44L288.869 41.2C289.349 41.2 290.043 41.7467 290.949 42.84C291.883 43.9333 292.349 44.92 292.349 45.8ZM285.949 68.32C286.456 68.32 286.976 68.1067 287.509 67.68V48.8C287.509 46.9067 286.829 45.96 285.469 45.96C284.936 45.96 284.416 46.16 283.909 46.56V65.36C283.909 67.3333 284.589 68.32 285.949 68.32Z" fill="#FCFCFC"/>
<path d="M55.32 20.04L55.98 20.1L56.34 20.28L56.58 20.64L56.82 21.54L57.18 23.34L57.6 24.66L58.08 25.56L58.5 26.04L59.1 26.34L59.76 26.46H60.54L61.2 26.22L61.68 25.8L62.1 25.14L62.46 24.36L62.88 22.98L63.24 21.06L63.48 20.52L63.78 20.16L64.14 20.04H64.92L66.18 20.22L67.44 20.58L68.4 21L69.48 21.6L70.5 22.32L71.28 22.98L71.88 23.52L72.48 24.18L73.14 25.08L73.8 26.16L74.28 27.12L75.24 29.46L75.96 31.14L76.74 32.82L77.64 34.44L78.24 35.28L78.72 35.82V35.94L78.96 36.06L79.5 36.54L80.28 36.9L80.52 36.96L81.72 37.02L82.32 36.84L82.8 36.48L83.34 35.94L83.82 35.64L84.24 35.52H85.38L86.34 35.7L87.06 36L87.78 36.48L88.56 37.14L89.52 38.1L89.94 38.7L90.36 39.54L90.6 40.44L90.78 41.7V42.24L90.6 43.68L90.18 45.36L89.7 46.68L88.92 48.36L88.02 50.04L87.18 51.42L86.52 52.38L85.74 53.4L85.32 53.94L84.66 54.72L83.94 55.5L82.62 56.82L82.14 57.24L81.54 57.78L80.52 58.56L79.44 59.4L78.66 60L78.12 60.36L78 60.48L79.68 60.72L81.36 61.08L83.16 61.68L84.12 62.16L85.2 62.76L86.22 63.54L87 64.26L87.6 64.8L88.32 65.52L88.62 65.94V66.12H88.5V66.24L88.32 66.3L87.06 66.36L86.22 66.54L84.78 66.6H76.2L75.06 66.72H74.4L73.26 66.54L72 66.3L70.08 66.24H69L68.88 66.6L68.34 67.2L67.56 67.8L66.78 68.46L66.3 68.94L65.82 69.36L65.7 69.54H65.58L65.46 69.78L65.1 70.32L64.62 70.86L63.72 71.34L63.06 71.52L62.46 71.58H61.44L60.18 71.4H59.52L58.2 71.58H57.36L56.64 71.46L55.92 71.16L55.32 70.8L54.84 70.26L54.36 69.6L53.16 68.4L52.5 67.86L51.9 67.32L51.42 66.9L50.88 66.18H44.82L44.7 66.66V67.38L44.88 67.98L45.72 69.06L45.84 69.42L45.54 69.48L42.48 69.12L41.64 68.82L41.04 68.46L40.44 67.92L40.08 67.38L39.78 66.48L39.72 66.12L34.5 66.18L33.84 66.42L33.36 66.48H32.76L31.8 66.3L31.2 65.94L30.9 65.7L30.42 65.04L30.18 64.5L30.06 63.54L30.18 62.76L30.48 62.16L31.02 61.56L31.62 61.14L32.4 60.84L33 60.66L33.84 60.12L34.86 59.4L35.82 58.86L36.78 58.5L38.1 58.14L38.7 58.02V57.9L38.46 57.78L37.74 57.12L37.26 56.7L36.3 55.8L35.88 55.32L35.16 54.54L34.56 53.82L33.78 52.8L33.06 51.78L32.22 50.52L31.26 48.78L30.66 47.52L30 45.84L29.64 44.7L29.4 43.5L29.28 42.72V41.16L29.52 39.9L29.82 39.18L30.18 38.52L30.66 37.92L31.2 37.32L31.86 36.72L32.82 36.06L33.54 35.76L34.26 35.58L34.74 35.52H35.64L36.18 35.64L36.84 36.12L37.5 36.78L38.1 37.02H39.06L40.02 36.78L40.68 36.36L41.4 35.7L42 34.92L42.54 34.02L43.38 32.46L44.34 30.36L45.24 28.2L45.9 26.64L46.62 25.32L47.4 24.3L48 23.64L48.12 23.46H48.24L48.36 23.22L48.84 22.8L49.56 22.2L50.46 21.6L51.42 21.06L52.2 20.7L53.58 20.28L54.54 20.1L55.32 20.04Z" fill="#2D0606"/>
<path d="M84.12 68.4H84.78L85.14 68.58L85.68 68.52L86.04 69.12L86.88 70.8L87.66 72.48L89.94 77.28L90.72 78.9L90.78 79.26L90.3 79.5L90.24 79.56L90.48 79.68V79.8L90.54 79.68H90.66V79.8H90.78L90.9 80.04L91.14 80.22L91.08 80.1V79.74L91.26 79.98L92.1 81.78L93.06 83.88L93.12 84.36L91.5 85.2L90.12 85.86L89.28 86.16L89.04 86.04L88.86 85.74L88.62 85.86V85.74L88.2 85.92L87.96 86.04L87.6 85.74L86.58 83.7L85.92 82.32L85.44 81.36L85.02 80.94V80.82H84.9L84.48 79.86L84.36 79.62L84.24 78.96L83.88 78.18L83.58 77.46L83.1 76.5L82.92 76.32L82.74 76.02L82.62 75.96V75.78L82.32 75.72L82.14 75.54V75.42L82.02 75.54V75.84H81.66L82.86 79.62L83.52 81.72L83.58 82.32L83.1 82.56L81.54 83.04L79.92 83.58L79.38 83.64L79.26 83.28L78.84 83.34L78.06 83.52L77.88 83.28L77.4 81.84L77.04 80.64L76.26 78.42L75.66 76.62L75.78 77.52L76.08 78.96L76.38 81.12L77.22 86.1L77.4 87.42L77.34 88.2L77.1 88.86L76.56 89.46L76.26 89.7L75.72 89.88L72.36 90.48L69.66 90.9H69.12L67.44 90.66L66.9 90.42L66.3 89.88L66.06 89.58L65.76 88.68L65.4 86.7L64.44 81.06L63.96 78.06L63.9 77.52V76.74L64.14 76.08L64.5 75.6L64.98 75.18L65.52 74.94L67.26 74.58L71.16 73.92H72.54L73.86 74.1L74.52 74.46L75 74.94L75.12 75L74.88 74.34L74.52 73.44L74.34 72.66L74.4 72.36L75.06 72.12L76.74 71.58L78.12 71.1L78.66 70.92L79.5 70.74L80.1 70.38L80.52 70.14L80.82 69.9L81.54 69.6L82.62 69.12L83.1 68.88L83.52 68.7L84.12 68.4Z" fill="#FCFBFB"/>
<path d="M55.14 21.3H55.5L55.56 21.36L55.74 22.62L56.04 23.88L56.34 24.84L56.82 25.92L57.36 26.7L57.84 27.18L58.44 27.54L58.92 27.72L59.52 27.78H60.54L61.14 27.66L62.1 27.18L62.52 26.76L62.94 26.16L63.42 25.26L64.02 23.46L64.32 22.02L64.5 21.3L65.22 21.36L66.54 21.66L67.2 21.9L68.4 22.44L69.06 22.86L69.72 23.34L70.68 24.12L71.28 24.72L71.82 25.38L72.66 26.64L73.14 27.6L74.22 30.24L74.88 31.8L75.84 33.78L76.56 35.04L77.28 36.12L77.82 36.78L78.48 37.38L79.02 37.74L79.68 38.04L80.64 38.28H81.36L82.2 38.16L82.98 37.86L83.58 37.44L84.18 36.84L84.48 36.72H85.26L86.1 36.96L86.76 37.32L87.6 37.92L88.32 38.64L88.92 39.48L89.28 40.38L89.46 41.04L89.52 41.64V42.42L89.34 43.56L88.98 45L88.32 46.74L87.48 48.48L86.7 49.86L85.98 51L85.2 52.08L84.42 53.04L83.76 53.82L83.04 54.6L82.8 54.9H82.68L82.56 55.14L81.84 55.86L81.36 56.28L80.58 56.94L79.8 57.54L79.08 58.14L77.94 58.92L76.26 60.06L75.36 60.66L75.06 60.72L75 60.48L75.48 59.88L75.6 59.82L75.36 59.88L74.7 60.42L74.46 60.66H74.22L74.34 60.42L74.52 60.12V60L74.04 60.24L73.68 60.66L73.44 60.6L73.68 60.24L73.32 60.36L72.72 60.66H72.36V60.54L73.2 60.06L73.92 59.76L75.12 59.04L76.98 57.78L78 57.06L78.78 56.46L79.62 55.8L80.22 55.26L81.12 54.42L81.42 54.12H81.54L81.66 53.88H81.78L81.84 53.7L82.2 53.4L82.74 52.74L83.16 52.32L83.76 51.54L84.36 50.7L84.96 49.8L85.44 49.02L85.98 48.06L86.52 46.68L87.06 44.64L87.12 43.86L87.06 43.68H86.94L86.34 42.42L85.62 41.64L85.08 41.28L84.48 41.04L84.12 41.1L83.16 41.82L82.32 42.24L81.06 42.54H80.04L79.02 42.36L78.18 42.06L77.64 41.76L76.98 41.28L76.2 40.5L75.66 39.78L75.06 38.88L74.52 37.92L73.86 36.54L73.5 35.76L73.32 35.28L73.38 35.1L74.1 36.42L74.58 37.38L75 38.1L75.24 38.4V38.52H75.36L74.76 37.44L74.22 36.42L73.62 35.1L73.02 33.96L72.36 32.58L72 31.8L71.4 30.24L70.74 28.62L70.14 27.54L69.54 26.76L69.12 26.34L68.52 25.98L67.74 25.62L67.2 25.5L66.6 27.06L66.12 28.02L65.88 28.32L65.76 28.26L66.06 27.42V27.18L65.58 28.26L64.98 29.22L64.32 30L63.48 30.84L62.88 31.26L61.98 31.68L61.26 31.92L60.84 31.98H59.16L57.96 31.68L56.94 31.2L56.22 30.66L55.62 29.88L54.96 28.8L54.3 27.54L53.88 26.58L54.06 27.24L54.48 28.2L55.08 29.34L55.14 29.7L54.84 29.4L54.3 28.68L53.82 27.9L53.28 26.88L52.8 25.56V25.44L51.78 25.8L51.12 26.16L50.52 26.64L49.98 27.24L49.5 28.02L49.02 28.98L48.3 30.84L47.76 32.34L47.16 33.9L46.32 35.94L45.84 36.84L44.88 38.28L44.16 39.24L43.5 39.96L43.26 40.26L42.6 40.8L42 41.28L41.4 41.58L40.56 41.82L39.96 41.88H40.38L41.64 41.52L42.54 41.04L43.32 40.44L43.86 39.9L44.28 39.42L44.58 39.12L44.82 38.94L44.7 39.24L44.16 40.02L43.44 40.86L42.84 41.4L41.88 42L40.98 42.36L39.96 42.54H39.06L37.8 42.3L36.72 41.82L36.12 41.34L35.76 41.04L35.34 41.1L34.38 41.58L33.96 42L33.78 42.3L33.6 42.36V41.94L34.02 41.1H34.14L34.26 40.86L34.56 40.5V40.38L34.08 40.8L33.66 41.4L33.42 41.88L33.18 43.08L33.06 44.4L32.88 44.16L32.82 43.74V42.72L33 41.7L32.76 42.48L32.7 43.08V44.28L33 45.6L33.42 46.74L34.02 48.12L34.62 49.2L35.46 50.52L36.18 51.48L36.96 52.44L37.38 52.92L38.1 53.7L38.4 54V54.12L38.64 54.24L39.06 54.72L39.66 55.26L40.44 55.92L41.22 56.52L41.94 57.06L42.84 57.72L43.2 57.96L43.32 58.26L42.9 58.08L42.66 57.96H42.3L42.06 57.78L41.88 57.72L41.82 58.02L41.46 57.9L40.92 57.84V57.72L40.62 57.66V57.84L40.32 57.72L39.54 57.12L38.88 56.52L37.92 55.68V55.56L37.68 55.44L36.54 54.3L36 53.64L35.28 52.8V52.68H35.16L34.44 51.66L33.9 50.88L33.3 49.98L32.64 48.84L31.92 47.46L31.26 45.84L30.84 44.58L30.54 43.2L30.48 42.78V41.16L30.72 40.2L31.2 39.24L31.74 38.52L32.4 37.86L33.3 37.26L34.14 36.84L34.68 36.72H35.4L35.76 36.84L36.06 37.08L36.48 37.56L37.32 38.04L38.04 38.22L39.3 38.28L40.26 38.04L41.46 37.44V37.32L41.94 36.9L42.48 36.36L42.9 35.76L43.68 34.5L44.4 33.18L45.18 31.5L46.08 29.4L46.86 27.48L47.34 26.46L48 25.5L48.66 24.72L49.5 23.88L50.52 23.1L51.36 22.56L52.32 22.08L53.16 21.72L54.66 21.36L55.14 21.3Z" fill="#FAF207"/>
<path d="M54.42 44.34L54.66 44.4L55.2 44.82L55.44 45L55.8 45.18V45.3H55.98V45.42L56.28 45.48L56.82 45.78L56.64 45.36L56.22 45L56.04 44.76L56.1 44.64L56.7 45L57.36 45.42L58.2 46.02L59.28 46.8L59.88 47.22L60.72 47.82L61.44 48.36L62.1 48.9L62.28 49.62L62.52 50.28L62.7 50.52L63 50.64L63.42 51.24L64.02 51.78L64.86 52.26L64.8 52.62L64.38 53.4L65.16 53.1L65.64 52.86L66.54 52.2L67.56 51.9L68.4 51.48L69 50.94L69.3 50.46L69.72 49.38L70.14 48.06L70.44 47.88L70.68 47.76H70.98L71.28 48.9L71.34 49.68V52.14L71.22 53.7L71.04 54.3L70.74 54.78L70.44 54.84L70.5 54.48L70.68 54L70.74 53.64V52.8L70.56 52.44L70.38 52.32L70.32 53.4L70.08 54.18L69.84 54.72L69.6 54.66L69.72 54.12V53.4L69.66 53.28L69.48 53.22L69.36 53.76L69.06 54.54L68.76 54.6L68.58 54.48L68.64 53.52L68.4 53.58L68.04 54.3L67.98 54.36H66.72L66.24 54.6L65.82 55.02L65.4 55.68L64.92 56.58L64.86 56.76L66 56.64H67.14L67.38 56.94L67.74 57.9L67.92 58.08V58.2H68.16L67.98 57.18L67.92 56.7L68.1 56.76L68.46 57.48L68.58 57.78L68.82 58.98L68.88 59.1L69.06 59.16L69.12 58.08L69 57.48L69.06 57.24L69.36 57.66L69.48 58.08L69.54 58.68V59.52L69.42 60.6L69.36 60.84L68.7 60.78L67.26 60.66L66.84 60.6L66.9 60.06H67.02L67.08 59.7L67.14 59.4L66.9 59.64H66.78L66.66 59.88L66.48 60.06L66.06 60.3L65.82 60.84L65.7 61.44L65.34 61.98L65.1 62.16L64.56 62.1L64.44 61.8L64.26 60.9L63.96 60.78L64.02 61.62L63.84 62.16L63.24 62.52L62.94 62.58L62.82 62.46V62.22H62.7L62.58 61.5L62.22 61.56V62.58L61.98 62.76L61.56 62.88L61.08 62.94H60.54L60.48 62.88V62.1L60.36 61.98L60.06 62.16L60 62.88L59.94 62.94H59.46L58.5 62.76L58.32 62.64V62.16L58.62 60.84L58.92 60.48L59.16 60.36H59.52L59.88 60.6L60.18 60.84H60.48L61.02 60.42L61.44 60.36L61.86 60.54L62.16 60.78L62.46 60.66L62.82 60.36L63.12 60.06L63.36 60.18L63.72 60.6L64.02 60.72L64.14 60.48L64.5 60.3L64.98 59.88L65.52 59.82L65.76 59.88L65.7 59.58L65.58 59.34L65.16 59.4L65.04 59.7L64.62 59.64L64.32 60L63.96 60.06L63.6 59.94V59.82L63.36 59.76L63.18 59.64H62.94L62.7 59.88L62.52 60.18L62.4 60.3H62.1L61.8 59.94V59.76H61.68V59.64L61.26 59.58L61.2 59.76H61.02L60.96 59.94H60.84L60.72 60.18L60.48 60.3L60.12 60.24V60.12L59.88 60.06L59.34 59.58L59.1 59.64L58.8 60.06H58.68L58.62 60.3L58.44 60.36V60.24L58.2 60.18L57.72 59.64L57.42 59.76L56.94 60H56.34L56.28 59.76L55.92 59.64H55.68L55.56 59.34L55.08 59.52L54.9 59.88L55.38 59.82L55.98 60.12L56.46 60.54H56.88L57.12 60.42H57.3L57.36 60.18L57.66 60.12L58.14 60.66V61.02L57.96 61.26L57.78 62.52L57.72 62.58L57.24 62.52L57.12 62.46V62.34L56.7 62.22L56.64 62.1L56.58 61.2H56.4L56.22 61.74L56.04 62.1H55.56L55.32 61.86L55.02 60.96L54.96 60.84L54.72 60.78V61.38H54.54L54.3 61.08L54.18 60.6L53.94 60.48L53.76 59.88L53.52 59.64L53.58 60.12L53.64 60.48L53.58 60.54H52.56L52.08 59.34L51.9 58.68L51.84 58.26V57.66L52.02 56.94L52.14 56.7H54.18L55.02 56.76L54.9 56.4V56.16H54.78L54.6 55.56L54.42 55.5V55.26L54.24 55.2V54.96L54 54.84L53.64 54.54L52.92 54.36L51.72 54.54L51.36 54.66H51L50.64 54.54L50.58 54.66H50.28V54.54H50.16V54.66L49.92 54.78L49.86 54.9L49.5 54.84L49.32 54.42L49.2 54.36L49.14 54.66H49.02V54.24L48.78 54.18L48.66 53.64L48.6 52.98V51.66L48.66 49.2L48.84 48.24L49.14 47.46L49.38 46.98L49.74 46.44L50.28 45.84L50.88 45.36L51.72 44.88L52.02 44.76H52.44L53.22 45.3L53.94 45.72L53.76 45.12L53.52 45L53.04 44.58L53.1 44.46H53.64L54 44.76L55.14 45.48L55.44 45.6L55.38 45.3L55.02 45L54.72 44.7L54.42 44.46V44.34Z" fill="#FCFBFC"/>
<path d="M50.04 74.34H50.76L54.06 74.7L56.64 75.06L58.14 75.36L58.86 75.78L59.34 76.44L59.58 77.04V78.42L59.22 81.54L58.8 85.26L58.32 88.32L58.14 89.52L57.9 90.06L57.54 90.54L57.12 90.9L56.58 91.14L56.34 91.2H55.26L50.46 90.6L48.06 90.18L47.46 89.88L47.04 89.46L46.62 88.62L46.5 88.14V87.66L46.62 87.06L46.86 84.66L47.46 79.92L47.88 76.62L48.12 75.72L48.48 75.12L49.02 74.64L49.68 74.4L50.04 74.34Z" fill="#2D0606"/>
<path d="M34.38 69.54H35.76L37.08 69.72L37.98 70.02L39.9 70.86L41.94 71.76L43.5 72.42L43.92 72.66L43.98 72.9L43.5 74.1L42.84 75.66L42.54 76.38L42.3 76.74L41.82 76.68L41.22 76.44L40.74 76.32V76.5L40.38 76.44L39.96 76.26L39.6 76.08L38.82 75.72L37.86 75.36L37.5 75.18L37.44 75.42L37.08 76.2L36.54 77.64L37.92 77.88L38.88 78.24L40.38 78.9L41.52 79.44L41.7 79.56L41.64 80.1L41.1 81.54L40.5 82.92L39.96 84.06L39.3 85.62L38.88 86.22L38.46 86.58L37.86 86.88L37.62 86.94H36.78L35.64 86.76L34.56 86.46L32.76 85.74L30.96 84.96L29.46 84.3L28.92 83.94L28.5 83.46L28.26 82.92L28.2 82.68V81.84L28.5 81L29.16 79.44L29.58 78.54L30.66 76.08L31.68 73.74L32.88 71.04L33.24 70.38L33.72 69.9L34.38 69.54Z" fill="#2D0606"/>
<path d="M72.48 74.28H73.74L74.28 74.4V74.52L74.52 74.64L74.82 74.94L75.18 75.42L75.36 75.9L75.6 77.16L75.96 79.5L76.32 81.6L76.56 82.98L76.68 83.82L77.04 85.68L77.16 86.58L77.28 87.06L77.34 87.72L77.28 88.44L76.98 89.04L76.44 89.58L75.96 89.82L74.1 90.18L70.5 90.78L70.08 90.84H69.18L68.58 90.66L68.04 90.3L67.62 89.82L67.38 89.28L66.84 86.16L66.36 83.28L65.52 78.3L65.46 78V76.86L65.7 76.26L66.24 75.66L66.78 75.3L67.08 75.18L68.28 75L71.34 74.46L72.48 74.28Z" fill="#2D0606"/>
<path d="M66.36 61.74L68.16 61.8L77.28 61.86L79.02 61.98L80.52 62.28L81.54 62.52L82.44 62.82L82.98 62.94L84.12 63.54L84.96 64.14L85.5 64.56L85.44 64.8H45.72L45.84 64.38L46.14 64.08H46.26V63.9L46.68 63.54L52.44 63.6H66.96L81.72 63.54L81.78 63.48L80.88 63.18L79.74 62.88L78.66 62.58L77.34 62.34L75.06 62.1H73.68L72.96 62.16H66.24L66.18 62.04L66.36 61.74Z" fill="#FDFDFD"/>
<path d="M79.74 71.46L79.98 71.52L80.7 73.68L81.42 75.78L82.86 80.1L83.52 82.02V82.38L82.86 82.62L80.7 83.34L79.92 83.58H79.5L78.96 82.2L75.9 73.02L75.96 72.72L76.92 72.36L78.72 71.76L79.74 71.46Z" fill="#2D0606"/>
<path d="M85.32 68.88H85.74L86.22 69.84L87 71.46L87.36 72.18L87.9 73.38L88.38 74.34L88.86 75.42L89.34 76.38L89.94 77.64L90.48 78.84L90.54 79.14L89.58 79.62L88.2 80.28L86.94 80.88H86.7L85.74 79.02L85.08 77.58L84.24 75.84L83.28 73.8L82.62 72.42L81.84 70.74L81.96 70.5L82.98 69.96L83.88 69.54L85.14 69L85.32 68.88Z" fill="#2D0606"/>
<path d="M58.98 39.1801H60.9L62.46 39.4201L64.26 39.8401L66.3 40.5601L68.04 41.2801L68.4 41.5201L68.64 41.6401V41.7601H68.16L67.5 41.6401L66.9 41.5801V41.7001L67.2 41.7601L68.16 42.3001L68.82 42.7801L69.42 43.3201L69.84 43.6801V43.8001L70.08 43.9201L70.5 44.4001L70.8 44.7001V44.8201L70.44 44.7601L69.48 44.2801L68.22 43.6801L67.26 43.3201L65.76 42.9601L64.2 42.6601L61.68 42.3001L61.08 42.2401H58.98L57.54 42.4201L55.08 42.7801L53.04 43.2001L51.96 43.5601L49.5 44.7601L49.26 44.8801H49.08L49.2 44.6401L49.44 44.3401L50.34 43.4401L50.82 43.0201L51.6 42.4201L52.56 41.8801L53.1 41.7001V41.5801L52.2 41.6401L51.18 41.7601L51.36 41.5801L52.32 41.1001L54 40.4401L55.2 40.0201L56.7 39.6001L57.72 39.3601L58.8 39.2401L58.98 39.1801Z" fill="#F9F109"/>
<path d="M53.16 46.3199H53.88L54.42 46.4999L55.14 46.8599L55.2 47.0399L54.96 46.9799H54.78L55.08 47.2199L55.8 47.6999L56.46 48.1799L57.06 48.4799H58.26L58.8 48.4199V48.2999L59.1 48.3599L59.16 49.0199V49.8599L58.92 51.1199L58.68 51.7199L58.2 52.3799L57.78 52.7399L57 53.0999L56.58 53.2199H55.44L54.6 53.0399L53.82 52.7399L53.34 52.4999V52.3799L53.7 52.3199L53.64 52.1399L52.56 51.7799L51.6 51.2399L50.94 50.6999L50.58 50.1599L50.64 49.9199L51.06 49.6799H51.18L51.3 49.4399L51.48 49.0199V48.1199L51.42 47.6399L51.36 47.5799V47.2799L51.78 46.8599L52.08 46.7399L52.14 46.6199L52.8 46.3799L53.16 46.3199Z" fill="#2D0606"/>
<path d="M56.04 44.64L56.7 45L57.36 45.42L58.2 46.02L59.28 46.8L59.88 47.22L60.72 47.82L61.44 48.36L62.1 48.9L62.28 49.62L62.52 50.28L62.7 50.52L63 50.64L63.42 51.24L64.02 51.78L64.86 52.26L64.8 52.62L64.38 53.4L65.16 53.1L65.64 52.86L66.54 52.2L67.56 51.9L68.4 51.48L69 50.94L69.3 50.46L69.72 49.38L70.14 48.06L70.44 47.88L70.68 47.76H70.98L71.28 48.9L71.34 49.68V52.14L71.22 53.7L71.04 54.3L70.74 54.78L70.44 54.84L70.5 54.48L70.68 54L70.74 53.64V52.8L70.56 52.44L70.38 52.32L70.32 53.4L70.08 54.18L69.84 54.72L69.6 54.66L69.72 54.12V53.4L69.66 53.28L69.48 53.22L69.36 53.76L69.06 54.54L68.76 54.6L68.58 54.48L68.64 53.52L68.4 53.58L68.04 54.3L67.98 54.36H66.72L66.24 54.6L65.82 55.02L65.4 55.68L64.92 56.58L64.86 56.76L66 56.64H67.14L67.38 56.94L67.74 57.9L67.92 58.08V58.2H68.16L67.98 57.18L67.92 56.7L68.1 56.76L68.46 57.48L68.58 57.78L68.82 58.98L68.88 59.1L69.06 59.16L69.12 58.08L69 57.48L69.06 57.24L69.36 57.66L69.48 58.08L69.54 58.68V59.52L69.42 60.6L69.36 60.84L68.7 60.78L67.26 60.66V60.6H67.68L67.56 59.7L67.2 58.44L66.84 57.9L66.3 57.42L65.82 57.24H65.16L64.56 57.36L64.32 57.3L64.26 57.18V56.76L64.44 56.04L64.92 55.08L65.46 54.48L66.12 54.06L67.32 53.7L67.5 53.4L67.74 52.68L66.84 52.92L65.82 53.4L65.1 53.76L64.26 54H63.78L63.72 53.82L63.9 52.98V52.62L63.78 52.38L63.54 52.26L63 51.78L62.16 50.64L61.56 49.56L61.26 49.26L60.66 48.78L60.06 48.36L59.16 47.7L58.08 46.92L57.12 46.2L56.58 45.84L56.34 45.6L56.7 45.72L56.82 45.78L56.64 45.36L56.22 45L56.04 44.76V44.64Z" fill="#788797"/>
<path d="M47.88 61.6801L54.12 61.7401L54.42 61.9201L54.48 62.1601L54.36 62.2801L53.88 62.4001L53.94 62.6401L54.12 62.7001V62.8201L53.1 63.0601L51.96 63.4201H51.84V63.5401H60.72L67.08 63.4801L66.36 63.3001L65.4 63.1201L65.22 62.9401L65.7 62.7601L66.06 62.0401L66.24 61.9201V62.1001H72.96L73.68 62.0401H75.06L77.34 62.2801L78.84 62.5801L79.74 62.8201L81.24 63.2401L81.96 63.4801L81.72 63.6001L66.78 63.6601H51.96L46.68 63.6001L46.32 63.9001L46.44 63.6601L46.92 63.1201L47.46 62.3401L47.76 61.8001L47.88 61.6801Z" fill="#768798"/>
<path d="M39.84 59.22H42.48L43.74 59.4L44.94 59.76L45.54 60.06L46.14 60.54L46.5 60.96L46.62 61.26L46.56 61.74L45.96 62.52L45.42 63.12L44.82 63.96L44.34 64.62L43.8 65.58L43.5 66.36L43.44 66.84V67.56L43.62 68.1L43.68 68.4L42.72 68.04L42 67.74L41.46 67.32L41.16 66.84L41.04 66.48V66.06L41.22 65.46L41.58 64.8L43.02 62.88L44.82 61.08L44.88 60.9H44.34L42.84 60.78H40.32L38.28 60.96L37.68 61.14L36.9 61.56L36.54 61.74H34.92L34.56 61.56L34.5 61.26L35.4 60.66L36 60.24L36.72 59.82L37.38 59.58L38.88 59.28L39.84 59.22Z" fill="#F9F009"/>
<path d="M50.04 74.34H50.76L54.06 74.7L56.64 75.06L58.14 75.36L58.86 75.78L59.34 76.44L59.58 77.04V78.42L59.22 81.54L58.8 85.26L58.32 88.32L58.14 89.52L57.9 90.06L57.84 89.88L57.96 89.52L58.08 88.8L58.2 87.72L58.5 85.08L58.86 82.08L59.1 80.04L59.22 79.38L59.34 78.06L59.4 77.34L59.22 76.68L58.86 76.14V76.02L58.62 75.9L57.96 75.6L57.54 75.48L56.46 75.36L55.68 75.24L53.16 74.94L52.26 74.82H51.06L50.46 75.06L49.98 75.48L49.74 75.84L49.5 76.56L49.02 80.4L48.18 87.36L48.12 87.72V88.62L48.3 89.22L48.66 89.76L49.02 90.06L49.74 90.42L49.08 90.36L48.06 90.18L47.46 89.88L47.04 89.46L46.62 88.62L46.5 88.14V87.66L46.62 87.06L46.86 84.66L47.46 79.92L47.88 76.62L48.12 75.72L48.48 75.12L49.02 74.64L49.68 74.4L50.04 74.34Z" fill="#928584"/>
<path d="M52.56 66L52.98 66.06L53.88 66.96L54.48 67.38L54.66 67.44L54.54 66.9H54.9L54.84 66.48L54.78 66.18L55.2 66.54L56.34 67.68L56.82 67.98V68.1H57.06L57.12 67.5L57.42 67.56L58.68 68.1L59.64 68.34H60.42L61.56 67.98L62.64 67.5L62.88 67.56L62.94 67.92L63.3 67.8L64.02 67.14L64.5 66.72L65.1 66.12L65.22 66.06H67.62L67.5 66.3L67.02 66.72L66.54 67.08L66.24 67.38L65.4 68.16H65.28L65.16 68.4H65.04L64.92 68.64L64.44 69.18L64.02 69.78L63.36 70.2L62.94 70.38L62.64 70.44H61.86L61.08 70.26L60.78 70.14H59.64L58.98 70.2L58.08 70.5H57.36L56.58 70.26L56.1 69.96L55.68 69.48L55.38 69L54.9 68.46L54.3 67.86L53.52 67.14L52.68 66.48L52.44 66.24V66.06L52.56 66Z" fill="#788797"/>
<path d="M34.38 69.54H35.76L37.08 69.72L37.98 70.02L39.9 70.86L41.94 71.76L43.5 72.42L43.92 72.66L43.98 72.9L43.86 73.02L43.8 72.78L42.84 72.42L42.12 72.06L40.44 71.34L39.36 70.86L37.2 69.96L37.02 69.9H35.88L35.4 70.08L34.86 70.5L34.56 70.86L34.08 72L33 74.52L31.44 78.12L30.42 80.46L29.94 81.6L29.82 82.02V82.98L30.06 83.64L30.36 84L30.96 84.42L32.28 85.02L34.86 86.1L35.34 86.34L36.72 86.82V86.88L35.94 86.82L34.74 86.52L32.76 85.74L30.96 84.96L29.46 84.3L28.92 83.94L28.5 83.46L28.26 82.92L28.2 82.68V81.84L28.5 81L29.16 79.44L29.58 78.54L30.66 76.08L31.68 73.74L32.88 71.04L33.24 70.38L33.72 69.9L34.38 69.54Z" fill="#968A8A"/>
<path d="M82.26 83.52H82.62L82.74 83.82L84 83.64L84.24 83.94L84.6 84.9L85.5 87.48L85.38 87.78L83.16 88.56L81.78 88.98L81.24 89.04L81.06 88.8V88.62L80.1 88.86L79.8 88.8L79.44 87.96L78.84 86.28L78.48 85.02V84.72L79.44 84.48L80.1 84.24L81.18 83.88L81.66 83.76H81.84L82.26 83.52Z" fill="#2D0707"/>
<path d="M59.58 86.7H63.72L64.62 86.76L64.8 86.82L64.86 87.12L64.98 89.4V91.08L64.92 91.2L64.74 91.26L62.94 91.38H60.6L60.42 91.26L59.34 91.2L59.16 91.08L59.1 90.9L58.98 88.44V86.88L59.04 86.76L59.58 86.7Z" fill="#2D0606"/>
<path d="M40.62 83.9399H41.16L42 84.0599L42.9 84.1799L45.06 84.7799L46.2 85.0799L46.26 85.3199L45.84 87.1799L45.3 89.0999L45.12 89.3999L44.46 89.3399L42.84 88.9799L40.98 88.4999L39.9 88.2599L39.54 88.0799L39.6 87.4799L40.32 84.5399L40.62 83.9399Z" fill="#2E0808"/>
<path d="M71.28 74.1H72.18L73.62 74.16L74.16 74.34L73.98 74.4L73.74 74.34H72.48L71.34 74.52L69.9 74.76L68.88 74.94L67.08 75.24L66.36 75.6L65.88 76.08L65.58 76.68L65.52 76.86V78L66 80.82L66.42 83.28L66.9 86.16L67.44 89.28L67.74 89.88L68.16 90.36L68.7 90.66L69.66 90.84V90.9H69.12L67.44 90.66L66.9 90.42L66.3 89.88L66 89.22L65.76 88.26L65.52 86.7L64.8 82.38L64.62 81.24L64.56 81.12L64.44 80.04L64.2 78.84L64.02 77.58V76.62L64.38 75.9L64.86 75.42L65.4 75.12L66.24 74.88L68.34 74.58L70.38 74.22L71.28 74.1Z" fill="#928585"/>
<path d="M64.92 44.16L65.82 44.22L66.18 44.34L67.44 44.52L68.1 44.76L68.88 45.18L69.6 45.72L70.08 46.2L70.32 46.56V46.8L69.84 46.98L69.48 47.04H68.46L67.5 46.74L67.08 46.56L66.6 45.66L66.36 45.12H66.3L66.24 46.14L66.18 46.5H64.98L64.02 46.74L63.3 47.04L63.06 47.1H62.64L61.68 46.62L60.36 45.84L59.28 45.12L58.68 44.7V44.58H60.66L62.22 44.34L63.42 44.22L64.92 44.16Z" fill="#788796"/>
<path d="M91.2 80.52L91.38 80.7L92.22 82.5L92.7 83.46L92.76 83.76L92.94 83.82L93.06 84.3L92.82 84.54L91.38 85.26L90.12 85.86L89.28 86.16L89.04 86.04L88.92 85.56L88.32 84.42L87.42 82.5L87.48 82.26L88.62 81.66L90.96 80.58L91.2 80.52Z" fill="#2D0606"/>
<path d="M78.36 71.22L78.54 71.28L78.72 71.64H79.14L79.02 71.76L78.3 71.94L76.08 72.72L75.96 72.78L76.02 73.2L76.8 75.6L77.64 78.06L79.14 82.56L79.44 83.22L79.5 83.58L79.68 83.64H79.38L79.26 83.28L78.84 83.34L78.06 83.52L77.88 83.28L77.4 81.84L77.04 80.64L76.86 79.92L75.9 76.98L75.3 75.3L74.4 72.6L74.58 72.42L78.06 71.28L78.36 71.22Z" fill="#918585"/>
<path d="M84.12 68.64L84.42 68.7L84.66 69.06L84.96 69L85.2 68.94L85.02 69.12L83.58 69.72L82.62 70.2L81.96 70.56L81.9 70.74L82.86 72.78L83.58 74.28L84.36 75.96L84.9 77.1L85.38 78.06L86.1 79.62L86.52 80.4L86.46 80.52L86.4 80.46L85.98 80.52L85.56 80.7L85.26 80.64L84.24 78.48L83.28 76.5L82.32 74.46L81.48 72.66L80.58 70.8L80.52 70.44L81.06 70.08L82.74 69.3L84.12 68.64Z" fill="#918584"/>
<path d="M36.9 62.8199H39.3L41.76 62.8799L41.82 62.9999L41.46 63.5999L41.1 64.3199L40.92 64.7999L40.8 64.8599H34.8L34.62 64.7999L34.5 64.0799V63.4799L34.74 62.9399L34.8 62.8799L36.9 62.8199Z" fill="#F8F00A"/>
<path d="M47.88 61.6801L54.12 61.7401L54.42 61.9201L54.48 62.1601L54.36 62.2801L53.88 62.4001L53.94 62.6401L54.12 62.7001V62.8201L53.1 63.0601L51.96 63.4201H51.84V63.5401H60.72L67.08 63.4801L66.96 63.3601L67.32 63.4201V63.6001L66.78 63.6601H51.96L46.68 63.6001L46.32 63.9001L46.44 63.6601L46.92 63.1201L47.46 62.3401L47.76 61.8001L47.88 61.6801Z" fill="#788797"/>
<path d="M63.12 60L63.36 60.12L63.72 60.54L64.02 60.66L64.14 60.42L64.5 60.24L64.86 60L64.98 60.54L65.1 61.26L65.52 60.9L65.88 60.42L65.94 60.54L65.82 60.78L65.7 61.38L65.34 61.92L65.1 62.1L64.56 62.04L64.44 61.74L64.26 60.84L63.96 60.72L64.02 61.56L63.84 62.1L63.24 62.46L62.94 62.52L62.82 62.4V62.16H62.7L62.58 61.44L62.22 61.5V62.52L61.98 62.7L61.56 62.82L61.08 62.88H60.54L60.48 62.82V62.04L60.36 61.92L60.06 62.1L60 62.82L59.94 62.88H59.46L58.5 62.7L58.32 62.58V62.1L58.62 60.78L58.92 60.42L59.16 60.3H59.52L59.88 60.54L60.18 60.78H60.48L61.02 60.36L61.44 60.3L61.86 60.48L62.16 60.72L62.46 60.6L62.82 60.3L63.12 60Z" fill="#7A8796"/>
<path d="M59.88 51.42L60.12 51.48L60.54 52.08L60.72 52.38L60.84 52.44L61.26 53.28L61.56 54L61.92 55.02L62.1 55.44V55.86L61.74 56.46L61.5 56.76L61.2 56.7L60.66 56.1L60.42 55.68V55.14L60.12 55.38L59.58 55.2L59.52 55.8L58.98 56.52L58.74 56.76L58.44 56.7L58.08 56.28L57.84 55.8L57.9 55.44L58.08 54.96L58.68 53.34L59.22 52.38L59.4 52.02L59.58 51.84L59.88 51.42Z" fill="#2D0606"/>
<path d="M47.46 53.64H47.7L47.58 54L47.16 54.48L47.04 54.66L47.28 54.54L47.58 54.36H47.7L47.58 54.6L47.1 55.32L46.92 55.98V56.52L47.1 57.06L47.46 57.3L47.64 57.36H48.3L48.9 57.06L49.44 56.46L49.74 55.74L49.92 55.44L50.52 55.26L50.58 55.32V55.98L50.4 56.7L49.92 57.66L49.32 58.38L48.84 58.74L48.12 59.1L47.46 59.28L46.8 59.22L46.32 58.98L45.9 58.62L45.54 57.9L45.42 57.18L45.54 56.22L45.9 55.26L46.32 54.6L46.86 54L47.46 53.64Z" fill="#788796"/>
<path d="M78.12 60L78.24 60.06L78 60.3L79.68 60.54L81.36 60.9L83.16 61.5L84.12 61.98L85.2 62.58L86.22 63.36L87 64.08L87.6 64.62L88.32 65.34L88.62 65.76V65.94H88.5V66.06L88.32 66.12L87.06 66.18L86.22 66.36L84.78 66.42H76.2L75.06 66.54H74.4L73.26 66.36L72 66.12L70.08 66.06H69L68.88 66.42L68.64 66.6L68.7 66.3L69.06 65.82L74.7 65.76H88.32V65.58L88.08 65.46L86.76 64.14V64.02L86.52 63.9L85.8 63.24L84.78 62.52L83.52 61.86L81.6 61.2L79.86 60.78L78.6 60.6L77.76 60.54L77.58 60.48L77.64 60.3L78.12 60Z" fill="#FBFBFB"/>
<path d="M72.48 53.7L72.78 53.76L73.38 54.24L73.92 54.96L74.34 55.8L74.52 56.52V57.42L74.4 58.02L74.1 58.56L73.8 58.86L73.44 59.1L73.08 59.22H72.3L71.58 58.98L70.92 58.56L70.74 58.44V58.32L70.5 58.2L70.14 57.78L69.96 57.36H70.08L70.38 57.66L70.62 57.78L70.08 57.06L69.9 56.46L70.02 56.34L70.08 55.56H70.2L70.44 56.28L70.8 56.76L71.28 57.18L71.7 57.36H72.36L72.72 57.18L73.02 56.7L73.08 56.52V55.98L72.84 55.2L72.36 54.42L72.42 53.82L72.48 53.7Z" fill="#788797"/>
<path d="M57.84 33.96L58.44 34.08L58.68 34.38L58.8 34.74L59.76 35.22H60.18L61.08 34.8L61.26 34.68L61.32 34.26L61.68 34.02L62.1 33.96L62.52 34.14L62.82 34.38L62.88 34.86L62.58 35.1L62.46 35.16L61.92 35.1H61.38L60.66 35.46L60.72 35.64L61.68 36.06L62.22 35.94H62.76L63.24 36.24L63.6 36.72V37.38L63.3 37.68L62.7 37.8L62.1 37.56L61.68 37.02L61.56 36.54L61.26 36.3L60.18 35.82H59.76L58.56 36.42L58.44 36.54L58.2 37.2L57.78 37.62L57.3 37.8L56.76 37.74L56.4 37.44L56.28 36.96L56.46 36.54L56.88 36.12L57.36 35.94H57.78L58.08 36.06L58.5 36L59.34 35.58H59.46L59.34 35.4L58.74 35.16L58.68 35.1H58.14L57.6 35.22L57.18 34.98L57.12 34.92V34.5L57.42 34.14L57.84 33.96Z" fill="#7A8795"/>
<path d="M71.22 78.9H71.46L71.76 80.28L72.18 82.86L72.54 85.08L72.66 85.56V85.86L72.24 86.04L71.82 86.16H71.34L71.1 85.56L70.44 81.6L70.26 80.58L70.08 79.74V79.2L70.2 79.08L71.22 78.9Z" fill="#938584"/>
<path d="M53.52 79.3199H54.06L54.78 79.4399L54.84 79.4999V80.1599L54.42 83.7599L54.12 86.0999L53.94 86.5199H53.34L52.68 86.3999L52.62 86.3399V85.7399L52.8 84.4799L53.04 82.3799L53.28 80.3999L53.46 79.4399L53.52 79.3199Z" fill="#938584"/>
<path d="M52.02 44.76H52.44L53.22 45.3L53.58 45.54L53.46 45.6H53.04L52.44 45.84L51.84 46.26L51.3 46.74L50.7 47.58L50.1 48.66L49.26 50.4L48.84 51.48L48.78 51.78V53.28L48.84 53.64L48.96 52.86L49.14 52.92L49.26 53.82V54.12H49.38V53.64L49.62 53.88L49.74 54.18L49.92 54.3L50.22 54.18L51 54.42L51.48 54.54L51.36 54.66H51L50.64 54.54L50.58 54.66H50.28V54.54H50.16V54.66L49.92 54.78L49.86 54.9L49.5 54.84L49.32 54.42L49.2 54.36L49.14 54.66H49.02V54.24L48.78 54.18L48.66 53.64L48.6 52.98V51.66L48.66 49.2L48.84 48.24L49.14 47.46L49.38 46.98L49.74 46.44L50.28 45.84L50.88 45.36L51.72 44.88L52.02 44.76Z" fill="#768798"/>
<path d="M82.26 83.52H82.62L82.74 83.82L84 83.64L84.24 83.94L84.6 84.9L85.5 87.48L85.44 87.6L85.2 87.3L85.08 86.88L84.9 86.46L84.6 85.5L84.18 84.24L84 83.82L83.7 83.88L81.96 84.42L80.34 84.96L80.1 85.08V85.44L80.94 87.9L81.3 88.92L81.48 89.04L81.18 88.98L81.06 88.8V88.62L80.1 88.86L79.8 88.8L79.44 87.96L78.84 86.28L78.48 85.02V84.72L79.44 84.48L80.1 84.24L81.18 83.88L81.66 83.76H81.84L82.26 83.52Z" fill="#958989"/>
<path d="M37.56 74.88L38.04 74.94L39 75.36L40.68 76.08L41.34 76.32L41.58 76.5L40.98 76.38L40.74 76.32V76.5L40.38 76.44L39.96 76.26L39.6 76.08L38.82 75.72L37.86 75.36L37.5 75.18L37.44 75.42L37.08 76.2L36.54 77.64L37.92 77.88L38.88 78.24L40.38 78.9L41.52 79.44L41.7 79.56V79.86L41.64 79.68L41.34 79.62L39.54 78.84L38.04 78.18L37.74 78.06L37.62 78.42L37.2 79.26L36.54 80.82L36.06 81.84L35.64 81.78L34.98 81.48L34.74 81.3L34.8 81L35.4 79.68L36.12 78L36.78 76.5L37.38 75.12L37.56 74.88Z" fill="#928584"/>
<path d="M59.58 86.7H63.72L64.62 86.76L64.8 86.82L64.74 87L63.66 87.06L63.36 87L60.84 87.06L60.54 87.12L60.6 90.72L60.72 91.26L63.42 91.2H64.74V91.26L62.94 91.38H60.6L60.42 91.26L59.34 91.2L59.16 91.08L59.1 90.9L58.98 88.44V86.88L59.04 86.76L59.58 86.7Z" fill="#918686"/>
<path d="M72.48 45.36H72.96L74.34 45.9L74.88 46.02L75.66 46.08L75.72 46.26L75.24 47.1L74.76 47.76L74.28 48.24L73.74 48.48H72.66L71.82 48.24L71.7 47.7L71.76 47.4L72 47.34L72.6 47.28L73.2 46.98L73.38 46.92L73.44 46.74L72.84 46.62L71.64 46.32L71.46 46.08V45.66L71.64 45.54L72.48 45.36Z" fill="#F6EE0D"/>
<path d="M60 51.54L60.3 51.84L60.9 52.56L61.44 53.46L61.8 54.24L62.1 55.38L62.22 56.1L62.16 56.7L61.86 57.18L61.5 57.48L61.2 57.6L60.66 57.54L60.18 57.24L59.76 56.88L59.22 57.42L58.8 57.6L58.38 57.54L57.96 57.3L57.54 56.82L57.42 56.46L57.48 55.56L57.78 54.36L58.2 53.4L58.56 52.92L58.74 52.62L59.16 52.08L59.22 52.2L58.62 53.22L58.14 54.42L57.84 55.38L57.72 55.56L57.78 55.86L58.08 56.46L58.32 56.7L58.62 56.64L59.04 56.16L59.28 55.8L59.34 55.2L59.46 55.14L59.82 55.32L60.06 55.2L60.24 55.14L60.3 55.56L60.42 55.92L60.96 56.58L61.08 56.7L61.32 56.76L61.44 56.52L61.68 56.22L61.86 55.86V55.44L61.38 54.24L61.08 53.34L60.84 52.92L60.66 52.62V52.44L60.48 52.38L60.06 51.72L60 51.54Z" fill="#778797"/>
<path d="M40.62 83.9399H41.16L42 84.0599L42.9 84.1799L45.06 84.7799L46.2 85.0799L46.26 85.3199L45.54 85.1399L43.92 84.7199L42.36 84.2999H42.12L41.88 84.8999L41.16 87.5999L41.1 87.8999V88.3199L42.12 88.6799L41.94 88.7399L40.68 88.4399L39.72 88.1999L39.54 88.0799L39.6 87.4799L40.32 84.5399L40.62 83.9399Z" fill="#918585"/>
<path d="M89.64 80.4H89.94L90.18 80.76L90.54 80.7L90.84 80.64L90.6 80.82L89.16 81.48L87.54 82.26L87.48 82.5L88.26 84.12L88.92 85.5L89.04 85.68L88.98 85.92L88.8 85.74L88.74 85.86H88.62V85.74L88.2 85.92L87.96 86.04L87.6 85.74L86.58 83.7L86.34 82.92L86.1 82.38L86.16 82.08L87.12 81.6L88.62 80.88L89.64 80.4Z" fill="#918586"/>
<path d="M55.02 67.6801L55.44 67.7401L56.34 68.5201L56.76 68.8201L56.94 68.8801H57.36L57.54 68.8201V68.1601L57.78 68.1001L58.74 68.5201L59.76 68.8201L60 69.0601L60.36 69.7201L60.42 69.9601L59.1 70.0801L58.08 70.3801H57.48L56.82 70.2601L56.22 69.9601L55.8 69.4801L55.5 69.0001L55.44 68.8201L55.26 68.7601L54.84 68.2801L54.72 68.1601L54.78 67.8601L55.02 67.6801Z" fill="#FEFEFE"/>
<path d="M51.78 46.86L51.9 46.92L51.48 47.34L51.54 47.58L51.84 47.94L52.02 48.36V49.14L51.78 49.5L51.48 49.8L50.88 49.98H50.7L50.94 50.34L52.02 51.12L52.86 51.6L53.64 51.9H55.02L56.52 51.48L56.88 51.36L56.82 51.6L56.1 51.96L55.32 52.2L54.66 52.32L54.84 52.5L55.2 52.56H55.74L56.46 52.38L56.82 52.32V52.2L57.54 51.72L57.72 51.54L57.84 51.6L57.3 52.2L56.64 52.62L56.1 52.86H56.34L56.94 52.68L57.54 52.32L58.02 51.9L58.14 51.66H58.26L58.44 51L58.92 49.62L58.98 49.5V48.42L58.8 48.3L59.1 48.36L59.16 49.02V49.86L58.92 51.12L58.68 51.72L58.2 52.38L57.78 52.74L57 53.1L56.58 53.22H55.44L54.6 53.04L53.82 52.74L53.34 52.5V52.38L53.7 52.32L53.64 52.14L52.56 51.78L51.6 51.24L50.94 50.7L50.58 50.16L50.64 49.92L51.06 49.68H51.18L51.3 49.44L51.48 49.02V48.12L51.42 47.64L51.36 47.58V47.28L51.78 46.86Z" fill="#7D8A98"/>
<path d="M63.72 44.34H65.4L65.82 44.46V44.88L65.64 45.6L65.46 45.84L64.56 45.9L63.42 46.2L63.18 46.32H62.82L62.22 45.84L61.2 45.12L60.9 44.88V44.64L62.1 44.46L63.72 44.34Z" fill="#FEFEFE"/>
<path d="M32.88 62.1H33.42L33.72 62.22L33.66 62.7L33.48 63.3V64.38L33.6 64.86V65.22L33.42 65.28L33.3 65.22V65.1H33.12V65.34L32.88 65.4L32.64 65.28L32.52 64.68H32.4V65.22L32.28 65.28L31.86 64.92L31.74 64.5L31.5 64.38L31.32 63.84V63.42L31.56 62.88L31.68 62.64L32.1 62.34L32.58 62.16L32.88 62.1Z" fill="#FAFAFA"/>
<path d="M57.42 66H59.82L59.94 66.06L60 66.78L60.18 66.72L60.42 66.06L60.48 66H62.52L62.64 66.06V66.48L62.34 66.78L61.86 67.02L60.96 67.26L60.12 67.38H59.64L58.62 67.2L57.72 66.84L57.42 66.6L57.36 66.48V66.06L57.42 66Z" fill="#EAE9E9"/>
<path d="M66.54 46.74L66.78 46.86L67.02 47.46L67.2 48.12L67.26 48.6V49.44L67.08 50.28L66.66 51.24L66.06 52.02L65.52 52.56L65.28 52.62L65.34 52.2L65.7 51.48L66 50.34L66.36 48.6L66.48 47.82L66.54 46.74Z" fill="#F3EA11"/>
<path d="M52.26 56.58H53.64L54.6 56.7V56.76H52.14L51.96 57.3L51.9 57.66V58.26L52.08 59.1L52.44 60.06L52.56 60.54L53.58 60.48L53.46 59.88L53.52 59.58L53.82 59.88L53.88 60.18L53.7 60V60.18L53.76 60.54L53.58 60.66H52.5L52.14 60.48L51.84 59.7L51.72 59.46L51.54 59.4V60L51.6 60.54H51.36L51.3 60.3L51.24 59.22V57.72L51.06 57.78L50.88 58.2L50.82 58.74V60L50.88 60.48L50.82 60.6L50.58 60.48L50.46 60.12V58.2L50.7 57.54L51.18 57L51.54 56.82L52.26 56.58Z" fill="#798796"/>
<path d="M45.72 64.5601L45.78 64.6801L45.72 64.8001L85.44 64.7401L85.56 64.6201L85.68 64.8601L85.56 64.9201H45.78L45.6 64.8601L45.72 64.5601Z" fill="#928584"/>
<path d="M50.04 74.34H50.76L54.06 74.7L56.64 75.06L58.14 75.36L58.86 75.78L59.16 76.14L59.1 76.26L58.92 76.08V75.96L58.68 75.84L58.32 75.6L57.78 75.42L56.34 75.18L54.24 74.94L51.66 74.64L50.1 74.58L49.2 74.82L48.42 75.54L48.12 76.32L47.64 80.34L47.52 81.24L47.34 82.8L47.16 84.48L47.04 85.26L46.8 87.06L46.74 88.32L46.8 88.92L46.68 88.8L46.5 88.14V87.66L46.62 87.06L46.86 84.66L47.46 79.92L47.88 76.62L48.12 75.72L48.48 75.12L49.02 74.64L49.68 74.4L50.04 74.34Z" fill="#FEFEFE"/>
<path d="M71.16 73.92H72.54L73.86 74.1L74.4 74.4L74.28 74.46L73.62 74.22L72.18 74.16H71.28L69.36 74.46L66.06 75L65.22 75.24L64.68 75.66L64.32 76.08L64.08 76.62V77.58L64.32 79.26L64.5 80.04L64.62 81.12L64.74 81.72L64.98 82.98L65.46 86.04L65.7 87.42L65.94 88.86L66.24 89.64L66.18 89.76L65.94 89.28L65.7 88.38L65.22 85.68L64.38 80.64L63.96 78.06L63.9 77.52V76.74L64.14 76.08L64.5 75.6L64.98 75.18L65.52 74.94L67.26 74.58L69.06 74.28L71.16 73.92Z" fill="#FEFEFE"/>
<path d="M59.04 35.8199L59.22 35.8799L58.98 36.1199L58.5 36.3599L58.38 36.4799L58.26 37.0799L57.84 37.5599L57.54 37.7399L57 37.7999L56.58 37.6199L56.34 37.3199L56.28 36.9599L56.46 36.5399L56.88 36.1199L57.36 35.9399H57.78L58.08 36.0599L58.5 35.9999L59.04 35.8199Z" fill="#798796"/>
<path d="M54.9 48.48L55.32 48.54L55.74 48.78L55.92 49.08V49.74L55.56 50.22L55.2 50.4L54.9 50.46L54.48 50.34L54.18 50.04L54 49.74V49.2L54.12 48.96H54.24L54.3 48.72L54.66 48.54L54.9 48.48Z" fill="#F2F1F1"/>
<path d="M59.16 76.26L59.34 76.44L59.58 77.04V78.42L59.22 81.54L58.8 85.26L58.32 88.32L58.14 89.52L57.9 90.06L57.84 89.88L57.96 89.52L58.08 88.8L58.2 87.72L58.5 85.08L58.86 82.08L59.1 80.04L59.22 79.38L59.34 78.06L59.4 77.34L59.22 76.68L59.16 76.62V76.26Z" fill="#8E8587"/>
<path d="M67.14 44.58L67.74 44.7L68.46 44.94L69.12 45.36L69.9 46.14V46.38L69.78 46.44H68.94L68.22 46.26L67.74 45.96L67.38 45.42L67.14 44.94L67.08 44.64L67.14 44.58Z" fill="#FAFAFA"/>
<path d="M88.32 65.76L88.44 65.82V66.06L85.38 66.12H69.24L69.06 66.18L68.82 66.66L68.64 66.78L68.7 66.48L69.06 66L74.7 65.94H88.32V65.76Z" fill="#8C8588"/>
<path d="M37.56 74.88L38.04 74.94L39 75.36L40.68 76.08L41.34 76.32L41.58 76.5L40.98 76.38L40.74 76.32V76.5L40.38 76.44L39.96 76.26L39.6 76.08L38.82 75.72L37.86 75.36L37.5 75.18L37.44 75.42L37.08 76.2L36.54 77.64L37.92 77.88L38.88 78.24L40.38 78.9L41.4 79.38L41.22 79.44L39.18 78.54L37.8 78L37.62 78.24L37.08 78.18L36.36 77.82L36.48 77.22L36.84 76.32L37.26 75.42L37.5 74.94L37.56 74.88Z" fill="#9C9496"/>
<path d="M60.9 60.96L61.26 61.02L61.56 61.32L61.8 61.74V61.86H61.92L62.04 62.16V62.64L61.5 62.82L61.08 62.94H60.54V61.56L60.78 61.02L60.9 60.96Z" fill="#FCFCFC"/>
<path d="M58.98 61.02H59.34L59.7 61.56L59.88 62.16L59.94 62.82L59.88 62.88L59.1 62.82L58.56 62.7L58.44 62.64V61.92L58.68 61.26L58.98 61.02Z" fill="#FEFEFE"/>
<path d="M38.7 57.9L38.94 58.08V58.26L37.68 58.5L36.54 58.8L35.82 59.1L34.98 59.58L34.2 60.12L33.6 60.54L33.12 60.9L32.16 61.14L31.5 61.44L31.02 61.8L30.6 62.28L30.36 62.88L30.24 63.48V63.9L30.48 64.86L30.72 65.28L30.66 65.4L30.3 64.8L30.12 64.26L30.06 63.54L30.18 62.76L30.48 62.16L31.02 61.56L31.62 61.14L32.4 60.84L33 60.66L33.84 60.12L34.86 59.4L35.82 58.86L36.78 58.5L38.1 58.14L38.7 58.02V57.9Z" fill="#A6A1A4"/>
<path d="M85.38 68.76H85.74L85.98 69L86.88 70.8L87.66 72.48L89.94 77.28L90.72 78.9L90.78 79.26L90.54 79.38L90.36 79.32L90.48 79.02L90.18 78.3L89.58 76.98L89.1 76.02L88.14 73.98L87.36 72.36L87.12 71.82L86.64 70.86L85.98 69.42L85.74 68.94L85.32 68.88L85.38 68.76Z" fill="#CFCACA"/>
<path d="M49.08 47.58L49.14 47.76L48.9 48.54L48.78 49.38V53.28L48.84 53.64L48.96 52.86L49.14 52.92L49.26 53.82V54.12H49.38V53.64L49.62 53.88L49.74 54.18L49.92 54.3L50.22 54.18L51 54.42L51.48 54.54L51.36 54.66H51L50.64 54.54L50.58 54.66H50.28V54.54H50.16V54.66L49.92 54.78L49.86 54.9L49.5 54.84L49.32 54.42L49.2 54.36L49.14 54.66H49.02V54.24L48.78 54.18L48.66 53.64L48.6 52.98V51.66L48.66 49.2L48.84 48.24L49.08 47.58Z" fill="#8E8384"/>
<path d="M47.88 61.86H54.18L54.36 61.98L54.3 62.22L48.78 62.16L48.06 62.1L47.88 62.04V61.86Z" fill="#FEFEFE"/>
<path d="M64.8 60L64.98 60.54L65.1 61.26L65.52 60.9L65.88 60.42L65.94 60.54L65.82 60.78L65.7 61.38L65.34 61.92L65.1 62.1L64.56 62.04L64.44 61.74L64.26 60.84L63.96 60.72V61.08H63.9L63.78 60.6L64.02 60.66L64.14 60.42L64.5 60.24L64.8 60Z" fill="#7A8795"/>
<path d="M88.02 36.72L88.5 37.08L89.52 38.1L89.94 38.7L90.36 39.54L90.6 40.44L90.78 41.7V42.24L90.6 43.68L90.18 45.36L89.7 46.68L88.92 48.36L88.02 50.04L87.96 49.86L88.62 48.66L89.1 47.7L89.28 47.1L89.52 46.56L89.7 46.02L89.94 45.48L90.24 44.4L90.42 43.68L90.54 42.66V41.52L90.42 40.44L90.3 40.2L90.12 39.48L89.64 38.52L89.04 37.86L88.62 37.38L88.02 36.84V36.72Z" fill="#C1BAB9"/>
<path d="M75.18 75.42L75.3 75.48L75.66 76.74L75.84 77.82L76.14 79.32L76.32 80.76L77.22 86.1L77.4 87.42L77.34 88.2H77.28V87.66L77.16 86.88L77.04 86.28L76.92 85.38L76.74 84.54L76.32 81.96L75.96 79.74L75.6 77.64L75.36 76.26L75.18 75.42Z" fill="#AAA3A4"/>
<path d="M66.42 61.6801L77.1 61.7401L78.9 61.8601L80.28 62.1001L81.48 62.4001L82.56 62.7601L82.68 62.8801L82.26 62.8201L81.12 62.4601L79.44 62.1001L78.06 61.9801L77.28 61.9201L68.16 61.8601L66.72 61.8001L66.42 61.7401V61.6801Z" fill="#88868B"/>
<path d="M71.94 48.84L72.54 49.08L73.32 49.32L73.8 49.44L73.86 49.62L73.62 49.92L73.14 50.16L72.6 50.28H72.18L72.06 50.04L71.88 48.9L71.94 48.84Z" fill="#F0E813"/>
<path d="M57.84 33.96L58.44 34.08L58.56 34.2L58.68 34.74L59.16 35.04L59.46 35.22L59.28 35.28L58.74 35.16L58.68 35.1H58.14L57.6 35.22L57.18 34.98L57.12 34.92V34.5L57.42 34.14L57.84 33.96Z" fill="#778798"/>
<path d="M44.82 66H50.88L51.12 66.24L51.18 66.48L50.88 66.18H44.82L44.7 66.66V67.38L44.88 67.98L45.72 69.06L45.84 69.42L45.54 69.48V69.3L44.82 68.34L44.46 67.74L44.4 67.56V66.84L44.7 66.18L44.82 66Z" fill="#919197"/>
<path d="M78.12 60L78.24 60.06L78 60.3L79.68 60.54L81.36 60.9L83.16 61.5L84.12 61.98L85.2 62.58L86.22 63.36L86.76 63.96H86.58L85.8 63.24L84.78 62.52L83.52 61.86L81.6 61.2L79.86 60.78L78.6 60.6L77.76 60.54L77.58 60.48L77.64 60.3L78.12 60Z" fill="#90898B"/>
<path d="M51.78 63.36L51.96 63.42H51.84V63.54H60.72L67.08 63.48L66.96 63.36L67.32 63.42V63.6L66.78 63.66H51.96L51.54 63.54L51.78 63.36Z" fill="#87868C"/>
<path d="M76.74 71.58H76.98V71.7L74.58 72.48L74.46 72.6L75.18 74.76L75.9 76.86L77.04 80.28L76.98 80.46L76.26 78.42L75.66 76.62L75.54 76.68L75.3 75.66L75.24 75.48L75 75.24L74.64 74.76L74.28 74.52L74.46 74.4L75 74.94L75.12 75L74.88 74.34L74.52 73.44L74.34 72.66L74.4 72.36L75.06 72.12L76.74 71.58Z" fill="#FEFEFE"/>
<path d="M78.36 35.52L78.72 35.82V35.94L78.96 36.06L79.5 36.54L80.28 36.9L80.52 36.96L81.72 37.02L82.32 36.84L82.8 36.48L83.34 35.94L83.82 35.64L84.24 35.52H85.38L86.34 35.7L87.06 36L87.78 36.48L88.02 36.72L87.78 36.66L87 36.18L86.46 35.94L85.38 35.7L84.06 35.76L83.58 35.94L82.98 36.48L82.56 36.96L82.02 37.2H81L80.04 37.02L79.68 36.84V36.72L79.38 36.66L78.66 36L78.36 35.64V35.52Z" fill="#AFA8A9"/>
<path d="M61.86 33.96L62.34 34.02L62.82 34.38L62.88 34.86L62.7 35.04L62.16 35.1L61.44 34.98L61.14 35.1H60.9L60.96 34.92L61.38 34.8V34.32L61.68 34.02L61.86 33.96Z" fill="#768798"/>
<path d="M63.06 60.72L63.36 60.9L63.6 61.32L63.78 61.86V62.16L63.48 62.4L63.12 62.58L62.88 62.52L62.76 62.22L62.7 61.44L62.88 60.84L63.06 60.72Z" fill="#FEFEFE"/>
<path d="M36.9 69.72L37.5 69.84L39.24 70.56L41.52 71.58L43.08 72.24L43.92 72.66L43.98 72.9L43.86 73.02L43.8 72.78L42.84 72.42L42.12 72.06L40.44 71.34L39.36 70.86L37.2 69.96L37.02 69.9V69.78L36.9 69.72Z" fill="#C7C3C4"/>
<path d="M79.68 71.4H79.98L80.22 71.94L82.44 78.6V78.72H82.56L83.46 81.48L83.58 81.96V82.32H83.52L83.28 81.54L82.44 78.96L81.6 76.5L80.82 74.22L80.04 71.82L79.92 71.52L79.32 71.58L79.5 71.46L79.68 71.4Z" fill="#8D8587"/>
<path d="M51.78 46.86L51.9 46.92L51.48 47.34L51.54 47.58L51.84 47.94L52.02 48.36V49.14L51.78 49.5L51.48 49.8L50.88 49.98H50.7L50.94 50.4L50.7 50.34L50.58 50.16L50.64 49.92L51.06 49.68H51.18L51.3 49.44L51.48 49.02V48.12L51.42 47.64L51.36 47.58V47.28L51.78 46.86Z" fill="#798492"/>
<path d="M59.58 86.7H63.72L64.62 86.76V86.82L64.02 86.88H63.6L63.3 86.82H59.16L59.22 91.08L59.1 90.9L58.98 88.44V86.88L59.04 86.76L59.58 86.7Z" fill="#FEFEFE"/>
<path d="M41.58 79.92L41.64 80.1L41.1 81.54L40.5 82.92L39.96 84.06L39.3 85.62L38.88 86.22L38.64 86.46L38.52 86.4L39 85.86L39.36 85.02L39.72 84.24L40.38 82.56L41.16 80.82L41.58 79.92Z" fill="#B1ACAE"/>
<path d="M40.26 57.24L41.04 57.3L41.58 57.48L42.18 57.66L42.42 57.78H42.66L42.48 57.54L42.78 57.66L43.26 58.02L43.32 58.26L42.9 58.08L42.66 57.96H42.3L42.06 57.78L41.88 57.72L41.82 58.02L41.46 57.9L40.92 57.84V57.72L40.62 57.66V57.84L40.32 57.72L40.08 57.48L40.38 57.6L40.26 57.24Z" fill="#938584"/>
<path d="M69 74.46H69.36V74.52L68.46 74.7L67.08 74.94L66.42 75L65.34 75.36L64.98 75.54L64.44 76.08L64.2 76.56V77.88L64.38 78.9L64.5 79.56V80.04L64.38 79.8L64.2 78.84L64.02 77.58V76.62L64.38 75.9L64.86 75.42L65.4 75.12L66.24 74.88L68.34 74.58L69 74.46Z" fill="#768899"/>
<path d="M59.52 77.8199H59.58V78.4199L59.22 81.5399L58.8 85.2599L58.5 87.1199H58.44V86.5199L59.1 81.2399L59.34 79.2599L59.52 77.8199Z" fill="#FEFEFE"/>
<path d="M36.6 77.1L36.66 77.28L36.54 77.64L37.92 77.88L38.88 78.24L40.38 78.9L41.4 79.38L41.22 79.44L39.18 78.54L37.8 78L37.62 78.24L37.08 78.18L36.36 77.82L36.48 77.22H36.6V77.1Z" fill="#FCFCFC"/>
<path d="M55.32 20.04L55.98 20.1L56.34 20.28L56.46 20.52L56.1 20.28L55.56 20.22L54.54 20.28L53.7 20.46L52.56 20.82L51.6 21.18L50.58 21.72L50.04 22.02L49.92 22.14L49.74 22.08L50.64 21.48L52.02 20.76L53.58 20.28L54.54 20.1L55.32 20.04Z" fill="#BBB6B8"/>
<path d="M32.88 62.1H33.42L33.72 62.22L33.66 62.7L33.48 63.3V64.38L33.6 64.86V65.22L33.42 65.28L33.3 65.22V65.1H33.12V65.34L32.88 65.4L32.64 65.28L32.52 64.68H32.4V65.22L32.28 65.28L32.1 65.1L32.34 65.16L32.28 64.2L32.46 64.02L32.7 64.98L32.88 65.22L32.82 64.44H33L33.18 64.8V64.92H33.3L33.54 65.16L33.36 64.5V63.24L33.54 62.58V62.28H32.64L32.28 62.34L32.34 62.22L32.88 62.1Z" fill="#8C8588"/>
<path d="M70.08 55.5601H70.2L70.44 56.2801L70.98 57.0001L70.74 56.8801H70.56L70.38 56.9401V57.2401L70.8 57.7201V57.8401H70.92V58.0201L70.62 57.9601L70.5 57.9001L70.44 58.1401L70.14 57.7801L69.96 57.3601H70.08L70.38 57.6601L70.62 57.7801L70.08 57.0601L69.9 56.4601L70.02 56.3401L70.08 55.5601Z" fill="#918382"/>
<path d="M52.08 74.64L53.28 74.76L55.68 75.06L56.58 75.18L57.78 75.36L58.44 75.6L58.92 75.96L59.16 76.26L59.1 76.44L58.86 76.14V76.02L58.62 75.9L57.96 75.6L57.54 75.48L56.46 75.36L55.68 75.24L53.16 74.94L52.26 74.82V74.7L52.08 74.64Z" fill="#8E8587"/>
<path d="M38.7 57.9L38.94 58.08V58.26L37.68 58.5L36.54 58.8L35.82 59.1L34.98 59.58L34.2 60.12L34.08 60.06L34.38 59.82L34.68 59.52L35.82 58.86L36.78 58.5L38.1 58.14L38.7 58.02V57.9Z" fill="#C5C0C1"/>
<path d="M40.62 83.9399H41.16L42 84.0599L42.6 84.1199V84.1799L41.76 84.2399L40.68 84.0599L40.56 84.5999L39.9 86.9999L39.66 88.0799H39.54L39.6 87.4799L40.32 84.5399L40.62 83.9399Z" fill="#FBFBFB"/>
<path d="M64.14 20.04H64.92L66.18 20.22L67.44 20.58L68.4 21L69.48 21.6L69.9 21.9H69.72L68.52 21.24L67.8 20.88L66.78 20.58L65.46 20.28L64.92 20.22H64.14L63.78 20.4H63.66V20.52H63.54L63.66 20.28L63.9 20.1L64.14 20.04Z" fill="#BCB7B8"/>
<path d="M75.36 38.34L75.6 38.64L75.9 39.06V39.18L76.14 39.3L76.44 39.66L76.92 40.02V40.14L77.22 40.26L77.82 40.68L78.54 40.98V41.1L77.94 40.98L77.28 40.62L76.62 40.14L75.72 39.24L75.3 38.7L75.24 38.52H75.36V38.34Z" fill="#928382"/>
<path d="M55.8 66H56.76L56.94 66.3V66.72L56.76 66.96H56.46L55.86 66.36L55.8 66Z" fill="#EDECEC"/>
<path d="M63.24 66H64.14L64.2 66.18L63.66 66.84L63.54 66.96H63.24L63.06 66.66V66.24L63.12 66.06L63.24 66Z" fill="#EAE9E9"/>
<path d="M57.42 60L57.72 60.06L58.14 60.54V60.9L57.96 61.14L57.78 62.4L57.72 62.46L57.24 62.4V62.34H57.72L57.78 61.02L57.54 60.6L57.3 60.48L56.94 60.54H56.46V60.48L57.06 60.36L57.3 60.3L57.36 60.06L57.42 60Z" fill="#7F8792"/>
<path d="M32.1 36.54L32.22 36.6L31.32 37.44L30.66 38.1L30.36 38.52L30.18 38.82L29.82 39.54L29.52 40.5L29.4 41.64L29.46 43.14L29.34 43.08L29.28 42.72V41.16L29.52 39.9L29.82 39.18L30.18 38.52L30.66 37.92L31.2 37.32L31.86 36.72L32.1 36.54Z" fill="#AEA4A4"/>
<path d="M91.08 80.46L91.38 80.52L91.62 80.76L92.46 82.56L93.12 84.06V84.36L93 84.3L92.88 83.82L92.76 83.76L92.28 82.68L91.8 81.72L91.26 80.58H90.96L91.08 80.46Z" fill="#FEFEFE"/>
<path d="M54.54 67.98L54.96 68.34L55.32 68.76L55.62 69.06L56.04 69.72L56.28 69.96L57.06 70.26L57.48 70.32H58.08L59.1 70.02L60.6 69.96L60.66 70.08L58.98 70.2L58.08 70.5H57.36L56.58 70.26L56.1 69.96L55.68 69.48L55.38 69L54.9 68.46L54.6 68.16L54.54 67.98Z" fill="#8E8587"/>
<path d="M76.5 82.74H76.62L76.86 83.94L77.34 86.88L77.4 87.84L77.34 88.2H77.28V87.66L77.16 86.88L77.04 86.28L76.92 85.38L76.74 84.54L76.5 82.98V82.74Z" fill="#A89F9F"/>
<path d="M41.34 35.76V35.94L41.04 36.3L40.2 36.9L39.6 37.14L39.24 37.2H38.04L37.5 36.96L37.02 36.54L36.6 36.06H36.78L37.5 36.78L38.1 37.02H39.06L40.02 36.78L40.68 36.36L41.34 35.76Z" fill="#AFAAAB"/>
<path d="M49.56 22.2H49.68V22.32L49.08 22.8L48.6 23.22L48.3 23.58H48.12L48 23.88L47.58 24.3L46.62 25.62L46.38 26.04L46.26 26.34L45.9 26.94L45.78 27.06L45.84 26.76L46.44 25.62L47.16 24.6L47.82 23.82L48.12 23.46H48.24L48.36 23.22L48.84 22.8L49.56 22.2Z" fill="#9E9393"/>
<path d="M66.96 63.36L67.32 63.42V63.6L66.78 63.66H59.64V63.6L60.72 63.54L67.08 63.48L66.96 63.36Z" fill="#8B8589"/>
<path d="M42.6 84.1801L43.14 84.2401L45.06 84.7801L46.2 85.0801L46.26 85.3201L45.54 85.1401L43.92 84.7201L43.02 84.4801L42.96 84.3001L42.6 84.2401V84.1801Z" fill="#A7A1A3"/>
<path d="M83.88 83.64L84.12 83.76L84.42 84.36L85.38 87.18L85.5 87.6L85.2 87.3L85.08 86.88L84.9 86.46L84.6 85.5L84.18 84.24L84 83.82L83.52 83.88L83.34 83.76L83.88 83.64Z" fill="#A89E9E"/>
<path d="M53.1 44.46H53.64L54 44.76L55.02 45.42L54.9 45.48L54.66 45.36H54L53.88 45.54L53.76 45.12L53.52 45L53.04 44.58L53.1 44.46Z" fill="#808691"/>
<path d="M61.98 25.38L62.04 25.5L61.68 26.04L61.44 26.34L60.9 26.64H59.28L58.8 26.46L58.14 25.86L58.2 25.74L58.62 26.1L59.1 26.34L59.76 26.46H60.54L61.2 26.22L61.68 25.8L61.98 25.38Z" fill="#B3AFB2"/>
<path d="M82.14 61.38L82.68 61.5L83.7 61.92L84.9 62.58L85.68 63.12L86.28 63.6L86.76 64.14H86.58L85.8 63.42L84.78 62.7L83.52 62.04L83.16 61.92L83.1 61.8L82.14 61.44V61.38Z" fill="#B8B4B7"/>
<path d="M64.92 44.16L65.82 44.22L66 44.34L65.94 44.4H63.72L62.1 44.52L60.78 44.7L60.66 44.58L62.22 44.34L63.42 44.22L64.92 44.16Z" fill="#8D8588"/>
<path d="M34.74 35.52H35.64L36.18 35.64L36.6 35.94L36.48 36L35.94 35.76L34.62 35.7L33.66 35.94L32.94 36.18L32.34 36.54L32.22 36.48L32.82 36.06L33.54 35.76L34.26 35.58L34.74 35.52Z" fill="#BAB4B4"/>
<path d="M34.44 66H39.72V66.06L38.88 66.12L34.26 66.18L34.44 66Z" fill="#B4ADAE"/>
<path d="M78.36 35.52L78.72 35.82V35.94L78.96 36.06L79.5 36.54L80.28 36.9L80.52 36.96L81.72 37.02H82.2V37.14L81.84 37.2H81L80.04 37.02L79.68 36.84V36.72L79.38 36.66L78.66 36L78.36 35.64V35.52Z" fill="#AFA6A6"/>
<path d="M61.44 34.14L61.56 34.2L61.44 34.32L61.38 34.8L60.96 34.98L60.9 35.1L61.44 34.92L62.4 35.04L62.58 35.1L62.46 35.16L61.92 35.1H61.38L60.84 35.28V35.16L60.3 35.28L60.12 35.4H59.76L59.4 35.22L58.74 34.86L58.56 34.62V34.26L58.68 34.38L58.8 34.74L59.76 35.22H60.18L61.08 34.8L61.26 34.68L61.32 34.26L61.44 34.14Z" fill="#938584"/>
<path d="M43.8 73.02L43.86 73.26L43.08 75.06L42.54 76.38L42.3 76.74L42.06 76.68H42.18V76.56H42.3L42.42 76.2L42.72 75.36H42.84L42.9 75L43.32 74.1L43.56 73.5L43.8 73.02Z" fill="#B4ACAC"/>
<path d="M89.88 45.72H89.94V46.08L89.34 47.46L88.62 48.96L88.02 50.04L87.96 49.86L88.62 48.66L89.1 47.7L89.28 47.1L89.52 46.56L89.7 46.02L89.88 45.72Z" fill="#A9A6A9"/>
<path d="M41.16 71.52L41.52 71.58L43.08 72.24L43.92 72.66L43.98 72.9L43.86 73.02L43.8 72.78L42.84 72.42L42.12 72.06L41.16 71.64V71.52Z" fill="#B8B3B4"/>
<path d="M82.32 78.6H82.44V78.72H82.56L83.46 81.48L83.58 81.96V82.32H83.52L83.28 81.54L82.44 78.96L82.32 78.6Z" fill="#C1BCBC"/>
<path d="M34.32 59.76L34.44 59.82L34.14 60.06L33.84 60.36L33.12 60.9L32.16 61.14L31.56 61.26L31.74 61.08L32.4 60.84L33 60.66L33.84 60.12L34.32 59.76Z" fill="#CCC6C6"/>
<path d="M78.96 84.6L79.2 84.66L78.66 84.84L78.72 85.32L79.74 88.38L79.68 88.56L78.9 86.46L78.48 85.02V84.72L78.96 84.6Z" fill="#FEFEFE"/>
<path d="M69.06 66H74.58V66.06L69.24 66.12L69.06 66.18L68.82 66.66L68.64 66.78L68.7 66.48L69.06 66Z" fill="#9A9193"/>
<path d="M59.16 76.26L59.34 76.44L59.58 77.04V77.82L59.4 79.26L59.28 79.08V78.48L59.4 77.34L59.22 76.68L59.16 76.62V76.26Z" fill="#AAA2A2"/>
<path d="M38.34 78.1801L38.7 78.3001L40.44 79.0201L41.22 79.3801L41.58 79.5001L41.7 79.5601V79.8601L41.64 79.6801L41.34 79.6201L39.54 78.8401L38.34 78.3001V78.1801Z" fill="#8D8588"/>
<path d="M75.18 75.42L75.3 75.48L75.66 76.74L75.84 77.82L76.14 79.32V79.8H76.08L75.84 78.36V78.12L75.66 78.06L75.48 76.92L75.24 75.72L75.18 75.42Z" fill="#BFBABC"/>
<path d="M67.02 59.4H67.14L67.08 59.82L66.96 60.06V59.7L66.72 60.12L66.42 60.84H66.24L66.18 60.36L65.94 60.48L66.06 60.24L66.6 59.88L67.02 59.4Z" fill="#7D8691"/>
<path d="M58.38 86.58H58.44V87.54L58.14 89.52L57.9 90.06L57.84 89.88L57.96 89.52L58.08 88.8L58.32 86.64L58.38 86.58Z" fill="#A7A0A2"/>
<path d="M58.8 82.98H58.92L58.74 84.48L58.5 86.52L58.38 86.58V85.98L58.74 83.04L58.8 82.98Z" fill="#8C8588"/>
<path d="M64.8 87.12H64.86L64.98 89.4V91.08H64.92L64.8 90.42V87.12Z" fill="#9B9293"/>
<path d="M44.52 66.6L44.58 66.84V67.38L44.76 67.92L45.12 68.46L45.66 69.12V69.24H45.78L45.84 69.42L45.54 69.48V69.3L44.82 68.34L44.46 67.74L44.4 67.56V66.84L44.52 66.6Z" fill="#8C8589"/>
<path d="M63.24 21.0601H63.3V21.6601L63.12 22.6201L62.64 24.3001L62.22 25.2601L62.16 25.3801H62.04L62.16 25.0201L62.46 24.3601L62.88 22.9801L63.24 21.0601Z" fill="#A69E9F"/>
<path d="M50.46 58.2H50.52L50.58 59.82H50.7L50.64 59.34L50.76 58.44H50.82V60L50.88 60.48L50.82 60.6L50.58 60.48L50.46 60.12V58.2Z" fill="#8E8587"/>
<path d="M75.66 76.5H75.78L76.56 78.78L77.04 80.28L76.98 80.46L76.26 78.42L75.66 76.62V76.5Z" fill="#FEFEFE"/>
<path d="M88.02 36.72L88.5 37.08L89.52 38.1L89.94 38.7L90.36 39.54L90.3 39.72V39.6H90.18L89.7 38.64L89.28 38.1L88.44 37.2L88.02 36.84V36.72Z" fill="#C6BFBF"/>
<path d="M59.88 35.64L60.36 35.76L60.9 36L61.5 36.24V36.36L61.68 36.42L61.74 36.66H61.62L61.38 36.36L60.48 35.94L60.18 35.82H59.76L58.56 36.42L58.44 36.54L58.32 36.78V36.48L58.56 36.24L59.16 35.94L58.92 35.82L59.28 35.7V35.82L59.88 35.64Z" fill="#938584"/>
<path d="M40.14 83.34L40.26 83.4L39.48 85.2L39.12 85.92L38.64 86.46L38.52 86.4L39 85.86L39.36 85.02L39.72 84.24L40.02 83.46L40.14 83.34Z" fill="#B8B0B1"/>
<path d="M55.08 46.8L55.32 46.92L55.74 47.28L55.86 47.34V47.64L56.04 47.88L55.8 47.76L54.9 47.16L54.6 46.86H54.9L55.2 47.04L55.08 46.8Z" fill="#8F8586"/>
<path d="M47.1 84.48H47.16L47.1 85.32L46.86 87.3V88.56L46.98 89.1L46.86 89.16L46.74 88.74L46.68 87.9L46.8 86.64L47.04 84.66L47.1 84.48Z" fill="#7A8C9C"/>
<path d="M37.98 77.9399L38.22 77.9999L39.72 78.5999L41.28 79.3199L41.4 79.4399L41.04 79.3799L40.14 78.9599L39 78.4799L37.98 78.0599V77.9399Z" fill="#FEFEFE"/>
<path d="M56.1 75.12L56.58 75.18L57.78 75.36L58.44 75.6L58.92 75.96L59.16 76.26L59.1 76.44L58.86 76.14V76.02L58.62 75.9L57.96 75.6L57.54 75.48L56.46 75.36L56.22 75.3V75.18L56.1 75.12Z" fill="#8F8586"/>
<path d="M67.26 67.86L67.38 67.92L66.48 68.76L65.76 69.42L65.7 69.54H65.58L65.46 69.78L65.1 70.32L64.98 70.38L65.1 70.08L65.34 69.66L65.88 69.06L66.72 68.34L67.26 67.86Z" fill="#A8A1A3"/>
<path d="M77.28 81.1801L77.4 81.3601L77.94 82.9801L78.06 83.2801L78.6 83.2201L78.9 83.1001H79.2L79.26 83.2201L78.18 83.5201L77.94 83.4001L77.64 82.5601L77.28 81.4201V81.1801Z" fill="#FEFEFE"/>
<path d="M85.38 68.76H85.74L85.98 69L86.4 69.84L86.58 70.38L87 71.28L86.94 71.46L86.46 70.44L86.04 69.6L85.74 68.94L85.32 68.88L85.38 68.76Z" fill="#9A9395"/>
<path d="M73.32 35.1L73.56 35.4L74.16 36.54L74.34 36.9L74.28 37.02L74.04 36.96L73.5 35.76L73.32 35.28V35.1Z" fill="#CFC680"/>
<path d="M45.72 27.0601L45.78 27.2401L45.42 28.1401L45.12 28.9201L44.88 29.4601L44.64 30.1201L44.34 30.6601L44.28 30.4801L45 28.8001L45.66 27.1801L45.72 27.0601Z" fill="#A49B9C"/>
<path d="M74.4 74.4L74.82 74.76L75.18 75.06H75.3L75.72 76.32L75.66 76.5L75.54 76.68L75.3 75.66L75.24 75.48L75 75.24L74.64 74.76L74.28 74.52L74.4 74.4Z" fill="#E7E6E7"/>
<path d="M89.76 77.22L89.94 77.46L90.24 78.06V78.18L90.42 78.24L90.78 79.08L90.72 79.32L90.36 79.38L90.48 79.02L90.18 78.3L89.76 77.4V77.22Z" fill="#C2BDBE"/>
<path d="M89.04 75.66H89.16L90.3 78L90.24 78.18L89.82 77.34V77.22H89.7L89.04 75.9V75.66Z" fill="#DDDADA"/>
<path d="M76.98 85.08L77.1 85.32L77.4 87.42L77.34 88.2H77.28V87.66L77.16 86.88L77.04 86.28L76.92 85.2L76.98 85.08Z" fill="#A19B9D"/>
<path d="M47.22 54.24V54.42L47.04 54.66L47.28 54.54L47.58 54.36H47.7L47.58 54.6L47.16 55.2L47.1 55.08L47.16 54.9L46.86 55.08H46.68L46.8 54.72L47.22 54.24Z" fill="#938584"/>
<path d="M83.88 83.64L84.12 83.76L84.42 84.36L84.78 85.38V85.56L84.6 85.5L84.18 84.24L84 83.82L83.52 83.88L83.34 83.76L83.88 83.64Z" fill="#B0A8A8"/>
<path d="M42.6 84.1801L43.14 84.2401L45.06 84.7801L44.82 84.8401L44.1 84.6601H43.62L43.02 84.4801L42.96 84.3001L42.6 84.2401V84.1801Z" fill="#D0CCCD"/>
<path d="M86.4 69.96L86.58 70.2L87.36 71.82L87.72 72.6L87.66 72.72L87.48 72.42L87.36 72.36L87.12 71.82L86.82 71.04L86.4 70.14V69.96Z" fill="#EAE8E8"/>
<path d="M36.6 36L36.84 36.12L37.5 36.78L38.1 37.02H39.42L39.18 37.14H37.86L37.38 36.9L36.66 36.18L36.6 36Z" fill="#D0CDCE"/>
<path d="M92.16 84.72L92.34 84.78L91.2 85.32L90.24 85.8L89.52 86.1L89.4 86.04L90.36 85.56L91.8 84.9L92.16 84.72Z" fill="#BCB5B6"/>
<path d="M90.54 43.4399L90.6 43.6799L90.18 45.3599L90 45.8999L89.88 45.7199L90 45.1799L90.18 44.6999L90.42 43.6799L90.54 43.4399Z" fill="#B2ADAF"/>
<path d="M82.14 61.38L82.68 61.5L83.7 61.92L84.6 62.4V62.46L84.18 62.4L83.34 61.98L83.16 61.92L83.1 61.8L82.14 61.44V61.38Z" fill="#DCD9DA"/>
<path d="M86.58 41.8199L86.88 42.1199L87.06 42.4199L87.18 43.0199V43.6199L87.06 43.5599L86.82 42.5399L86.58 41.9399V41.8199Z" fill="#2D0606"/>
<path d="M44.58 66.66H44.64L44.76 67.62L45 68.16L45.72 69.06L45.66 69.24L45.06 68.46L44.7 67.92L44.52 67.38V66.84L44.58 66.66Z" fill="#FEFEFE"/>
<path d="M33.96 40.08L34.02 40.26L33.6 40.74L33.24 41.46L33.12 41.82L32.94 41.7L33.12 41.16L33.54 40.5L33.96 40.08Z" fill="#938584"/>
<path d="M86.16 82.38L86.34 82.62L86.76 83.58L86.94 84.12L87.3 84.84L87.24 85.02L86.58 83.7L86.34 82.92L86.16 82.56V82.38Z" fill="#B6C0C8"/>
<path d="M56.64 21L56.76 21.24L57.12 23.1L57.06 23.28V23.16H56.94L56.88 22.74L56.76 22.2L56.64 22.02V21Z" fill="#A49A9A"/>
<path d="M48.54 75.36L48.6 75.48L48.3 76.08L48.18 76.38L47.94 78.48L47.82 78.72L47.88 77.76L48.06 76.32L48.36 75.54L48.54 75.36Z" fill="#768899"/>
<path d="M46.98 24.84H47.1L46.98 25.14L46.62 25.62L46.38 26.04L46.26 26.34L45.9 26.94L45.78 27.06L45.84 26.76L46.44 25.62L46.98 24.84Z" fill="#A59A99"/>
<path d="M45.9 86.4H45.96L45.9 86.94L45.36 88.92L45.24 89.1L45.3 88.5L45.6 87.42L45.9 86.4Z" fill="#A79E9E"/>
<path d="M39.48 70.74L39.78 70.8L41.28 71.46L41.04 71.58L39.9 71.1L39.6 70.86L39.48 70.74Z" fill="#C1BCBD"/>
<path d="M34.38 69.54H35.76L36.72 69.66V69.72L35.82 69.78L35.46 69.66H34.62L33.96 69.9L33.84 69.84L34.38 69.54Z" fill="#FEFEFE"/>
<path d="M38.7 57.9L38.94 58.08V58.26L37.68 58.5L37.44 58.44L37.86 58.2L38.58 58.08L38.7 58.02V57.9Z" fill="#A09C9F"/>
<path d="M51.78 20.88L51.9 20.94L51.72 21V21.12L50.58 21.72L50.04 22.02L49.92 22.14L49.74 22.08L50.64 21.48L51.78 20.88Z" fill="#C3BEBF"/>
<path d="M59.4 71.28H60.66L61.44 71.46V71.52H60.96L60.18 71.4H59.52L58.8 71.52H58.44V71.46L59.4 71.28Z" fill="#9C9090"/>
<path d="M30.24 62.58L30.3 62.82L30.24 63.06V63.9L30.48 64.86L30.72 65.28L30.66 65.4L30.3 64.8L30.12 64.26L30.06 63.54L30.18 62.76L30.24 62.58Z" fill="#CCC8C9"/>
<path d="M91.08 80.46L91.38 80.52L91.68 81.06L91.92 81.66L92.34 82.56L92.28 82.68L91.8 81.72L91.26 80.58H90.96L91.08 80.46Z" fill="#8E8587"/>
<path d="M64.5 80.04H64.56L64.74 81.06L64.92 82.26V82.8H64.86L64.62 81.24L64.56 81.12L64.5 80.58V80.04Z" fill="#768899"/>
<path d="M43.8 73.02L43.86 73.26L43.14 74.94L42.96 74.88L43.32 74.1L43.56 73.5L43.8 73.02Z" fill="#A79F9F"/>
<path d="M31.74 63.54L31.86 63.6L31.92 64.68L31.98 64.98L31.86 64.92L31.74 64.5L31.5 64.38L31.44 64.14L31.68 64.26V63.6L31.74 63.54Z" fill="#908585"/>
<path d="M86.88 42.78L87 42.96L87.12 43.56L87.18 43.08H87.24L87.3 43.74L87.24 44.16H87.18L87.12 43.86L87.06 43.68H86.94L86.7 43.14L86.76 43.02L86.82 43.08L86.88 42.78Z" fill="#918382"/>
<path d="M53.52 59.58L53.82 59.88L53.88 60.18L53.7 60V60.18L53.76 60.54L53.58 60.66H52.5V60.6L53.4 60.54L53.58 60.48L53.46 59.88L53.52 59.58Z" fill="#8E8587"/>
<path d="M51.24 59.22L51.36 59.34L51.48 59.52L51.6 60.54H51.36L51.3 60.3L51.24 59.22Z" fill="#938584"/>
<path d="M86.1 35.7L86.46 35.76L87.06 36L87.78 36.48L88.02 36.72L87.78 36.66L87 36.18L86.1 35.76V35.7Z" fill="#D3D0D1"/>
<path d="M87.54 85.5H87.72V85.62L88.08 85.74L88.5 85.62H88.86L88.74 85.86H88.62V85.74L88.2 85.92L87.96 86.04L87.6 85.74L87.54 85.5Z" fill="#BFC7CF"/>
<path d="M57.72 51.54L57.84 51.6L57.3 52.2L56.94 52.44H56.64L56.7 52.32H56.82V52.2L57.54 51.72L57.72 51.54Z" fill="#9A9396"/>
<path d="M70.56 22.4399L70.8 22.5599L71.7 23.3399L72.48 24.1799L72.42 24.2999L72 23.8799L71.58 23.3999L70.98 22.8599L70.56 22.4999V22.4399Z" fill="#AFA9AA"/>
<path d="M55.32 20.04L55.98 20.1L56.34 20.28L56.46 20.52L56.1 20.28L55.56 20.22L54.36 20.28L54.54 20.1L55.32 20.04Z" fill="#ADA3A2"/>
<path d="M78.36 35.52L78.72 35.82V35.94L78.96 36.06L79.5 36.54L79.98 36.78L79.8 36.84L79.38 36.66L78.66 36L78.36 35.64V35.52Z" fill="#C9C6C7"/>
<path d="M61.98 25.38L62.04 25.5L61.68 26.04L61.44 26.34L60.66 26.58H60.54V26.46L61.2 26.22L61.68 25.8L61.98 25.38Z" fill="#ECEAEA"/>
<path d="M78.12 60L78.24 60.06L78 60.3L79.68 60.54V60.6H79.2L77.94 60.48L77.7 60.36L77.94 60.12L78.12 60Z" fill="#EEEEEF"/>
<path d="M54.42 44.34L54.66 44.4L55.2 44.82L55.44 45L55.62 45.12H55.32L55.26 45.24L54.84 44.76L54.42 44.46V44.34Z" fill="#83868F"/>
<path d="M37.26 75.42H37.38L37.26 75.78L36.72 77.1H36.6L36.54 77.22L36.6 76.92L37.26 75.42Z" fill="#B7B1B2"/>
<path d="M73.74 60H74.22L73.86 60.42L73.68 60.6L73.44 60.54L73.68 60.18L73.44 60.12L73.74 60Z" fill="#938584"/>
<path d="M69.78 53.4H69.84V54.18L70.08 54.06L69.9 54.6L69.84 54.72L69.6 54.66L69.72 54.12L69.78 53.4Z" fill="#938584"/>
<path d="M75.72 78.12H75.84L76.14 79.8L76.02 79.86L75.9 79.5L75.72 78.12Z" fill="#8D8588"/>
<path d="M54.78 66.1801L55.2 66.5401L55.38 66.7801L55.08 66.6601L54.96 67.0201H54.72V67.4401H54.66L54.54 66.9001H54.9L54.84 66.4801L54.78 66.1801Z" fill="#938584"/>
<path d="M40.26 79.02L40.5 79.08L41.22 79.38L41.58 79.5L41.7 79.56V79.86L41.64 79.68L41.34 79.62L40.26 79.14V79.02Z" fill="#979092"/>
<path d="M41.58 79.92L41.64 80.1L41.22 81.24H41.1V81.36H40.98L41.16 80.82L41.58 79.92Z" fill="#A59D9E"/>
<path d="M39.72 66.0601L39.96 66.1201L40.08 67.0201L40.38 67.6201L40.32 67.7401L40.02 67.2001L39.78 66.4801L39.72 66.0601Z" fill="#C3BCBB"/>
<path d="M53.16 68.34L53.4 68.46L54.66 69.72L54.72 69.96L53.16 68.4V68.34Z" fill="#B1A9A9"/>
<path d="M72.48 53.7L72.78 53.76L72.96 53.94L72.6 53.88V54.72L72.42 54.54L72.36 54.42L72.42 53.82L72.48 53.7Z" fill="#938584"/>
<path d="M46.92 89.16L47.1 89.22L47.52 89.7L48.12 90.06L48.06 90.18L47.46 89.88L47.04 89.46L46.92 89.16Z" fill="#9DAAB6"/>
<path d="M32.1 36.54L32.22 36.6L31.32 37.44L30.9 37.8L30.96 37.56L31.38 37.14L32.04 36.6L32.1 36.54Z" fill="#B1A7A7"/>
<path d="M63.24 21.0601H63.3V21.6601L63.12 22.6201L63.06 22.8001L62.94 22.7401L63.24 21.0601Z" fill="#AFA8A8"/>
<path d="M92.34 82.6801L92.52 82.9201L92.7 83.2801L92.82 83.3401L93.12 84.0601V84.3601L93 84.3001L92.88 83.8201L92.76 83.7601L92.34 82.8601V82.6801Z" fill="#C4BEBE"/>
<path d="M64.8 70.5V70.68L64.32 71.04L63.54 71.4L63.06 71.46L63.24 71.34L64.02 71.04L64.5 70.74L64.8 70.5Z" fill="#9F989A"/>
<path d="M43.08 33.0601L43.14 33.1801L42.72 34.0201L42.24 34.8001L42.12 34.7401L42.84 33.4801L43.08 33.0601Z" fill="#A39A9B"/>
<path d="M64.14 20.04H64.92V20.16L64.14 20.22L63.78 20.4H63.66V20.52H63.54L63.66 20.28L63.9 20.1L64.14 20.04Z" fill="#C3BCBC"/>
<path d="M45 68.52L45.24 68.58L45.66 69.12V69.24H45.78L45.84 69.42L45.54 69.48V69.3L45 68.58V68.52Z" fill="#948C8F"/>
<path d="M42.48 57.54L42.78 57.66L43.26 58.02L43.32 58.26L42.9 58.08L42.66 57.84L42.48 57.54Z" fill="#9B8E79"/>
<path d="M41.16 71.52L41.52 71.58L42.24 71.88L42.12 72L41.82 71.94L41.16 71.64V71.52Z" fill="#B7B0B0"/>
<path d="M89.64 38.34L89.88 38.58L90.36 39.54L90.3 39.72V39.6H90.18L89.7 38.64L89.64 38.34Z" fill="#C6C1C2"/>
<path d="M57.9 75.42L58.44 75.6L58.92 75.96L59.16 76.26L59.1 76.44L58.86 76.14V76.02L58.62 75.9L57.96 75.6L57.9 75.42Z" fill="#8B8589"/>
<path d="M85.74 63.24L85.98 63.36L86.46 63.78L86.76 64.2L86.52 64.08L85.8 63.42L85.74 63.24Z" fill="#C1BFC1"/>
<path d="M83.04 36.24L83.16 36.3L82.56 36.96L82.2 37.08L82.02 36.96L82.62 36.66L83.04 36.24Z" fill="#BAB4B5"/>
<path d="M66.18 89.58L66.36 89.64L66.48 89.94L66.72 90.06V90.18L66.96 90.24L67.2 90.42V90.54L66.9 90.42L66.3 89.88L66.18 89.58Z" fill="#A0ACB8"/>
<path d="M66.36 26.04H66.42V26.52L66.24 27.12L66.06 27.06L66.3 26.1L66.36 26.04Z" fill="#938584"/>
<path d="M83.1 80.88L83.28 80.94L83.58 81.96V82.32H83.52L83.28 81.54L83.1 80.88Z" fill="#A9A0A1"/>
<path d="M37.62 58.26L37.8 58.32L37.5 58.44L37.44 58.56L36.42 58.74V58.62L37.62 58.26Z" fill="#D9D4D4"/>
<path d="M44.82 29.22H44.94L44.76 29.76L44.52 30.3L44.34 30.66L44.28 30.48L44.82 29.22Z" fill="#A69D9E"/>
<path d="M48.96 52.86L49.14 52.92L49.2 53.7L48.96 53.52L48.9 53.76L48.96 52.86Z" fill="#86868C"/>
<path d="M60 61.92L60.18 61.98L59.88 62.16L59.82 62.88L59.76 62.94H59.28V62.88L59.7 62.82V62.04L60 61.92Z" fill="#908586"/>
<path d="M50.46 58.2H50.52L50.58 59.7L50.64 59.88L50.58 60.24L50.46 60.12V58.2Z" fill="#938584"/>
<path d="M58.38 86.58H58.44V87.54L58.26 87.72L58.32 86.64L58.38 86.58Z" fill="#A19A9B"/>
<path d="M56.04 44.64L56.7 45L56.88 45.18L56.58 45.12H56.34L56.04 44.76V44.64Z" fill="#938584"/>
<path d="M90.24 39.6L90.3 39.72H90.42L90.6 40.44V40.62H90.48L90.3 40.2L90.24 39.6Z" fill="#A89FA0"/>
<path d="M73.32 35.1L73.56 35.4L73.86 35.94L73.74 36.18L73.62 36L73.32 35.28V35.1Z" fill="#958786"/>
<path d="M57.84 33.96L58.44 34.08L58.5 34.2L58.08 34.14L57.48 34.26L57.18 34.5L57.3 34.26L57.54 34.08L57.84 33.96Z" fill="#908585"/>
<path d="M33.36 70.26L33.48 70.32L33.12 70.86L32.88 71.46H32.76L32.7 71.64L32.64 71.52L33.24 70.38L33.36 70.26Z" fill="#A2AEB9"/>
<path d="M86.22 41.34L86.46 41.46L86.88 41.94L86.82 42.12L86.64 41.88L86.52 41.94L86.22 41.46V41.34Z" fill="#938584"/>
<path d="M79.68 36.78L80.52 36.96L81 37.08V37.14H80.52L79.74 36.9L79.68 36.78Z" fill="#A09A9D"/>
<path d="M33.18 35.88L33.36 35.94H33.24V36.06L32.76 36.3L32.34 36.54L32.22 36.48L32.82 36.06L33.18 35.88Z" fill="#C2BEC0"/>
<path d="M49.56 22.2H49.68V22.32L49.08 22.8L48.78 23.1H48.66L48.78 22.86L49.56 22.2Z" fill="#B1A9A9"/>
<path d="M59.34 52.08L59.4 52.2L58.92 53.04L58.8 52.92L58.86 52.68L59.34 52.08Z" fill="#7D8793"/>
<path d="M44.76 38.9399V39.1199L44.52 39.5399H44.34L43.92 39.8999L44.04 39.6599L44.46 39.1799L44.76 38.9399Z" fill="#B9AD56"/>
<path d="M33.96 35.64L34.26 35.7L34.08 35.82L33.42 36L33.24 35.94H33.36V35.82L33.96 35.64Z" fill="#ACA4A4"/>
<path d="M57.12 34.5H57.18V34.86L57.54 34.98L58.14 35.04V35.1L57.6 35.22L57.18 34.98L57.12 34.92V34.5Z" fill="#938584"/>
<path d="M44.22 30.66L44.28 30.9L43.68 32.1L43.62 31.92L44.22 30.66Z" fill="#A79D9E"/>
<path d="M65.64 69.42L65.7 69.54H65.58L65.46 69.78L65.1 70.32L64.98 70.38L65.1 70.08L65.34 69.66L65.64 69.42Z" fill="#B3AEB0"/>
<path d="M46.32 25.86H46.44L46.32 26.28L46.08 26.58L45.84 27.06L45.78 26.88L46.32 25.86Z" fill="#A39B9C"/>
<path d="M53.52 25.5601H53.64L53.82 26.1601L53.88 26.4601L53.76 26.7001L53.52 25.8001V25.5601Z" fill="#908180"/>
<path d="M37.5 75.12H37.8L38.52 75.48L38.82 75.6L38.64 75.66L37.86 75.36L37.5 75.18V75.12Z" fill="#FEFEFE"/>
<path d="M65.7 66.0601H67.62L67.56 66.2401L67.38 66.1801L65.7 66.1201V66.0601Z" fill="#938584"/>
<path d="M54.18 20.16L54.42 20.22L53.94 20.4L53.4 20.52L53.34 20.34L54.18 20.16Z" fill="#C1B9B8"/>
<path d="M64.92 89.9399H64.98V91.0799H64.92L64.8 90.4199V90.0599L64.92 89.9399Z" fill="#939094"/>
<path d="M59.28 79.08H59.34V79.86L59.28 80.28L59.1 80.04L59.28 79.08Z" fill="#908585"/>
<path d="M87.42 72.36L87.6 72.54L87.84 72.84L87.96 73.44L87.78 73.26L87.42 72.48V72.36Z" fill="#B5ADAD"/>
<path d="M69.24 66.0601L70.08 66.1201V66.2401H69L69.06 66.1201L69.24 66.0601Z" fill="#FEFEFE"/>
<path d="M40.14 83.34L40.26 83.4L39.84 84.36H39.78L39.84 83.88L40.08 83.4L40.14 83.34Z" fill="#B9B2B1"/>
<path d="M84 35.58L84.18 35.64L84.06 35.76L83.58 35.94L83.22 36.24L83.1 36.18L83.58 35.76L84 35.58Z" fill="#A8A0A1"/>
<path d="M63.24 66H64.14L64.2 66.18L63.96 66.42L64.08 66.12H63.54L63.24 66.06V66Z" fill="#89858A"/>
<path d="M55.8 66H56.76V66.06L55.98 66.12L56.04 66.36V66.54L55.8 66.24V66Z" fill="#8E8587"/>
<path d="M52.56 66L52.98 66.06L53.04 66.18L52.62 66.12L52.8 66.42L52.92 66.6L52.68 66.48L52.44 66.24V66.06L52.56 66Z" fill="#938584"/>
<path d="M31.8 61.14L31.98 61.2L31.38 61.5L31.14 61.68L30.96 61.62L31.5 61.2L31.8 61.14Z" fill="#C3BEBE"/>
<path d="M80.82 61.02L81.36 61.08L82.14 61.32V61.38H81.6V61.26L81.06 61.14L80.82 61.02Z" fill="#F4F3F3"/>
<path d="M51.06 49.8L51.3 49.86L50.7 49.98L50.94 50.4L50.7 50.34L50.58 50.16L50.64 49.92L51.06 49.8Z" fill="#8A858A"/>
<path d="M61.86 33.96L62.34 34.02L62.82 34.38L62.76 34.56L62.46 34.26L62.28 34.14H61.74L61.68 34.02L61.86 33.96Z" fill="#938584"/>
<path d="M84.48 84.78L84.6 84.9L84.78 85.38V85.56L84.6 85.5L84.42 85.02L84.48 84.78Z" fill="#A29B9D"/>
<path d="M76.5 82.74H76.62L76.74 83.28V83.58L76.56 83.52L76.5 82.74Z" fill="#9F9799"/>
<path d="M60 51.54L60.3 51.84L60.66 52.26V52.44L60.48 52.38L60.06 51.72L60 51.54Z" fill="#818690"/>
<path d="M91.08 80.46L91.38 80.52L91.68 81.06L91.62 81.3L91.26 80.58H90.96L91.08 80.46Z" fill="#8C8588"/>
<path d="M82.8 80.04H82.92V80.16H83.04L83.22 80.88L83.04 80.82L82.8 80.04Z" fill="#B5AEAF"/>
<path d="M60.48 71.28L61.14 71.4L61.44 71.46V71.52H60.96L60.18 71.4V71.34L60.48 71.28Z" fill="#A79FA0"/>
<path d="M36.9 69.72L37.5 69.84L37.8 69.96V70.02H37.32L37.02 69.9V69.78L36.9 69.72Z" fill="#BBB6B7"/>
<path d="M66.9 52.08L67.14 52.14L66.24 52.56L66.18 52.44L66.66 52.14L66.9 52.08Z" fill="#938584"/>
<path d="M87.84 50.04L87.96 50.1L87.42 51.06L87.3 51.12L87.42 50.7L87.84 50.04Z" fill="#B0AFB3"/>
<path d="M29.88 84.42L30.24 84.48L30.66 84.66L30.9 84.78L30.84 84.9L29.88 84.48V84.42Z" fill="#99A6B3"/>
<path d="M39.72 84.24L39.78 84.48L39.48 85.14H39.36L39.54 84.6L39.72 84.24Z" fill="#ABA4A5"/>
<path d="M32.4 60.84H32.58V60.96L32.16 61.02V61.14L31.56 61.26L31.74 61.08L32.4 60.84Z" fill="#F3F2F2"/>
<path d="M90.6 42.66H90.66V43.32L90.54 43.62H90.48V43.14L90.54 42.72L90.6 42.66Z" fill="#9B999D"/>
<path d="M88.98 37.6801L89.22 37.8001L89.64 38.2801L89.58 38.4601L89.04 37.8601L88.98 37.6801Z" fill="#AEA8AA"/>
<path d="M41.34 35.76V35.94L41.04 36.3L40.62 36.54L40.74 36.3L41.34 35.76Z" fill="#BAB4B4"/>
<path d="M79.68 88.26L79.86 88.38L80.04 88.68L80.22 88.8L79.92 88.86L79.74 88.68L79.68 88.26Z" fill="#95A3B0"/>
<path d="M41.1 81.24L41.16 81.42L40.92 81.96L40.8 81.78L40.86 81.48L41.1 81.36V81.24Z" fill="#C0B9B9"/>
<path d="M31.14 74.9399L31.26 75.1799L31.02 75.7199L30.84 75.7799L31.02 75.2399L31.14 74.9399Z" fill="#B5BFC8"/>
<path d="M34.86 59.52L34.98 59.58L34.2 60.12L34.08 60.06L34.38 59.82L34.5 59.64L34.86 59.52Z" fill="#9D9597"/>
<path d="M57 52.08L57.24 52.14L56.94 52.44H56.64L56.7 52.32H56.82V52.2L57 52.08Z" fill="#CECED0"/>
<path d="M42.96 74.9399H43.08L42.9 75.5399L42.78 75.6599L42.72 75.3599H42.84L42.9 74.9999L42.96 74.9399Z" fill="#B3AAAA"/>
<path d="M56.1 75.12L56.58 75.18L56.94 75.24L56.88 75.36H56.46L56.22 75.3V75.18L56.1 75.12Z" fill="#8C8589"/>
<path d="M31.56 74.22L31.62 74.34L31.38 74.88L31.2 74.94L31.38 74.4L31.56 74.22Z" fill="#B2BCC6"/>
<path d="M38.82 70.5601L39.18 70.6201L39.48 70.6801V70.8001L39.78 70.9201L39.66 70.9801L38.82 70.6201V70.5601Z" fill="#988D8D"/>
<path d="M76.38 82.08L76.56 82.14L76.62 82.74H76.5L76.38 82.38V82.08Z" fill="#A69FA0"/>
<path d="M43.32 74.16L43.38 74.4L43.14 74.94L42.96 74.88L43.32 74.16Z" fill="#A09B9D"/>
<path d="M31.92 73.2L31.98 73.44L31.8 73.92L31.56 74.16L31.62 73.86L31.92 73.2Z" fill="#C3CBD2"/>
<path d="M79.74 60.78L80.34 60.84L80.58 60.96L80.16 61.02L79.86 60.96V60.84L79.74 60.78Z" fill="#C2BDBE"/>
<path d="M51.18 57.54L51.36 57.6V58.92H51.3L51.24 57.72L51.12 57.6L51.18 57.54Z" fill="#938584"/>
<path d="M40.38 82.74H40.44L40.38 83.16L40.26 83.34H40.14L40.2 83.04L40.38 82.74Z" fill="#A29B9D"/>
<path d="M82.32 78.6H82.44V78.72H82.56L82.68 79.08V79.32H82.56L82.32 78.6Z" fill="#B2ADAF"/>
<path d="M74.88 59.7L74.94 59.88L74.52 60.24V59.88L74.88 59.7Z" fill="#938584"/>
<path d="M48.6 23.04V23.22L48.3 23.58L48.06 23.52L48.24 23.46L48.36 23.22L48.6 23.04Z" fill="#A69B9A"/>
<path d="M52.02 20.76H52.44L52.38 20.88L51.9 21.06L51.72 21L52.02 20.76Z" fill="#A69B9A"/>
<path d="M64.92 20.1H65.52L65.82 20.22V20.28L64.92 20.22V20.1Z" fill="#A5A0A3"/>
<path d="M85.2 86.8199L85.32 86.9999L85.5 87.5999L85.2 87.2999V86.8199Z" fill="#D2CFD0"/>
<path d="M75.54 76.6801L75.66 76.7401L75.72 77.4601H75.6L75.48 76.8001L75.54 76.6801Z" fill="#B3AFB1"/>
<path d="M49.32 74.7L49.56 74.76L49.02 75.12L48.72 75.24L49.02 74.94L49.32 74.7Z" fill="#768899"/>
<path d="M73.74 60H73.92L73.8 60.24L73.68 60.36L73.44 60.3L73.74 60Z" fill="#DDD32B"/>
<path d="M89.4 46.98L89.52 47.1L89.16 47.82L89.1 47.7L89.28 47.1L89.4 46.98Z" fill="#9B989C"/>
<path d="M89.88 45.72H89.94V46.08L89.76 46.32L89.7 46.02L89.88 45.72Z" fill="#9A9395"/>
<path d="M61.98 25.38L62.04 25.5L61.68 26.04L61.5 26.16L61.56 25.92L61.98 25.38Z" fill="#ABA6A8"/>
<path d="M65.58 20.16L66.18 20.22L66.48 20.28L66.3 20.4L65.82 20.34V20.22L65.58 20.16Z" fill="#D4CFCF"/>
</svg>
