<svg width="56" height="55" viewBox="0 0 56 55" fill="none" xmlns="http://www.w3.org/2000/svg">
<path d="M29.6788 1.26162L35.0508 18.4446C35.2844 19.1319 35.9851 19.4755 36.6858 19.4755H54.2034C55.9552 19.4755 56.6559 21.7666 55.2545 22.7976L41.0068 33.1073C40.4229 33.5656 40.1893 34.3674 40.4229 35.0547L47.1964 52.6959C47.6635 54.2996 45.9118 55.6743 44.5103 54.6433L29.2116 43.4171C28.6277 42.9589 27.8102 42.9589 27.1095 43.4171L11.694 54.6433C10.2926 55.6743 8.42404 54.2996 9.00797 52.6959L15.5479 35.0547C15.7814 34.3674 15.5479 33.5656 14.964 33.1073L0.716292 22.7976C-0.685118 21.7666 0.132371 19.4755 1.76735 19.4755H19.285C20.1025 19.4755 20.6864 19.2464 20.9199 18.4446L26.4088 1.14706C26.8759 -0.456679 29.2116 -0.342126 29.6788 1.26162ZM28.0438 12.3744C28.0282 13.9411 28.0282 36.1331 28.0282 37.2244C28.2461 37.3988 31.4536 39.7374 37.6507 44.2401C38.468 44.8413 39.4896 44.0396 39.2172 43.1044L35.3956 33.2434C34.9883 32.3614 35.3956 31.787 35.8993 31.4849L43.9165 25.9991C44.7338 25.3979 44.3251 24.0618 43.3035 24.0618H33.8915C33.4829 24.0618 32.4098 23.9279 32.1186 22.8978L29.0013 13.109C28.8662 12.6453 28.4489 12.3951 28.0438 12.3744Z" fill="#FCFCFC"/>
</svg>
