<svg width="216" height="55" viewBox="0 0 216 55" fill="none" xmlns="http://www.w3.org/2000/svg">
<rect width="216" height="55" rx="27.5" fill="white"/>
<path d="M35.504 29.656C35.504 30.408 35.328 31.056 34.976 31.6C34.64 32.128 34.08 32.616 33.296 33.064C32.768 33.384 32.152 33.624 31.448 33.784C30.744 33.944 30.032 34.024 29.312 34.024C28.576 34.024 27.664 33.784 26.576 33.304C25.792 32.92 25.168 32.464 24.704 31.936C24.256 31.408 24.032 30.832 24.032 30.208C24.032 29.776 24.128 29.464 24.32 29.272C24.512 29.064 24.824 28.96 25.256 28.96C25.48 28.96 25.712 29.056 25.952 29.248C26.192 29.424 26.336 29.6 26.384 29.776C26.608 30.432 27 30.936 27.56 31.288C28.12 31.624 28.816 31.792 29.648 31.792C30.608 31.792 31.408 31.616 32.048 31.264C32.704 30.912 33.032 30.44 33.032 29.848C33.032 29.272 32.68 28.76 31.976 28.312C31.272 27.864 30.552 27.552 29.816 27.376C28.76 27.088 27.824 26.744 27.008 26.344C26.16 25.928 25.528 25.416 25.112 24.808C24.696 24.2 24.488 23.56 24.488 22.888C24.488 22.264 24.704 21.632 25.136 20.992C25.568 20.336 26.08 19.864 26.672 19.576C26.992 19.416 27.536 19.248 28.304 19.072C29.088 18.88 29.656 18.784 30.008 18.784C30.472 18.784 30.984 18.84 31.544 18.952C32.104 19.064 32.56 19.224 32.912 19.432C33.616 19.832 34.136 20.192 34.472 20.512C34.808 20.832 34.976 21.232 34.976 21.712C34.976 22 34.864 22.256 34.64 22.48C34.432 22.704 34.064 22.816 33.536 22.816C33.408 22.816 33.28 22.76 33.152 22.648C33.024 22.536 32.864 22.368 32.672 22.144C32.416 21.808 32.168 21.584 31.928 21.472C31.688 21.392 31.336 21.304 30.872 21.208C30.424 21.112 30.024 21.064 29.672 21.064C29.288 21.064 28.888 21.144 28.472 21.304C28.056 21.464 27.704 21.696 27.416 22C27.144 22.288 27.008 22.624 27.008 23.008C27.008 23.328 27.152 23.608 27.44 23.848C27.744 24.072 28.104 24.256 28.52 24.4C29 24.592 29.52 24.76 30.08 24.904C30.816 25.128 31.416 25.336 31.88 25.528C32.36 25.704 32.824 25.928 33.272 26.2C34.056 26.664 34.624 27.144 34.976 27.64C35.328 28.12 35.504 28.792 35.504 29.656ZM38.9726 18.592C39.5326 18.64 40.0206 18.792 40.4366 19.048C40.8526 19.288 41.0606 19.656 41.0606 20.152C41.0606 20.52 40.8846 20.816 40.5326 21.04C40.1966 21.248 39.7886 21.352 39.3086 21.352C38.8446 21.352 38.5246 21.232 38.3486 20.992C38.1726 20.752 38.0846 20.504 38.0846 20.248C38.0846 19.768 38.1326 19.368 38.2286 19.048C38.3406 18.728 38.5886 18.576 38.9726 18.592ZM40.8926 29.224V29.92C40.8926 30.544 40.9086 31.136 40.9406 31.696C40.9886 32.24 41.0446 32.792 41.1086 33.352C41.0926 33.512 40.9726 33.68 40.7486 33.856C40.5246 34.016 40.3246 34.096 40.1486 34.096C39.8446 34.096 39.5326 34.04 39.2126 33.928C38.9086 33.8 38.7246 33.648 38.6606 33.472C38.5646 32.96 38.5166 32.504 38.5166 32.104C38.5166 30.792 38.4766 29.32 38.3966 27.688C38.3326 26.248 38.3006 25.24 38.3006 24.664C38.3006 24.376 38.4446 24.128 38.7326 23.92C39.0206 23.712 39.3246 23.608 39.6446 23.608C40.1086 23.608 40.4286 23.712 40.6046 23.92C40.7966 24.128 40.8926 24.456 40.8926 24.904V29.224ZM52.5532 33.952C52.9852 34.256 53.2732 34.592 53.4172 34.96C53.5772 35.328 53.6572 35.84 53.6572 36.496C53.6572 36.816 53.5612 37.136 53.3692 37.456C53.1932 37.776 53.0092 38.008 52.8172 38.152C51.2972 38.984 49.7772 39.4 48.2572 39.4C47.5052 39.4 46.8572 39.304 46.3132 39.112C45.7692 38.92 45.2572 38.664 44.7772 38.344C44.4572 38.104 44.1932 37.768 43.9852 37.336C43.7932 36.92 43.6972 36.504 43.6972 36.088C43.6972 35.512 43.8732 35.008 44.2252 34.576C44.5932 34.144 45.0812 33.832 45.6892 33.64C45.5772 33.4 45.5212 33.12 45.5212 32.8C45.5212 32.496 45.7452 32.04 46.1932 31.432C45.4252 31.176 44.8172 30.72 44.3692 30.064C43.9372 29.408 43.7212 28.64 43.7212 27.76C43.7212 27.216 43.8492 26.736 44.1052 26.32C44.3612 25.888 44.7452 25.392 45.2572 24.832C45.6092 24.448 46.0572 24.168 46.6012 23.992C47.1452 23.816 47.8252 23.728 48.6412 23.728C49.2172 23.728 49.9292 23.856 50.7772 24.112C51.7852 23.408 52.6732 23.056 53.4412 23.056C53.6332 23.056 53.8492 23.104 54.0892 23.2C54.3452 23.296 54.5372 23.392 54.6652 23.488C54.7612 23.664 54.8092 23.96 54.8092 24.376C54.8092 24.536 54.7372 24.696 54.5932 24.856C54.4652 25 54.2972 25.072 54.0892 25.072L53.5132 25.048C53.2252 25.016 53.0012 25 52.8412 25C52.6652 25 52.4012 25.016 52.0492 25.048C52.3852 25.448 52.6412 25.872 52.8172 26.32C53.0092 26.768 53.1052 27.352 53.1052 28.072C53.1052 28.616 52.9052 29.184 52.5052 29.776C52.1052 30.368 51.6332 30.832 51.0892 31.168C50.2572 31.616 49.2892 31.848 48.1852 31.864C48.0572 31.992 47.9452 32.112 47.8492 32.224C47.7692 32.32 47.7292 32.4 47.7292 32.464C47.7292 32.64 47.8812 32.776 48.1852 32.872C48.4892 32.968 48.9532 33.04 49.5772 33.088C50.0572 33.12 50.5852 33.224 51.1612 33.4C51.7532 33.56 52.2172 33.744 52.5532 33.952ZM48.3292 29.896C49.0652 29.896 49.6572 29.696 50.1052 29.296C50.5532 28.896 50.7772 28.328 50.7772 27.592C50.7772 27.032 50.5772 26.576 50.1772 26.224C49.7772 25.872 49.2652 25.696 48.6412 25.696C48.2412 25.696 47.8092 25.768 47.3452 25.912C46.8972 26.04 46.5772 26.248 46.3852 26.536C46.2892 26.664 46.1932 26.912 46.0972 27.28C46.0012 27.632 45.9532 27.904 45.9532 28.096C45.9532 28.368 46.0652 28.648 46.2892 28.936C46.5292 29.208 46.8332 29.44 47.2012 29.632C47.5852 29.808 47.9612 29.896 48.3292 29.896ZM49.8412 35.104C48.9612 35.024 48.3372 34.944 47.9692 34.864C47.6172 34.8 47.3292 34.72 47.1052 34.624C46.2892 35.056 45.8812 35.528 45.8812 36.04C45.8812 36.52 46.1292 36.88 46.6252 37.12C47.1212 37.376 47.6892 37.504 48.3292 37.504C48.6172 37.504 49.0092 37.472 49.5052 37.408C50.0012 37.344 50.4172 37.232 50.7532 37.072C50.9772 36.96 51.1452 36.848 51.2572 36.736C51.3692 36.64 51.4252 36.456 51.4252 36.184C51.4252 35.848 51.2492 35.592 50.8972 35.416C50.5452 35.24 50.1932 35.136 49.8412 35.104ZM56.0019 25.552C55.8739 25.456 55.7699 25.36 55.6899 25.264C55.6099 25.152 55.5699 24.96 55.5699 24.688C55.5699 24.384 55.6739 24.152 55.8819 23.992C56.1059 23.816 56.3619 23.728 56.6499 23.728C57.2099 23.728 57.6899 23.872 58.0899 24.16C58.5059 24.448 58.8099 24.848 59.0019 25.36C59.3539 24.704 59.8019 24.256 60.3459 24.016C60.8899 23.76 61.6419 23.632 62.6019 23.632C62.9859 23.632 63.3779 23.752 63.7779 23.992C64.1939 24.216 64.5699 24.496 64.9059 24.832C65.1779 25.184 65.4099 25.624 65.6019 26.152C65.7939 26.664 65.8899 27.128 65.8899 27.544C65.8899 27.784 65.8739 28.176 65.8419 28.72C65.8099 29.296 65.7939 29.752 65.7939 30.088C65.7939 31.208 66.0099 31.896 66.4419 32.152C66.5059 32.184 66.6259 32.224 66.8019 32.272C66.9779 32.32 67.1059 32.368 67.1859 32.416C67.2819 32.464 67.3299 32.536 67.3299 32.632C67.3459 33.016 67.2019 33.336 66.8979 33.592C66.6099 33.832 66.2579 33.952 65.8419 33.952C65.2179 33.952 64.7299 33.784 64.3779 33.448C64.0259 33.112 63.7779 32.6 63.6339 31.912C63.5539 31.656 63.5139 31.28 63.5139 30.784C63.5139 30.512 63.5299 30.072 63.5619 29.464C63.6099 28.984 63.6339 28.472 63.6339 27.928C63.6339 27.368 63.4739 26.88 63.1539 26.464C62.8339 26.032 62.3939 25.816 61.8339 25.816C61.4979 25.816 61.1459 25.92 60.7779 26.128C60.4099 26.32 60.1539 26.56 60.0099 26.848C59.7699 27.344 59.6099 27.848 59.5299 28.36C59.3379 29.352 59.2419 30.304 59.2419 31.216C59.2419 31.44 59.2579 31.872 59.2899 32.512C59.2899 32.56 59.2899 32.68 59.2899 32.872C59.2899 33.048 59.2659 33.216 59.2179 33.376C59.1859 33.536 59.1219 33.68 59.0259 33.808C58.9619 33.872 58.8419 33.936 58.6659 34C58.4899 34.064 58.3379 34.096 58.2099 34.096C57.9859 34.096 57.7059 34 57.3699 33.808C57.0339 33.616 56.8339 33.4 56.7699 33.16L56.7459 32.824C56.7459 32.696 56.7619 32.504 56.7939 32.248C56.9859 31.128 57.0819 30.152 57.0819 29.32C57.0819 28.952 57.0739 28.672 57.0579 28.48L57.0339 27.376C57.0339 27.04 56.9379 26.72 56.7459 26.416C56.5539 26.096 56.3059 25.808 56.0019 25.552ZM78.7014 20.752C78.6534 21.776 78.6294 22.76 78.6294 23.704C78.6294 24.68 78.6934 26.112 78.8214 28C78.8374 28.288 78.8694 28.872 78.9174 29.752C78.9654 30.616 78.9894 31.408 78.9894 32.128C79.1494 32.112 79.3174 32.088 79.4934 32.056C79.6854 32.024 79.8294 32.008 79.9254 32.008C80.2774 32.008 80.5574 32.096 80.7654 32.272C80.9734 32.448 81.0774 32.72 81.0774 33.088C81.0774 33.328 80.9814 33.512 80.7894 33.64C80.5974 33.768 80.2614 33.864 79.7814 33.928C79.3174 33.976 78.6374 34 77.7414 34C76.7494 34 76.0054 33.968 75.5094 33.904C75.0134 33.84 74.6694 33.72 74.4774 33.544C74.2854 33.352 74.1894 33.072 74.1894 32.704C74.1894 32.432 74.2774 32.248 74.4534 32.152C74.6294 32.056 74.8774 32.008 75.1974 32.008L75.7014 32.032L76.4934 32.08L76.3734 29.248C76.2774 27.712 76.2294 26.304 76.2294 25.024C76.2294 24.336 76.2534 23.392 76.3014 22.192L76.3494 20.872C75.8054 20.904 75.3814 20.92 75.0774 20.92C74.7254 20.92 74.4854 20.856 74.3574 20.728C74.2454 20.6 74.1894 20.336 74.1894 19.936C74.1894 19.488 74.4934 19.2 75.1014 19.072C75.7254 18.944 76.6694 18.88 77.9334 18.88C78.9094 18.88 79.6374 18.912 80.1174 18.976C80.6134 19.04 80.8614 19.184 80.8614 19.408C80.8614 19.952 80.7414 20.312 80.5014 20.488C80.2774 20.648 79.8374 20.728 79.1814 20.728L78.7014 20.752ZM94.2785 32.152C94.3585 32.184 94.4865 32.224 94.6625 32.272C94.8385 32.32 94.9665 32.368 95.0465 32.416C95.1265 32.464 95.1665 32.536 95.1665 32.632C95.1825 33.016 95.0385 33.336 94.7345 33.592C94.4465 33.832 94.1025 33.952 93.7025 33.952C93.0785 33.952 92.5905 33.784 92.2385 33.448C91.8865 33.112 91.6305 32.6 91.4705 31.912C91.4065 31.64 91.3745 31.264 91.3745 30.784C91.3745 30.512 91.3905 30.072 91.4225 29.464C91.4545 28.824 91.4705 28.312 91.4705 27.928C91.4705 27.24 91.3985 26.72 91.2545 26.368C91.1105 26 90.7665 25.816 90.2225 25.816C89.6625 25.816 89.1585 26.04 88.7105 26.488C88.2785 26.936 87.9105 27.608 87.6065 28.504C87.1905 29.752 86.9585 31.408 86.9105 33.472C86.9105 33.584 86.7905 33.72 86.5505 33.88C86.3265 34.024 86.0545 34.096 85.7345 34.096C85.1425 34.096 84.7745 33.784 84.6305 33.16L84.6065 32.752C84.6065 32.608 84.6225 32.44 84.6545 32.248C84.8465 31.128 84.9425 30.152 84.9425 29.32C84.9425 28.952 84.9345 28.664 84.9185 28.456L84.8945 27.328C84.8945 26.944 84.7985 26.576 84.6065 26.224C84.4145 25.856 84.1905 25.672 83.9345 25.672C83.8545 25.672 83.7425 25.704 83.5985 25.768C83.4545 25.816 83.3345 25.84 83.2385 25.84C83.0785 25.84 82.9025 25.76 82.7105 25.6C82.5345 25.44 82.4465 25.272 82.4465 25.096C82.4465 24.76 82.5585 24.488 82.7825 24.28C83.0225 24.088 83.2545 23.936 83.4785 23.824C83.7185 23.712 83.9905 23.656 84.2945 23.656C84.5505 23.656 84.7585 23.68 84.9185 23.728C85.0785 23.776 85.2945 23.88 85.5665 24.04C85.7265 24.12 85.9105 24.344 86.1185 24.712C86.3265 25.08 86.4865 25.6 86.5985 26.272C86.9185 25.68 87.4545 25.056 88.2065 24.4C88.7665 23.888 89.5745 23.632 90.6305 23.632C91.5905 23.632 92.3505 23.984 92.9105 24.688C93.4705 25.376 93.7505 26.328 93.7505 27.544C93.7505 27.784 93.7345 28.176 93.7025 28.72C93.6545 29.152 93.6305 29.608 93.6305 30.088C93.6305 31.208 93.8465 31.896 94.2785 32.152ZM112.83 20.512C112.83 20.048 112.934 19.648 113.142 19.312C113.366 18.96 113.694 18.784 114.126 18.784C114.494 18.784 114.822 18.856 115.11 19C115.398 19.144 115.542 19.384 115.542 19.72C115.542 20.376 115.51 21.296 115.446 22.48C115.382 23.632 115.35 24.488 115.35 25.048C115.35 25.928 115.382 27.104 115.446 28.576C115.51 29.984 115.542 31.016 115.542 31.672C115.542 32.2 115.534 32.592 115.518 32.848C115.518 33.104 115.374 33.36 115.086 33.616C114.814 33.856 114.39 33.976 113.814 33.976C113.51 33.976 113.246 33.928 113.022 33.832C112.814 33.72 112.67 33.6 112.59 33.472C111.838 32.56 110.742 31.008 109.302 28.816C107.686 26.368 106.366 24.496 105.342 23.2C105.47 24.352 105.534 25.76 105.534 27.424C105.534 28.16 105.518 29.12 105.486 30.304C105.47 31.472 105.438 32.24 105.39 32.608C105.326 33.072 105.182 33.432 104.958 33.688C104.75 33.928 104.414 34.048 103.95 34.048C103.598 34.048 103.334 33.952 103.158 33.76C102.998 33.552 102.902 33.2 102.87 32.704C102.854 32.048 102.894 31.064 102.99 29.752C103.006 29.544 103.03 29.184 103.062 28.672C103.094 28.16 103.11 27.704 103.11 27.304C103.11 26.2 103.054 24.936 102.942 23.512C102.846 21.944 102.798 20.784 102.798 20.032C102.798 19.648 102.934 19.352 103.206 19.144C103.494 18.936 103.822 18.832 104.19 18.832C104.51 18.832 104.846 18.912 105.198 19.072C106.574 20.8 108.438 23.376 110.79 26.8L113.046 30.256C113.062 30 113.07 29.64 113.07 29.176C113.07 28.36 113.054 27.48 113.022 26.536C112.99 25.592 112.966 24.952 112.95 24.616C112.87 23.064 112.83 21.696 112.83 20.512ZM128.042 26.296C128.17 26.52 128.274 26.848 128.354 27.28C128.434 27.696 128.474 28.072 128.474 28.408C128.474 29.032 128.338 29.92 128.066 31.072C126.962 33.088 125.33 34.096 123.17 34.096C122.37 34.096 121.554 33.832 120.722 33.304C119.89 32.776 119.314 32.168 118.994 31.48C118.562 30.104 118.346 29.232 118.346 28.864C118.346 28.224 118.482 27.544 118.754 26.824C119.042 26.104 119.402 25.48 119.834 24.952C120.106 24.584 120.594 24.272 121.298 24.016C122.002 23.744 122.642 23.608 123.218 23.608C124.338 23.608 125.29 23.824 126.074 24.256C126.858 24.672 127.514 25.352 128.042 26.296ZM125.954 30.16C126.034 29.952 126.074 29.416 126.074 28.552C126.074 28.088 125.986 27.632 125.81 27.184C125.65 26.736 125.41 26.352 125.09 26.032C125.058 26 124.97 25.952 124.826 25.888C124.682 25.808 124.482 25.736 124.226 25.672C123.986 25.592 123.706 25.552 123.386 25.552C122.49 25.552 121.834 25.912 121.418 26.632C121.002 27.352 120.794 28.168 120.794 29.08C120.794 29.24 120.834 29.544 120.914 29.992C121.01 30.44 121.09 30.72 121.154 30.832C121.202 30.944 121.322 31.104 121.514 31.312C121.722 31.504 121.97 31.68 122.258 31.84C122.562 31.984 122.874 32.056 123.194 32.056C123.914 32.056 124.49 31.888 124.922 31.552C125.354 31.2 125.698 30.736 125.954 30.16ZM141.907 28.288C142.003 27.936 142.107 27.456 142.219 26.848C142.379 26.128 142.507 25.584 142.603 25.216C142.699 24.848 142.827 24.536 142.987 24.28C143.163 23.992 143.315 23.8 143.443 23.704C143.587 23.608 143.739 23.56 143.899 23.56C144.731 23.56 145.147 23.88 145.147 24.52C145.147 24.84 145.019 25.44 144.763 26.32C143.915 28.88 143.307 30.864 142.939 32.272C142.779 32.864 142.539 33.32 142.219 33.64C141.899 33.944 141.467 34.096 140.923 34.096C140.651 34.096 140.371 33.968 140.083 33.712C139.811 33.44 139.587 33.112 139.411 32.728L139.147 32.08C138.699 30.944 138.363 30.072 138.139 29.464C137.931 28.84 137.795 28.28 137.731 27.784L137.515 28.552C137.131 29.928 136.731 31.208 136.315 32.392C136.107 33 135.851 33.44 135.547 33.712C135.243 33.968 134.851 34.096 134.371 34.096C134.083 34.096 133.827 34.032 133.603 33.904C133.395 33.776 133.195 33.56 133.003 33.256C132.747 32.84 132.499 32.28 132.259 31.576C132.035 30.872 131.707 29.776 131.275 28.288C131.067 27.648 130.875 26.976 130.699 26.272C130.523 25.552 130.435 25.048 130.435 24.76C130.435 24.424 130.523 24.16 130.699 23.968C130.875 23.776 131.131 23.68 131.467 23.68C131.899 23.68 132.203 23.768 132.379 23.944C132.555 24.104 132.715 24.352 132.859 24.688C132.939 25.264 133.115 26.08 133.387 27.136L133.915 29.392C133.947 29.568 134.043 29.936 134.203 30.496L134.395 31.192C134.747 30.44 135.043 29.72 135.283 29.032C135.523 28.344 135.787 27.496 136.075 26.488C136.091 26.424 136.251 25.872 136.555 24.832C136.763 24.496 136.947 24.248 137.107 24.088C137.267 23.912 137.427 23.824 137.587 23.824C137.907 23.824 138.179 23.928 138.403 24.136C138.643 24.328 138.819 24.568 138.931 24.856C139.123 25.48 139.291 26.048 139.435 26.56C139.499 26.768 139.643 27.272 139.867 28.072C140.107 28.856 140.323 29.52 140.515 30.064C140.707 30.608 140.867 30.992 140.995 31.216L141.907 28.288Z" fill="black"/>
<path d="M201 28C201 14.225 189.775 3 176 3C162.225 3 151 14.225 151 28C151 35.25 154.125 41.775 159.075 46.35C159.075 46.375 159.075 46.375 159.05 46.4C159.3 46.65 159.6 46.85 159.85 47.075C160 47.2 160.125 47.325 160.275 47.425C160.725 47.8 161.225 48.15 161.7 48.5C161.875 48.625 162.025 48.725 162.2 48.85C162.675 49.175 163.175 49.475 163.7 49.75C163.875 49.85 164.075 49.975 164.25 50.075C164.75 50.35 165.275 50.6 165.825 50.825C166.025 50.925 166.225 51.025 166.425 51.1C166.975 51.325 167.525 51.525 168.075 51.7C168.275 51.775 168.475 51.85 168.675 51.9C169.275 52.075 169.875 52.225 170.475 52.375C170.65 52.425 170.825 52.475 171.025 52.5C171.725 52.65 172.425 52.75 173.15 52.825C173.25 52.825 173.35 52.85 173.45 52.875C174.3 52.95 175.15 53 176 53C176.85 53 177.7 52.95 178.525 52.875C178.625 52.875 178.725 52.85 178.825 52.825C179.55 52.75 180.25 52.65 180.95 52.5C181.125 52.475 181.3 52.4 181.5 52.375C182.1 52.225 182.725 52.1 183.3 51.9C183.5 51.825 183.7 51.75 183.9 51.7C184.45 51.5 185.025 51.325 185.55 51.1C185.75 51.025 185.95 50.925 186.15 50.825C186.675 50.6 187.2 50.35 187.725 50.075C187.925 49.975 188.1 49.85 188.275 49.75C188.775 49.45 189.275 49.175 189.775 48.85C189.95 48.75 190.1 48.625 190.275 48.5C190.775 48.15 191.25 47.8 191.7 47.425C191.85 47.3 191.975 47.175 192.125 47.075C192.4 46.85 192.675 46.625 192.925 46.4C192.925 46.375 192.925 46.375 192.9 46.35C197.875 41.775 201 35.25 201 28ZM188.35 40.425C181.575 35.875 170.475 35.875 163.65 40.425C162.55 41.15 161.65 42 160.9 42.925C157.1 39.075 154.75 33.8 154.75 28C154.75 16.275 164.275 6.75 176 6.75C187.725 6.75 197.25 16.275 197.25 28C197.25 33.8 194.9 39.075 191.1 42.925C190.375 42 189.45 41.15 188.35 40.425Z" fill="black"/>
<path d="M176 15.3242C170.825 15.3242 166.625 19.5242 166.625 24.6992C166.625 29.7742 170.6 33.8992 175.875 34.0492C175.95 34.0492 176.05 34.0492 176.1 34.0492C176.15 34.0492 176.225 34.0492 176.275 34.0492C176.3 34.0492 176.325 34.0492 176.325 34.0492C181.375 33.8742 185.35 29.7742 185.375 24.6992C185.375 19.5242 181.175 15.3242 176 15.3242Z" fill="black"/>
</svg>
