<svg width="60" height="35" viewBox="0 0 60 35" fill="none" xmlns="http://www.w3.org/2000/svg">
<path d="M56.4607 11.3722L46.4696 3.20736C44.6179 1.69454 42.2944 0.866211 39.8967 0.866211H30H20.1027C17.706 0.866211 15.3824 1.69454 13.5302 3.20736L3.53906 11.3722C1.39898 12.9139 0.00140625 15.4149 0 18.2473V25.525C0.001875 30.2149 3.81785 34.0139 8.52773 34.0148H30H51.4723C56.1822 34.0139 59.9991 30.2149 60 25.525V18.2473C59.9991 15.4149 58.6015 12.9139 56.4607 11.3722ZM4.87313 18.2473C4.87406 17.235 5.27836 16.3404 5.94387 15.6755C6.61219 15.0133 7.5109 14.6099 8.52773 14.6091H30H51.4723C52.4891 14.61 53.3877 15.0134 54.0566 15.6755C54.7216 16.3404 55.1259 17.235 55.127 18.2473V25.525C55.1261 26.5373 54.7218 27.4319 54.0566 28.0977C53.3877 28.7599 52.4891 29.1624 51.4723 29.1634H30H8.52773C7.5109 29.1624 6.61219 28.7599 5.94387 28.0977C5.27836 27.4319 4.87406 26.5373 4.87313 25.525V18.2473Z" fill="#FCFCFC"/>
<path d="M38.2229 24.8423C39.7375 24.8423 40.9643 23.6199 40.9643 22.1135C40.9643 20.6071 39.7373 19.3848 38.2229 19.3848C36.709 19.3848 35.4814 20.6072 35.4814 22.1135C35.4816 23.6199 36.709 24.8423 38.2229 24.8423Z" fill="#FCFCFC"/>
<path d="M47.4118 24.8423C48.9249 24.8423 50.1528 23.6199 50.1528 22.1135C50.1528 20.6071 48.9249 19.3848 47.4118 19.3848C45.8978 19.3848 44.6699 20.6072 44.6699 22.1135C44.6699 23.6199 45.8978 24.8423 47.4118 24.8423Z" fill="#FCFCFC"/>
</svg>
