<svg width="36" height="36" viewBox="0 0 36 36" fill="none" xmlns="http://www.w3.org/2000/svg">
<path d="M10.5 0.160156H3C1.32 0.160156 0 1.47429 0 3.14682V29.31C0 33.0135 3 36.0002 6.72 36.0002C10.44 36.0002 13.44 33.0135 13.44 29.31V3.14682C13.5 1.47429 12.12 0.160156 10.5 0.160156ZM6.72 32.2967C5.04 32.2967 3.72 30.9826 3.72 29.31C3.72 27.6375 5.04 26.3234 6.72 26.3234C8.4 26.3234 9.72 27.6375 9.72 29.31C9.72 30.9826 8.4 32.2967 6.72 32.2967Z" fill="#FCFCFC"/>
<path d="M25.08 5.77519L30.42 11.0915C31.62 12.2264 31.62 14.1379 30.42 15.2728L16.5 29.0712V16.4675V10.076L20.82 5.71546C21.96 4.58053 23.94 4.58053 25.08 5.77519Z" fill="#FCFCFC"/>
<path d="M33.0003 22.5601H27.7203L24.1203 26.1441H32.4003L32.3403 32.4161H17.8803L14.2803 36.0001H33.0003C34.6803 36.0001 36.0003 34.6859 36.0003 33.0134V25.5467C36.0003 23.9339 34.6803 22.5601 33.0003 22.5601Z" fill="#FCFCFC"/>
</svg>
