<?xml version="1.0" encoding="UTF-8"?>
<svg version="1.1" viewBox="0 0 2000 2000" width="500" height="500" xmlns="http://www.w3.org/2000/svg">
<path transform="translate(922,334)" d="m0 0 11 1 6 3 4 6 4 15 6 30 7 22 8 15 7 8 10 5 11 2h13l11-4 8-7 7-11 6-13 7-23 6-32 4-9 5-6 6-2h13l21 3 21 6 16 7 18 10 17 12 13 11 10 9 10 11 11 15 11 18 8 16 16 39 12 28 13 28 15 27 10 14 8 9v2l4 2 9 8 13 6 4 1 20 1 10-3 8-6 9-9 8-5 7-2h19l16 3 12 5 12 8 13 11 16 16 7 10 7 14 4 15 3 21v9l-3 24-7 28-8 22-13 28-15 28-14 23-11 16-13 17-7 9-11 13-12 13-22 22-8 7-10 9-17 13-18 14-13 10-9 6-2 2 28 4 28 6 30 10 16 8 18 10 17 13 13 12 10 9 12 12 5 7v3h-2v2l-3 1-21 1-14 3-24 1h-143l-19 2h-11l-19-3-21-4-32-1h-18l-2 6-9 10-13 10-13 11-8 8-8 7-2 3h-2l-2 4-6 9-8 9-15 8-11 3-10 1h-17l-21-3h-11l-22 3h-14l-12-2-12-5-10-6-8-9-8-11-20-20-11-9-10-9-8-7-9-12h-101l-2 8v12l3 10 14 18 2 6-5 1-51-6-14-5-10-6-10-9-6-9-5-15-1-6-87 1-11 4-8 1h-10l-16-3-10-6-5-4-8-11-4-9-2-16 2-13 5-10 9-10 10-7 13-5 10-3 14-9 17-12 16-9 16-6 22-6 10-2v-2l-4-2-12-11-8-7-16-15-7-8-12-13-10-12-13-17-12-17-14-21-16-29-10-21-11-28-6-19-4-20-2-13v-26l4-21 5-12 6-11 8-10 9-10 11-10 16-11 12-5 12-3 8-1h15l9 2 11 8 11 11 10 4h16l16-4 11-7 12-11 10-13 9-15 14-26 16-35 15-36 11-26 12-22 13-17 10-11 2-3h2l2-4 8-7 12-10 15-10 16-9 13-6 23-7 16-3z" fill="#2D0606"/>
<path transform="translate(1402,1140)" d="m0 0h11l6 3 9-1 6 10 14 28 13 28 38 80 13 27 1 6-8 4-1 1 4 2v2l1-2h2v2h2l2 4 4 3-1-2v-6l3 4 14 30 16 35 1 8-27 14-23 11-14 5-4-2-3-5-4 2v-2l-7 3-4 2-6-5-17-34-11-23-8-16-7-7v-2h-2l-7-16-2-4-2-11-6-13-5-12-8-16-3-3-3-5-2-1v-3l-5-1-3-3v-2l-2 2v5h-6l20 63 11 35 1 10-8 4-26 8-27 9-9 1-2-6-7 1-13 3-3-4-8-24-6-20-13-37-10-30 2 15 5 24 5 36 14 83 3 22-1 13-4 11-9 10-5 4-9 3-56 10-45 7h-9l-28-4-9-4-10-9-4-5-5-15-6-33-16-94-8-50-1-9v-13l4-11 6-8 8-7 9-4 29-6 65-11h23l22 3 11 6 8 8 2 1-4-11-6-15-3-13 1-5 11-4 28-9 23-8 9-3 14-3 10-6 7-4 5-4 12-5 18-8 8-4 7-3zm-150 110 1 2zm108 12m144 68m6 0m-4 1m5 0 1 2z" fill="#FCFBFB"/>
<path transform="translate(919,355)" d="m0 0h6l1 1 3 21 5 21 5 16 8 18 9 13 8 8 10 6 8 3 10 1h17l10-2 16-8 7-7 7-10 8-15 10-30 5-24 3-12 12 1 22 5 11 4 20 9 11 7 11 8 16 13 10 10 9 11 14 21 8 16 18 44 11 26 16 33 12 21 12 18 9 11 11 10 9 6 11 5 16 4h12l14-2 13-5 10-7 10-10 5-2h13l14 4 11 6 14 10 12 12 10 14 6 15 3 11 1 10v13l-3 19-6 24-11 29-14 29-13 23-12 19-13 18-13 16-11 13-12 13-4 5h-2l-2 4-12 12-8 7-13 11-13 10-12 10-19 13-28 19-15 10-5 1-1-4 8-10 2-1-4 1-11 9-4 4h-4l2-4 3-5v-2l-8 4-6 7-4-1 4-6-6 2-10 5h-6v-2l14-8 12-5 20-12 31-21 17-12 13-10 14-11 10-9 15-14 5-5h2l2-4h2l1-3 6-5 9-11 7-7 10-13 10-14 10-15 8-13 9-16 9-23 9-34 1-13-1-3h-2l-10-21-12-13-9-6-10-4-6 1-16 12-14 7-21 5h-17l-17-3-14-5-9-5-11-8-13-13-9-12-10-15-9-16-11-23-6-13-3-8 1-3 12 22 8 16 7 12 4 5v2h2l-10-18-9-17-10-22-10-19-11-23-6-13-10-26-11-27-10-18-10-13-7-7-10-6-13-6-9-2-10 26-8 16-4 5-2-1 5-14v-4l-8 18-10 16-11 13-14 14-10 7-15 7-12 4-7 1h-28l-20-5-17-8-12-9-10-13-11-18-11-21-7-16 3 11 7 16 10 19 1 6-5-5-9-12-8-13-9-17-8-22v-2l-17 6-11 6-10 8-9 10-8 13-8 16-12 31-9 25-10 26-14 34-8 15-16 24-12 16-11 12-4 5-11 9-10 8-10 5-14 4-10 1h7l21-6 15-8 13-10 9-9 7-8 5-5 4-3-2 5-9 13-12 14-10 9-16 10-15 6-17 3h-15l-21-4-18-8-10-8-6-5-7 1-16 8-7 7-3 5-3 1v-7l7-14h2l2-4 5-6v-2l-8 7-7 10-4 8-4 20-2 22-3-4-1-7v-17l3-17-4 13-1 10v20l5 22 7 19 10 23 10 18 14 22 12 16 13 16 7 8 12 13 5 5v2l4 2 7 8 10 9 13 11 13 10 12 9 15 11 6 4 2 5-7-3-4-2h-6l-4-3-3-1-1 5-6-2-9-1v-2l-5-1v3l-5-2-13-10-11-10-16-14v-2l-4-2-19-19-9-11-12-14v-2h-2l-12-17-9-13-10-15-11-19-12-23-11-27-7-21-5-23-1-7v-27l4-16 8-16 9-12 11-11 15-10 14-7 9-2h12l6 2 5 4 7 8 14 8 12 3 21 1 16-4 20-10v-2l8-7 9-9 7-10 13-21 12-22 13-28 15-35 13-32 8-17 11-16 11-13 14-14 17-13 14-9 16-8 14-6 25-6z" fill="#FAF207"/>
<path transform="translate(907,739)" d="m0 0 4 1 9 7 4 3 6 3v2h3v2l5 1 9 5-3-7-7-6-3-4 1-2 10 6 11 7 14 10 18 13 10 7 14 10 12 9 11 9 3 12 4 11 3 4 5 2 7 10 10 9 14 8-1 6-7 13 13-5 8-4 15-11 17-5 14-7 10-9 5-8 7-18 7-22 5-3 4-2h5l5 19 1 13v41l-2 26-3 10-5 8-5 1 1-6 3-8 1-6v-14l-3-6-3-2-1 18-4 13-4 9-4-1 2-9v-12l-1-2-3-1-2 9-5 13-5 1-3-2 1-16-4 1-6 12-1 1h-21l-8 4-7 7-7 11-8 15-1 3 19-2h19l4 5 6 16 3 3v2h4l-3-17-1-8 3 1 6 12 2 5 4 20 1 2 3 1 1-18-2-10 1-4 5 7 2 7 1 10v14l-2 18-1 4-11-1-24-2-7-1 1-9h2l1-6 1-5-4 4h-2l-2 4-3 3-7 4-4 9-2 10-6 9-4 3-9-1-2-5-3-15-5-2 1 14-3 9-10 6-5 1-2-2v-4h-2l-2-12-6 1v17l-4 3-7 2-8 1h-9l-1-1v-13l-2-2-5 3-1 12-1 1h-8l-16-3-3-2v-8l5-22 5-6 4-2h6l6 4 5 4h5l9-7 7-1 7 3 5 4 5-2 6-5 5-5 4 2 6 7 5 2 2-4 6-3 8-7 9-1 4 1-1-5-2-4-7 1-2 5-7-1-5 6-6 1-6-2v-2l-4-1-3-2h-4l-4 4-3 5-2 2h-5l-5-6v-3h-2v-2l-7-1-1 3h-3l-1 3h-2l-2 4-4 2-6-1v-2l-4-1-9-8-4 1-5 7h-2l-1 4-3 1v-2l-4-1-8-9-5 2-8 4h-10l-1-4-6-2h-4l-2-5-8 3-3 6 8-1 10 5 8 7h7l4-2h3l1-4 5-1 8 9v6l-3 4-3 21-1 1-8-1-2-1v-2l-7-2-1-2-1-15h-3l-3 9-3 6h-8l-4-4-5-15-1-2-4-1v10h-3l-4-5-2-8-4-2-3-10-4-4 1 8 1 6-1 1h-17l-8-20-3-11-1-7v-10l3-12 2-4h34l14 1-2-6v-4h-2l-3-10-3-1v-4l-3-1v-4l-4-2-6-5-12-3-20 3-6 2h-6l-6-2-1 2h-5v-2h-2v2l-4 2-1 2-6-1-3-7-2-1-1 5h-2v-7l-4-1-2-9-1-11v-22l1-41 3-16 5-13 4-8 6-9 9-10 10-8 14-8 5-2h7l13 9 12 7-3-10-4-2-8-7 1-2h9l6 5 19 12 5 2-1-5-6-5-5-5-5-4z" fill="#FCFBFC"/>
<path transform="translate(834,1239)" d="m0 0h12l55 6 43 6 25 5 12 7 8 11 4 10v23l-6 52-7 62-8 51-3 20-4 9-6 8-7 6-9 4-4 1h-18l-80-10-40-7-10-5-7-7-7-14-2-8v-8l2-10 4-40 10-79 7-55 4-15 6-10 9-8 11-4z" fill="#2D0606"/>
<path transform="translate(573,1159)" d="m0 0h23l22 3 15 5 32 14 34 15 26 11 7 4 1 4-8 20-11 26-5 12-4 6-8-1-10-4-8-2v3l-6-1-7-3-6-3-13-6-16-6-6-3-1 4-6 13-9 24 23 4 16 6 25 11 19 9 3 2-1 9-9 24-10 23-9 19-11 26-7 10-7 6-10 5-4 1h-14l-19-3-18-5-30-12-30-13-25-11-9-6-7-8-4-9-1-4v-14l5-14 11-26 7-15 18-41 17-39 20-45 6-11 8-8z" fill="#2D0606"/>
<path transform="translate(1208,1238)" d="m0 0h21l9 2v2l4 2 5 5 6 8 3 8 4 21 6 39 6 35 4 23 2 14 6 31 2 15 2 8 1 11-1 12-5 10-9 9-8 4-31 6-60 10-7 1h-15l-10-3-9-6-7-8-4-9-9-52-8-48-14-83-1-5v-19l4-10 9-10 9-6 5-2 20-3 51-9z" fill="#2D0606"/>
<path transform="translate(1106,1029)" d="m0 0 30 1 152 1 29 2 25 5 17 4 15 5 9 2 19 10 14 10 9 7-1 4h-662l2-7 5-5h2v-3l7-6 96 1h242l246-1 1-1-15-5-19-5-18-5-22-4-38-4h-23l-12 1h-112l-1-2z" fill="#FDFDFD"/>
<path transform="translate(1329,1191)" d="m0 0 4 1 12 36 12 35 24 72 11 32v6l-11 4-36 12-13 4h-7l-9-23-51-153 1-5 16-6 30-10z" fill="#2D0606"/>
<path transform="translate(1422,1148)" d="m0 0h7l8 16 13 27 6 12 9 20 8 16 8 18 8 16 10 21 9 20 1 5-16 8-23 11-21 10h-4l-16-31-11-24-14-29-16-34-11-23-13-28 2-4 17-9 15-7 21-9z" fill="#2D0606"/>
<path transform="translate(983,653)" d="m0 0h32l26 4 30 7 34 12 29 12 6 4 4 2v2h-8l-11-2-10-1v2l5 1 16 9 11 8 10 9 7 6v2l4 2 7 8 5 5v2l-6-1-16-8-21-10-16-6-25-6-26-5-42-6-10-1h-35l-24 3-41 6-34 7-18 6-41 20-4 2h-3l2-4 4-5 15-15 8-7 13-10 16-9 9-3v-2l-15 1-17 2 3-3 16-8 28-11 20-7 25-7 17-4 18-2z" fill="#F9F109"/>
<path transform="translate(886,772)" d="m0 0h12l9 3 12 6 1 3-4-1h-3l5 4 12 8 11 8 10 5h20l9-1v-2l5 1 1 11v14l-4 21-4 10-8 11-7 6-13 6-7 2h-19l-14-3-13-5-8-4v-2l6-1-1-3-18-6-16-9-11-9-6-9 1-4 7-4h2l2-4 3-7v-15l-1-8-1-1v-5l7-7 5-2 1-2 11-4z" fill="#2D0606"/>
<path transform="translate(934,744)" d="m0 0 11 6 11 7 14 10 18 13 10 7 14 10 12 9 11 9 3 12 4 11 3 4 5 2 7 10 10 9 14 8-1 6-7 13 13-5 8-4 15-11 17-5 14-7 10-9 5-8 7-18 7-22 5-3 4-2h5l5 19 1 13v41l-2 26-3 10-5 8-5 1 1-6 3-8 1-6v-14l-3-6-3-2-1 18-4 13-4 9-4-1 2-9v-12l-1-2-3-1-2 9-5 13-5 1-3-2 1-16-4 1-6 12-1 1h-21l-8 4-7 7-7 11-8 15-1 3 19-2h19l4 5 6 16 3 3v2h4l-3-17-1-8 3 1 6 12 2 5 4 20 1 2 3 1 1-18-2-10 1-4 5 7 2 7 1 10v14l-2 18-1 4-11-1-24-2v-1h7l-2-15-6-21-6-9-9-8-8-3h-11l-10 2-4-1-1-2v-7l3-12 8-16 9-10 11-7 20-6 3-5 4-12-15 4-17 8-12 6-14 4h-8l-1-3 3-14v-6l-2-4-4-2-9-8-14-19-10-18-5-5-10-8-10-7-15-11-18-13-16-12-9-6-4-4 6 2 2 1-3-7-7-6-3-4z" fill="#788797"/>
<path transform="translate(798,1028)" d="m0 0 104 1 5 3 1 4-2 2-8 2 1 4 3 1v2l-17 4-19 6h-2v2h148l106-1-12-3-16-3-3-3 8-3 6-12 3-2v3h112l12-1h23l38 4 25 5 15 4 25 7 12 4-4 2-249 1h-247l-88-1-6 5 2-4 8-9 9-13 5-9z" fill="#768798"/>
<path transform="translate(664,987)" d="m0 0h44l21 3 20 6 10 5 10 8 6 7 2 5-1 8-10 13-9 10-10 14-8 11-9 16-5 13-1 8v12l3 9 1 5-16-6-12-5-9-7-5-8-2-6v-7l3-10 6-11 24-32 30-30 1-3h-9l-25-2h-42l-34 3-10 3-13 7-6 3h-27l-6-3-1-5 15-10 10-7 12-7 11-4 25-5z" fill="#F9F009"/>
<path transform="translate(834,1239)" d="m0 0h12l55 6 43 6 25 5 12 7 8 11 4 10v23l-6 52-7 62-8 51-3 20-4 9-1-3 2-6 2-12 2-18 5-44 6-50 4-34 2-11 2-22 1-12-3-11-6-9v-2l-4-2-11-5-7-2-18-2-13-2-42-5-15-2h-20l-10 4-8 7-4 6-4 12-8 64-14 116-1 6v15l3 10 6 9 6 5 12 6-11-1-17-3-10-5-7-7-7-14-2-8v-8l2-10 4-40 10-79 7-55 4-15 6-10 9-8 11-4z" fill="#928584"/>
<path transform="translate(876,1100)" d="m0 0 7 1 15 15 10 7 3 1-2-9h6l-1-7-1-5 7 6 19 19 8 5v2h4l1-10 5 1 21 9 16 4h13l19-6 18-8 4 1 1 6 6-2 12-11 8-7 10-10 2-1h40l-2 4-8 7-8 6-5 5-14 13h-2l-2 4h-2l-2 4-8 9-7 10-11 7-7 3-5 1h-13l-13-3-5-2h-19l-11 1-15 5h-12l-13-4-8-5-7-8-5-8-8-9-10-10-13-12-14-11-4-4v-3z" fill="#788797"/>
<path transform="translate(573,1159)" d="m0 0h23l22 3 15 5 32 14 34 15 26 11 7 4 1 4-2 2-1-4-16-6-12-6-28-12-18-8-36-15-3-1h-19l-8 3-9 7-5 6-8 19-18 42-26 60-17 39-8 19-2 7v16l4 11 5 6 10 7 22 10 43 18 8 4 23 8v1l-13-1-20-5-33-13-30-13-25-11-9-6-7-8-4-9-1-4v-14l5-14 11-26 7-15 18-41 17-39 20-45 6-11 8-8z" fill="#968A8A"/>
<path transform="translate(1371,1392)" d="m0 0h6l2 5 21-3 4 5 6 16 15 43-2 5-37 13-23 7-9 1-3-4v-3l-16 4-5-1-6-14-10-28-6-21v-5l16-4 11-4 18-6 8-2h3z" fill="#2D0707"/>
<path transform="translate(993,1445)" d="m0 0h69l15 1 3 1 1 5 2 38v28l-1 2-3 1-30 2h-39l-3-2-18-1-3-2-1-3-2-41v-26l1-2z" fill="#2D0606"/>
<path transform="translate(677,1399)" d="m0 0h9l14 2 15 2 36 10 19 5 1 4-7 31-9 32-3 5-11-1-27-6-31-8-18-4-6-3 1-10 12-49z" fill="#2E0808"/>
<path transform="translate(1188,1235)" d="m0 0h15l24 1 9 3-3 1-4-1h-21l-19 3-24 4-17 3-30 5-12 6-8 8-5 10-1 3v19l8 47 7 41 8 48 9 52 5 10 7 8 9 5 16 3v1h-9l-28-4-9-4-10-9-5-11-4-16-4-26-12-72-3-19-1-2-2-18-4-20-3-21v-16l6-12 8-8 9-5 14-4 35-5 34-6z" fill="#928585"/>
<path transform="translate(1082,736)" d="m0 0 15 1 6 2 21 3 11 4 13 7 12 9 8 8 4 6v4l-8 3-6 1h-17l-16-5-7-3-8-15-4-9h-1l-1 17-1 6h-20l-16 4-12 5-4 1h-7l-16-8-22-13-18-12-10-7v-2h33l26-4 20-2z" fill="#788796"/>
<path transform="translate(1520,1342)" d="m0 0 3 3 14 30 8 16 1 5 3 1 2 8-4 4-24 12-21 10-14 5-4-2-2-8-10-19-15-32 1-4 19-10 39-18z" fill="#2D0606"/>
<path transform="translate(1306,1187)" d="m0 0 3 1 3 6h7l-2 2-12 3-37 13-2 1 1 7 13 40 14 41 25 75 5 11 1 6 3 1h-5l-2-6-7 1-13 3-3-4-8-24-6-20-3-12-16-49-10-28-15-45 3-3 58-19z" fill="#918585"/>
<path transform="translate(1402,1144)" d="m0 0 5 1 4 6 5-1 4-1-3 3-24 10-16 8-11 6-1 3 16 34 12 25 13 28 9 19 8 16 12 26 7 13-1 2-1-1-7 1-7 3-5-1-17-36-16-33-16-34-14-30-15-31-1-6 9-6 28-13z" fill="#918584"/>
<path transform="translate(615,1047)" d="m0 0h40l41 1 1 2-6 10-6 12-3 8-2 1h-100l-3-1-2-12v-10l4-9 1-1z" fill="#F8F00A"/>
<path transform="translate(798,1028)" d="m0 0 104 1 5 3 1 4-2 2-8 2 1 4 3 1v2l-17 4-19 6h-2v2h148l106-1-2-2 6 1v3l-9 1h-247l-88-1-6 5 2-4 8-9 9-13 5-9z" fill="#788797"/>
<path transform="translate(1052 1e3)" d="m0 0 4 2 6 7 5 2 2-4 6-3 6-4 2 9 2 12 7-6 6-8 1 2-2 4-2 10-6 9-4 3-9-1-2-5-3-15-5-2 1 14-3 9-10 6-5 1-2-2v-4h-2l-2-12-6 1v17l-4 3-7 2-8 1h-9l-1-1v-13l-2-2-5 3-1 12-1 1h-8l-16-3-3-2v-8l5-22 5-6 4-2h6l6 4 5 4h5l9-7 7-1 7 3 5 4 5-2 6-5z" fill="#7A8796"/>
<path transform="translate(998,857)" d="m0 0 4 1 7 10 3 5 2 1 7 14 5 12 6 17 3 7v7l-6 10-4 5-5-1-9-10-4-7v-9l-5 4-9-3-1 10-9 12-4 4-5-1-6-7-4-8 1-6 3-8 10-27 9-16 3-6 3-3z" fill="#2D0606"/>
<path transform="translate(791,894)" d="m0 0h4l-2 6-7 8-2 3 4-2 5-3h2l-2 4-8 12-3 11v9l3 9 6 4 3 1h11l10-5 9-10 5-12 3-5 10-3 1 1v11l-3 12-8 16-10 12-8 6-12 6-11 3-11-1-8-4-7-6-6-12-2-12 2-16 6-16 7-11 9-10z" fill="#788796"/>
<path transform="translate(1302 1e3)" d="m0 0 2 1-4 4 28 4 28 6 30 10 16 8 18 10 17 13 13 12 10 9 12 12 5 7v3h-2v2l-3 1-21 1-14 3-24 1h-143l-19 2h-11l-19-3-21-4-32-1h-18l-2 6-4 3 1-5 6-8 94-1h227v-3l-4-2-22-22v-2l-4-2-12-11-17-12-21-11-32-11-29-7-21-3-14-1-3-1 1-3z" fill="#FBFBFB"/>
<path transform="translate(1208,895)" d="m0 0 5 1 10 8 9 12 7 14 3 12v15l-2 10-5 9-5 5-6 4-6 2h-13l-12-4-11-7-3-2v-2l-4-2-6-7-3-7h2l5 5 4 2-9-12-3-10 2-2 1-13h2l4 12 6 8 8 7 7 3h11l6-3 5-8 1-3v-9l-4-13-8-13 1-10z" fill="#788797"/>
<path transform="translate(964,566)" d="m0 0 10 2 4 5 2 6 16 8h7l15-7 3-2 1-7 6-4 7-1 7 3 5 4 1 8-5 4-2 1-9-1h-9l-12 6 1 3 16 7 9-2h9l8 5 6 8v11l-5 5-10 2-10-4-7-9-2-8-5-4-18-8h-7l-20 10-2 2-4 11-7 7-8 3-9-1-6-5-2-8 3-7 7-7 8-3h7l5 2 7-1 14-7h2l-2-3-10-4-1-1h-9l-9 2-7-4-1-1v-7l5-6z" fill="#7A8795"/>
<path transform="translate(1187,1315)" d="m0 0h4l5 23 7 43 6 37 2 8v5l-7 3-7 2h-8l-4-10-11-66-3-17-3-14v-9l2-2z" fill="#938584"/>
<path transform="translate(892,1322)" d="m0 0h9l12 2 1 1v11l-7 60-5 39-3 7h-10l-11-2-1-1v-10l3-21 4-35 4-33 3-16z" fill="#938584"/>
<path transform="translate(867,746)" d="m0 0h7l13 9 6 4-2 1h-7l-10 4-10 7-9 8-10 14-10 18-14 29-7 18-1 5v25l1 6 2-13 3 1 2 15v5h2v-8l4 4 2 5 3 2 5-2 13 4 8 2-2 2h-6l-6-2-1 2h-5v-2h-2v2l-4 2-1 2-6-1-3-7-2-1-1 5h-2v-7l-4-1-2-9-1-11v-22l1-41 3-16 5-13 4-8 6-9 9-10 10-8 14-8z" fill="#768798"/>
<path transform="translate(1371,1392)" d="m0 0h6l2 5 21-3 4 5 6 16 15 43-1 2-4-5-2-7-3-7-5-16-7-21-3-7-5 1-29 9-27 9-4 2v6l14 41 6 17 3 2-5-1-2-3v-3l-16 4-5-1-6-14-10-28-6-21v-5l16-4 11-4 18-6 8-2h3z" fill="#958989"/>
<path transform="translate(626,1248)" d="m0 0 8 1 16 7 28 12 11 4 4 3-10-2-4-1v3l-6-1-7-3-6-3-13-6-16-6-6-3-1 4-6 13-9 24 23 4 16 6 25 11 19 9 3 2v5l-1-3-5-1-30-13-25-11-5-2-2 6-7 14-11 26-8 17-7-1-11-5-4-3 1-5 10-22 12-28 11-25 10-23z" fill="#928584"/>
<path transform="translate(993,1445)" d="m0 0h69l15 1 3 1-1 3-18 1-5-1-42 1-5 1 1 60 2 9 45-1h22v1l-30 2h-39l-3-2-18-1-3-2-1-3-2-41v-26l1-2z" fill="#918686"/>
<path transform="translate(1208,756)" d="m0 0h8l23 9 9 2 13 1 1 3-8 14-8 11-8 8-9 4h-18l-14-4-2-9 1-5 4-1 10-1 10-5 3-1 1-3-10-2-20-5-3-4v-7l3-2z" fill="#F6EE0D"/>
<path transform="translate(1e3 859)" d="m0 0 5 5 10 12 9 15 6 13 5 19 2 12-1 10-5 8-6 5-5 2-9-1-8-5-7-6-9 9-7 3-7-1-7-4-7-8-2-6 1-15 5-20 7-16 6-8 3-5 7-9 1 2-10 17-8 20-5 16-2 3 1 5 5 10 4 4 5-1 7-8 4-6 1-10 2-1 6 3 4-2 3-1 1 7 2 6 9 11 2 2 4 1 2-4 4-5 3-6v-7l-8-20-5-15-4-7-3-5v-3l-3-1-7-11z" fill="#778797"/>
<path transform="translate(677,1399)" d="m0 0h9l14 2 15 2 36 10 19 5 1 4-12-3-27-7-26-7h-4l-4 10-12 45-1 5v7l17 6-3 1-21-5-16-4-3-2 1-10 12-49z" fill="#918585"/>
<path transform="translate(1494,1340)" d="m0 0h5l4 6 6-1 5-1-4 3-24 11-27 13-1 4 13 27 11 23 2 3-1 4-3-3-1 2h-2v-2l-7 3-4 2-6-5-17-34-4-13-4-9 1-5 16-8 25-12z" fill="#918586"/>
<path transform="translate(917,1128)" d="m0 0 7 1 15 13 7 5 3 1h7l3-1v-11l4-1 16 7 17 5 4 4 6 11 1 4-22 2-17 5h-10l-11-2-10-5-7-8-5-8-1-3-3-1-7-8-2-2 1-5z" fill="#FEFEFE"/>
<path transform="translate(863,781)" d="m0 0 2 1-7 7 1 4 5 6 3 7v13l-4 6-5 5-10 3h-3l4 6 18 13 14 8 13 5h23l25-7 6-2-1 4-12 6-13 4-11 2 3 3 6 1h9l12-3 6-1v-2l12-8 3-3 2 1-9 10-11 7-9 4h4l10-3 10-6 8-7 2-4h2l3-11 8-23 1-2v-18l-3-2 5 1 1 11v14l-4 21-4 10-8 11-7 6-13 6-7 2h-19l-14-3-13-5-8-4v-2l6-1-1-3-18-6-16-9-11-9-6-9 1-4 7-4h2l2-4 3-7v-15l-1-8-1-1v-5z" fill="#7D8A98"/>
<path transform="translate(1062,739)" d="m0 0h28l7 2v7l-3 12-3 4-15 1-19 5-4 2h-6l-10-8-17-12-5-4v-4l20-3z" fill="#FEFEFE"/>
<path transform="translate(548,1035)" d="m0 0h9l5 2-1 8-3 10v18l2 8v6l-3 1-2-1v-2h-3v4l-4 1-4-2-2-10h-2v9l-2 1-7-6-2-7-4-2-3-9v-7l4-9 2-4 7-5 8-3z" fill="#FAFAFA"/>
<path transform="translate(957,1100)" d="m0 0h40l2 1 1 12 3-1 4-11 1-1h34l2 1v7l-5 5-8 4-15 4-14 2h-8l-17-3-15-6-5-4-1-2v-7z" fill="#EAE9E9"/>
<path transform="translate(1109,779)" d="m0 0 4 2 4 10 3 11 1 8v14l-3 14-7 16-10 13-9 9-4 1 1-7 6-12 5-19 6-29 2-13z" fill="#F3EA11"/>
<path transform="translate(871,943)" d="m0 0h23l16 2v1h-41l-3 9-1 6v10l3 14 6 16 2 8 17-1-2-10 1-5 5 5 1 5-3-3v3l1 6-3 2h-18l-6-3-5-13-2-4-3-1v10l1 9h-4l-1-4-1-18v-25l-3 1-3 7-1 9v21l1 8-1 2-4-2-2-6v-32l4-11 8-9 6-3z" fill="#798796"/>
<path transform="translate(762,1076)" d="m0 0 1 2-1 2 662-1 2-2 2 4-2 1h-663l-3-1z" fill="#928584"/>
<path transform="translate(834,1239)" d="m0 0h12l55 6 43 6 25 5 12 7 5 6-1 2-3-3v-2l-4-2-6-4-9-3-24-4-35-4-43-5-26-1-15 4-13 12-5 13-8 67-2 15-3 26-3 28-2 13-4 30-1 21 1 10-2-2-3-11v-8l2-10 4-40 10-79 7-55 4-15 6-10 9-8 11-4z" fill="#FEFEFE"/>
<path transform="translate(1186,1232)" d="m0 0h23l22 3 9 5-2 1-11-4-24-1h-15l-32 5-55 9-14 4-9 7-6 7-4 9v16l4 28 3 13 2 18 2 10 4 21 8 51 4 23 4 24 5 13-1 2-4-8-4-15-8-45-14-84-7-43-1-9v-13l4-11 6-8 8-7 9-4 29-6 30-5z" fill="#FEFEFE"/>
<path transform="translate(984,597)" d="m0 0 3 1-4 4-8 4-2 2-2 10-7 8-5 3-9 1-7-3-4-5-1-6 3-7 7-7 8-3h7l5 2 7-1z" fill="#798796"/>
<path transform="translate(915,808)" d="m0 0 7 1 7 4 3 5v11l-6 8-6 3-5 1-7-2-5-5-3-5v-9l2-4h2l1-4 6-3z" fill="#F2F1F1"/>
<path transform="translate(986,1271)" d="m0 0 3 3 4 10v23l-6 52-7 62-8 51-3 20-4 9-1-3 2-6 2-12 2-18 5-44 6-50 4-34 2-11 2-22 1-12-3-11-1-1z" fill="#8E8587"/>
<path transform="translate(1119,743)" d="m0 0 10 2 12 4 11 7 13 13v4l-2 1h-14l-12-3-8-5-6-9-4-8-1-5z" fill="#FAFAFA"/>
<path transform="translate(1472,1096)" d="m0 0 2 1v4l-51 1h-269l-3 1-4 8-3 2 1-5 6-8 94-1h227z" fill="#8C8588"/>
<path transform="translate(626,1248)" d="m0 0 8 1 16 7 28 12 11 4 4 3-10-2-4-1v3l-6-1-7-3-6-3-13-6-16-6-6-3-1 4-6 13-9 24 23 4 16 6 25 11 17 8-3 1-34-15-23-9-3 4-9-1-12-6 2-10 6-15 7-15 4-8z" fill="#9C9496"/>
<path transform="translate(1015,1016)" d="m0 0 6 1 5 5 4 7v2h2l2 5v8l-9 3-7 2h-9v-23l4-9z" fill="#FCFCFC"/>
<path transform="translate(983,1017)" d="m0 0h6l6 9 3 10 1 11-1 1-13-1-9-2-2-1v-12l4-11z" fill="#FEFEFE"/>
<path transform="translate(645,965)" d="m0 0 4 3v3l-21 4-19 5-12 5-14 8-13 9-10 7-8 6-16 4-11 5-8 6-7 8-4 10-2 10v7l4 16 4 7-1 2-6-10-3-9-1-12 2-13 5-10 9-10 10-7 13-5 10-3 14-9 17-12 16-9 16-6 22-6 10-2z" fill="#A6A1A4"/>
<path transform="translate(1423,1146)" d="m0 0h6l4 4 15 30 13 28 38 80 13 27 1 6-4 2-3-1 2-5-5-12-10-22-8-16-16-34-13-27-4-9-8-16-11-24-4-8-7-1z" fill="#CFCACA"/>
<path transform="translate(818,793)" d="m0 0 1 3-4 13-2 14v65l1 6 2-13 3 1 2 15v5h2v-8l4 4 2 5 3 2 5-2 13 4 8 2-2 2h-6l-6-2-1 2h-5v-2h-2v2l-4 2-1 2-6-1-3-7-2-1-1 5h-2v-7l-4-1-2-9-1-11v-22l1-41 3-16z" fill="#8E8384"/>
<path transform="translate(798,1031)" d="m0 0h105l3 2-1 4-92-1-12-1-3-1z" fill="#FEFEFE"/>
<path transform="translate(1080 1e3)" d="m0 0 3 9 2 12 7-6 6-8 1 2-2 4-2 10-6 9-4 3-9-1-2-5-3-15-5-2v6h-1l-2-8 4 1 2-4 6-3z" fill="#7A8795"/>
<path transform="translate(1467,612)" d="m0 0 8 6 17 17 7 10 7 14 4 15 3 21v9l-3 24-7 28-8 22-13 28-15 28-1-3 11-20 8-16 3-10 4-9 3-9 4-9 5-18 3-12 2-17v-19l-2-18-2-4-3-12-8-16-10-11-7-8-10-9z" fill="#C1BAB9"/>
<path transform="translate(1253,1257)" d="m0 0 2 1 6 21 3 18 5 25 3 24 15 89 3 22-1 13h-1v-9l-2-13-2-10-2-15-3-14-7-43-6-37-6-35-4-23z" fill="#AAA3A4"/>
<path transform="translate(1107,1028)" d="m0 0 178 1 30 2 23 4 20 5 18 6 2 2-7-1-19-6-28-6-23-2-13-1-152-1-24-1-5-1z" fill="#88868B"/>
<path transform="translate(1199,814)" d="m0 0 10 4 13 4 8 2 1 3-4 5-8 4-9 2h-7l-2-4-3-19z" fill="#F0E813"/>
<path transform="translate(964,566)" d="m0 0 10 2 2 2 2 9 8 5 5 3-3 1-9-2-1-1h-9l-9 2-7-4-1-1v-7l5-6z" fill="#778798"/>
<path transform="translate(747,1100)" d="m0 0h101l4 4 1 4-5-5h-101l-2 8v12l3 10 14 18 2 6-5 1v-3l-12-16-6-10-1-3v-12l5-11z" fill="#919197"/>
<path transform="translate(1302 1e3)" d="m0 0 2 1-4 4 28 4 28 6 30 10 16 8 18 10 17 13 9 10h-3l-13-12-17-12-21-11-32-11-29-7-21-3-14-1-3-1 1-3z" fill="#90898B"/>
<path transform="translate(863,1056)" d="m0 0 3 1h-2v2h148l106-1-2-2 6 1v3l-9 1h-247l-7-2z" fill="#87868C"/>
<path transform="translate(1283,1192)" d="m0 0m-4 1h4v2l-40 13-2 2 12 36 12 35 19 57-1 3-12-34-10-30-2 1-4-17-1-3-4-4-6-8-6-4 3-2 9 9 2 1-4-11-6-15-3-13 1-5 11-4zm-27 57 1 2z" fill="#FEFEFE"/>
<path transform="translate(1306,592)" d="m0 0 6 5v2l4 2 9 8 13 6 4 1 20 1 10-3 8-6 9-9 8-5 7-2h19l16 3 12 5 12 8 4 4-4-1-13-8-9-4-18-4-22 1-8 3-10 9-7 8-9 4h-17l-16-3-6-3v-2l-5-1-12-11-5-6z" fill="#AFA8A9"/>
<path transform="translate(1031,566)" d="m0 0 8 1 8 6 1 8-3 3-9 1-12-2-5 2h-4l1-3 7-2v-8l5-5z" fill="#768798"/>
<path transform="translate(1051,1012)" d="m0 0 5 3 4 7 3 9v5l-5 4-6 3-4-1-2-5-1-13 3-10z" fill="#FEFEFE"/>
<path transform="translate(615,1162)" d="m0 0 10 2 29 12 38 17 26 11 14 7 1 4-2 2-1-4-16-6-12-6-28-12-18-8-36-15-3-1v-2z" fill="#C7C3C4"/>
<path transform="translate(1328,1190)" d="m0 0h5l4 9 37 111v2h2l15 46 2 8v6h-1l-4-13-14-43-14-41-13-38-13-40-2-5-10 1 3-2z" fill="#8D8587"/>
<path transform="translate(863,781)" d="m0 0 2 1-7 7 1 4 5 6 3 7v13l-4 6-5 5-10 3h-3l4 7-4-1-2-3 1-4 7-4h2l2-4 3-7v-15l-1-8-1-1v-5z" fill="#798492"/>
<path transform="translate(993,1445)" d="m0 0h69l15 1v1l-10 1h-7l-5-1h-69l1 71-2-3-2-41v-26l1-2z" fill="#FEFEFE"/>
<path transform="translate(693,1332)" d="m0 0 1 3-9 24-10 23-9 19-11 26-7 10-4 4-2-1 8-9 6-14 6-13 11-28 13-29z" fill="#B1ACAE"/>
<path transform="translate(671,954)" d="m0 0 13 1 9 3 10 3 4 2h4l-3-4 5 2 8 6 1 4-7-3-4-2h-6l-4-3-3-1-1 5-6-2-9-1v-2l-5-1v3l-5-2-4-4 5 2z" fill="#938584"/>
<path transform="translate(1150,1241)" d="m0 0h6v1l-15 3-23 4-11 1-18 6-6 3-9 9-4 8v22l3 17 2 11v8l-2-4-3-16-3-21v-16l6-12 8-8 9-5 14-4 35-5z" fill="#768899"/>
<path transform="translate(992,1297)" d="m0 0h1v10l-6 52-7 62-5 31h-1v-10l11-88 4-33z" fill="#FEFEFE"/>
<path transform="translate(610,1285)" d="m0 0 1 3-2 6 23 4 16 6 25 11 17 8-3 1-34-15-23-9-3 4-9-1-12-6 2-10h2z" fill="#FCFCFC"/>
<path transform="translate(922,334)" d="m0 0 11 1 6 3 2 4-6-4-9-1-17 1-14 3-19 6-16 6-17 9-9 5-2 2-3-1 15-10 23-12 26-8 16-3z" fill="#BBB6B8"/>
<path transform="translate(548,1035)" d="m0 0h9l5 2-1 8-3 10v18l2 8v6l-3 1-2-1v-2h-3v4l-4 1-4-2-2-10h-2v9l-2 1-3-3 4 1-1-16 3-3 4 16 3 4-1-13h3l3 6v2h2l4 4-3-11v-21l3-11v-5h-15l-6 1 1-2z" fill="#8C8588"/>
<path transform="translate(1168,926)" d="m0 0h2l4 12 9 12-4-2h-3l-3 1v5l7 8v2h2v3l-5-1-2-1-1 4-5-6-3-7h2l5 5 4 2-9-12-3-10 2-2z" fill="#918382"/>
<path transform="translate(868,1244)" d="m0 0 20 2 40 5 15 2 20 3 11 4 8 6 4 5-1 3-4-5v-2l-4-2-11-5-7-2-18-2-13-2-42-5-15-2v-2z" fill="#8E8587"/>
<path transform="translate(645,965)" d="m0 0 4 3v3l-21 4-19 5-12 5-14 8-13 9-2-1 5-4 5-5 19-11 16-6 22-6 10-2z" fill="#C5C0C1"/>
<path transform="translate(677,1399)" d="m0 0h9l14 2 10 1v1l-14 1-18-3-2 9-11 40-4 18h-2l1-10 12-49z" fill="#FBFBFB"/>
<path transform="translate(1069,334)" d="m0 0h13l21 3 21 6 16 7 18 10 7 5h-3l-20-11-12-6-17-5-22-5-9-1h-13l-6 3h-2v2h-2l2-4 4-3z" fill="#BCB7B8"/>
<path transform="translate(1256,639)" d="m0 0 4 5 5 7v2l4 2 5 6 8 6v2l5 2 10 7 12 5v2l-10-2-11-6-11-8-15-15-7-9-1-3h2z" fill="#928382"/>
<path transform="translate(930,1100)" d="m0 0h16l3 5v7l-3 4h-5l-10-10z" fill="#EDECEC"/>
<path transform="translate(1054,1100)" d="m0 0h15l1 3-9 11-2 2h-5l-3-5v-7l1-3z" fill="#EAE9E9"/>
<path transform="translate(957 1e3)" d="m0 0 5 1 7 8v6l-3 4-3 21-1 1-8-1v-1h8l1-22-4-7-4-2-6 1h-8v-1l10-2 4-1 1-4z" fill="#7F8792"/>
<path transform="translate(535,609)" d="m0 0 2 1-15 14-11 11-5 7-3 5-6 12-5 16-2 19 1 25-2-1-1-6v-26l4-21 5-12 6-11 8-10 9-10 11-10z" fill="#AEA4A4"/>
<path transform="translate(1518,1341)" d="m0 0 5 1 4 4 14 30 11 25v5l-2-1-2-8-2-1-8-18-8-16-9-19h-5z" fill="#FEFEFE"/>
<path transform="translate(909,1133)" d="m0 0 7 6 6 7 5 5 7 11 4 4 13 5 7 1h10l17-5 25-1 1 2-28 2-15 5h-12l-13-4-8-5-7-8-5-8-8-9-5-5z" fill="#8E8587"/>
<path transform="translate(1275,1379)" d="m0 0h2l4 20 8 49 1 16-1 6h-1v-9l-2-13-2-10-2-15-3-14-4-26z" fill="#A89F9F"/>
<path transform="translate(689,596)" d="m0 0v3l-5 6-14 10-10 4-6 1h-20l-9-4-8-7-7-8h3l12 12 10 4h16l16-4 11-7z" fill="#AFAAAB"/>
<path transform="translate(826,370)" d="m0 0h2v2l-10 8-8 7-5 6h-3l-2 5-7 7-16 22-4 7-2 5-6 10-2 2 1-5 10-19 12-17 11-13 5-6h2l2-4 8-7z" fill="#9E9393"/>
<path transform="translate(1116,1056)" d="m0 0 6 1v3l-9 1h-119v-1l18-1 106-1z" fill="#8B8589"/>
<path transform="translate(710,1403)" d="m0 0 9 1 32 9 19 5 1 4-12-3-27-7-15-4-1-3-6-1z" fill="#A7A1A3"/>
<path transform="translate(1398,1394)" d="m0 0 4 2 5 10 16 47 2 7-5-5-2-7-3-7-5-16-7-21-3-7-8 1-3-2z" fill="#A89E9E"/>
<path transform="translate(885,741)" d="m0 0h9l6 5 17 11-2 1-4-2h-11l-2 3-2-7-4-2-8-7z" fill="#808691"/>
<path transform="translate(1033,423)" d="m0 0 1 2-6 9-4 5-9 5h-27l-8-3-11-10 1-2 7 6 8 4 11 2h13l11-4 8-7z" fill="#B3AFB2"/>
<path transform="translate(1369,1023)" d="m0 0 9 2 17 7 20 11 13 9 10 8 8 9h-3l-13-12-17-12-21-11-6-2-1-2-16-6z" fill="#B8B4B7"/>
<path transform="translate(1082,736)" d="m0 0 15 1 3 2-1 1h-37l-27 2-22 3-2-2 26-4 20-2z" fill="#8D8588"/>
<path transform="translate(579,592)" d="m0 0h15l9 2 7 5-2 1-9-4-22-1-16 4-12 4-10 6-2-1 10-7 12-5 12-3z" fill="#BAB4B4"/>
<path transform="translate(574,1100)" d="m0 0h88v1l-14 1-77 1z" fill="#B4ADAE"/>
<path transform="translate(1306,592)" d="m0 0 6 5v2l4 2 9 8 13 6 4 1 20 1h8v2l-6 1h-14l-16-3-6-3v-2l-5-1-12-11-5-6z" fill="#AFA6A6"/>
<path transform="translate(1024,569)" d="m0 0 2 1-2 2-1 8-7 3-1 2 9-3 16 2 3 1-2 1-9-1h-9l-9 3v-2l-9 2-3 2h-6l-6-3-11-6-3-4v-6l2 2 2 6 16 8h7l15-7 3-2 1-7z" fill="#938584"/>
<path transform="translate(730,1217)" d="m0 0 1 4-13 30-9 22-4 6-4-1h2v-2h2l2-6 5-14h2l1-6 7-15 4-10z" fill="#B4ACAC"/>
<path transform="translate(1498,762)" d="m0 0h1v6l-10 23-12 25-10 18-1-3 11-20 8-16 3-10 4-9 3-9z" fill="#A9A6A9"/>
<path transform="translate(686,1192)" d="m0 0 6 1 26 11 14 7 1 4-2 2-1-4-16-6-12-6-16-7z" fill="#B8B3B4"/>
<path transform="translate(1372,1310)" d="m0 0h2v2h2l15 46 2 8v6h-1l-4-13-14-43z" fill="#C1BCBC"/>
<path transform="translate(572,996)" d="m0 0 2 1-5 4-5 5-12 9-16 4-10 2 3-3 11-4 10-3 14-9z" fill="#CCC6C6"/>
<path transform="translate(1316,1410)" d="m0 0 4 1-9 3 1 8 17 51-1 3-13-35-7-24v-5z" fill="#FEFEFE"/>
<path transform="translate(1151,1100)" d="m0 0h92v1l-89 1-3 1-4 8-3 2 1-5z" fill="#9A9193"/>
<path transform="translate(986,1271)" d="m0 0 3 3 4 10v13l-3 24-2-3v-10l2-19-3-11-1-1z" fill="#AAA2A2"/>
<path transform="translate(639,1303)" d="m0 0 6 2 29 12 13 6 6 2 2 1v5l-1-3-5-1-30-13-20-9z" fill="#8D8588"/>
<path transform="translate(1253,1257)" d="m0 0 2 1 6 21 3 18 5 25v8h-1l-4-24v-4l-3-1-3-19-4-20z" fill="#BFBABC"/>
<path transform="translate(1117,990)" d="m0 0h2l-1 7-2 4v-6l-4 7-5 12h-3l-1-8-4 2 2-4 9-6z" fill="#7D8691"/>
<path transform="translate(973,1443)" d="m0 0h1v16l-5 33-4 9-1-3 2-6 2-12 4-36z" fill="#A7A0A2"/>
<path transform="translate(980,1383)" d="m0 0h2l-3 25-4 34-2 1v-10l6-49z" fill="#8C8588"/>
<path transform="translate(1080,1452)" d="m0 0h1l2 38v28h-1l-2-11z" fill="#9B9293"/>
<path transform="translate(742,1110)" d="m0 0 1 4v9l3 9 6 9 9 11v2h2l1 3-5 1v-3l-12-16-6-10-1-3v-12z" fill="#8C8589"/>
<path transform="translate(1054,351)" d="m0 0h1v10l-3 16-8 28-7 16-1 2h-2l2-6 5-11 7-23z" fill="#A69E9F"/>
<path transform="translate(841,970)" d="m0 0h1l1 27h2l-1-8 2-15h1v26l1 8-1 2-4-2-2-6z" fill="#8E8587"/>
<path transform="translate(1261,1275)" d="m0 0h2l13 38 8 25-1 3-12-34-10-30z" fill="#FEFEFE"/>
<path transform="translate(1467,612)" d="m0 0 8 6 17 17 7 10 7 14-1 3v-2h-2l-8-16-7-9-14-15-7-6z" fill="#C6BFBF"/>
<path transform="translate(998,594)" d="m0 0 8 2 9 4 10 4v2l3 1 1 4h-2l-4-5-15-7-5-2h-7l-20 10-2 2-2 4v-5l4-4 10-5-4-2 6-2v2z" fill="#938584"/>
<path transform="translate(669,1389)" d="m0 0 2 1-13 30-6 12-8 9-2-1 8-9 6-14 6-13 5-13z" fill="#B8B0B1"/>
<path transform="translate(918,780)" d="m0 0 4 2 7 6 2 1v5l3 4-4-2-15-10-5-5h5l5 3z" fill="#8F8586"/>
<path transform="translate(785,1408)" d="m0 0h1l-1 14-4 33v21l2 9-2 1-2-7-1-14 2-21 4-33z" fill="#7A8C9C"/>
<path transform="translate(633,1299)" d="m0 0 4 1 25 10 26 12 2 2-6-1-15-7-19-8-17-7z" fill="#FEFEFE"/>
<path transform="translate(935,1252)" d="m0 0 8 1 20 3 11 4 8 6 4 5-1 3-4-5v-2l-4-2-11-5-7-2-18-2-4-1v-2z" fill="#8F8586"/>
<path transform="translate(1121,1131)" d="m0 0 2 1-15 14-12 11-1 2h-2l-2 4-6 9-2 1 2-5 4-7 9-10 14-12z" fill="#A8A1A3"/>
<path transform="translate(1288,1353)" d="m0 0 2 3 9 27 2 5 9-1 5-2h5l1 2-18 5-4-2-5-14-6-19z" fill="#FEFEFE"/>
<path transform="translate(1423,1146)" d="m0 0h6l4 4 7 14 3 9 7 15-1 3-8-17-7-14-5-11-7-1z" fill="#9A9395"/>
<path transform="translate(1222,585)" d="m0 0 4 5 10 19 3 6-1 2-4-1-9-20-3-8z" fill="#CFC680"/>
<path transform="translate(762,451)" d="m0 0 1 3-6 15-5 13-4 9-4 11-5 9-1-3 12-28 11-27z" fill="#A49B9C"/>
<path transform="translate(1240,1240)" d="m0 0 7 6 6 5h2l7 21-1 3-2 3-4-17-1-3-4-4-6-8-6-4z" fill="#E7E6E7"/>
<path transform="translate(1496,1287)" d="m0 0 3 4 5 10v2l3 1 6 14-1 4-6 1 2-6-5-12-7-15z" fill="#C2BDBE"/>
<path transform="translate(1484,1261)" d="m0 0h2l19 39-1 3-7-14v-2h-2l-11-22z" fill="#DDDADA"/>
<path transform="translate(1283,1418)" d="m0 0 2 4 5 35-1 13h-1v-9l-2-13-2-10-2-18z" fill="#A19B9D"/>
<path transform="translate(787,904)" d="m0 0v3l-3 4 4-2 5-3h2l-2 4-7 10-1-2 1-3-5 3h-3l2-6z" fill="#938584"/>
<path transform="translate(1398,1394)" d="m0 0 4 2 5 10 6 17v3l-3-1-7-21-3-7-8 1-3-2z" fill="#B0A8A8"/>
<path transform="translate(710,1403)" d="m0 0 9 1 32 9-4 1-12-3h-8l-10-3-1-3-6-1z" fill="#D0CCCD"/>
<path transform="translate(1440,1166)" d="m0 0 3 4 13 27 6 13-1 2-3-5-2-1-4-9-5-13-7-15z" fill="#EAE8E8"/>
<path transform="translate(610,600)" d="m0 0 4 2 11 11 10 4h22l-4 2h-22l-8-4-12-12z" fill="#D0CDCE"/>
<path transform="translate(1536,1412)" d="m0 0 3 1-19 9-16 8-12 5-2-1 16-8 24-11z" fill="#BCB5B6"/>
<path transform="translate(1509,724)" d="m0 0 1 4-7 28-3 9-2-3 2-9 3-8 4-17z" fill="#B2ADAF"/>
<path transform="translate(1369,1023)" d="m0 0 9 2 17 7 15 8v1l-7-1-14-7-3-1-1-2-16-6z" fill="#DCD9DA"/>
<path transform="translate(1443,697)" d="m0 0 5 5 3 5 2 10v10l-2-1-4-17-4-10z" fill="#2D0606"/>
<path transform="translate(743,1111)" d="m0 0h1l2 16 4 9 12 15-1 3-10-13-6-9-3-9v-9z" fill="#FEFEFE"/>
<path transform="translate(566,668)" d="m0 0 1 3-7 8-6 12-2 6-3-2 3-9 7-11z" fill="#938584"/>
<path transform="translate(1436,1373)" d="m0 0 3 4 7 16 3 9 6 12-1 3-11-22-4-13-3-6z" fill="#B6C0C8"/>
<path transform="translate(944,350)" d="m0 0 2 4 6 31-1 3v-2h-2l-1-7-2-9-2-3z" fill="#A49A9A"/>
<path transform="translate(809,1256)" d="m0 0 1 2-5 10-2 5-4 35-2 4 1-16 3-24 5-13z" fill="#768899"/>
<path transform="translate(783,414)" d="m0 0h2l-2 5-6 8-4 7-2 5-6 10-2 2 1-5 10-19z" fill="#A59A99"/>
<path transform="translate(765,1440)" d="m0 0h1l-1 9-9 33-2 3 1-10 5-18z" fill="#A79E9E"/>
<path transform="translate(658,1179)" d="m0 0 5 1 25 11-4 2-19-8-5-4z" fill="#C1BCBD"/>
<path transform="translate(573,1159)" d="m0 0h23l16 2v1l-15 1-6-2h-14l-11 4-2-1z" fill="#FEFEFE"/>
<path transform="translate(645,965)" d="m0 0 4 3v3l-21 4-4-1 7-4 12-2 2-1z" fill="#A09C9F"/>
<path transform="translate(863,348)" d="m0 0 2 1-3 1v2l-19 10-9 5-2 2-3-1 15-10z" fill="#C3BEBF"/>
<path transform="translate(990,1188)" d="m0 0h21l13 3v1h-8l-13-2h-11l-12 2h-6v-1z" fill="#9C9090"/>
<path transform="translate(504,1043)" d="m0 0 1 4-1 4v14l4 16 4 7-1 2-6-10-3-9-1-12 2-13z" fill="#CCC8C9"/>
<path transform="translate(1518,1341)" d="m0 0 5 1 5 9 4 10 7 15-1 2-8-16-9-19h-5z" fill="#8E8587"/>
<path transform="translate(1075,1334)" d="m0 0h1l3 17 3 20v9h-1l-4-26-1-2-1-9z" fill="#768899"/>
<path transform="translate(730,1217)" d="m0 0 1 4-12 28-3-1 6-13 4-10z" fill="#A79F9F"/>
<path transform="translate(529,1059)" d="m0 0 2 1 1 18 1 5-2-1-2-7-4-2-1-4 4 2v-11z" fill="#908585"/>
<path transform="translate(1448,713)" d="m0 0 2 3 2 10 1-8h1l1 11-1 7h-1l-1-5-1-3h-2l-4-9 1-2 1 1z" fill="#918382"/>
<path transform="translate(892,993)" d="m0 0 5 5 1 5-3-3v3l1 6-3 2h-18v-1l15-1 3-1-2-10z" fill="#8E8587"/>
<path transform="translate(854,987)" d="m0 0 2 2 2 3 2 17h-4l-1-4z" fill="#938584"/>
<path transform="translate(1435,595)" d="m0 0 6 1 10 4 12 8 4 4-4-1-13-8-15-7z" fill="#D3D0D1"/>
<path transform="translate(1459,1425)" d="m0 0h3v2l6 2 7-2h6l-2 4h-2v-2l-7 3-4 2-6-5z" fill="#BFC7CF"/>
<path transform="translate(962,859)" d="m0 0 2 1-9 10-6 4h-5l1-2h2v-2l12-8z" fill="#9A9396"/>
<path transform="translate(1176,374)" d="m0 0 4 2 15 13 13 14-1 2-7-7-7-8-10-9-7-6z" fill="#AFA9AA"/>
<path transform="translate(922,334)" d="m0 0 11 1 6 3 2 4-6-4-9-1-20 1 3-3z" fill="#ADA3A2"/>
<path transform="translate(1306,592)" d="m0 0 6 5v2l4 2 9 8 8 4-3 1-7-3-12-11-5-6z" fill="#C9C6C7"/>
<path transform="translate(1033,423)" d="m0 0 1 2-6 9-4 5-13 4h-2v-2l11-4 8-7z" fill="#ECEAEA"/>
<path transform="translate(1302 1e3)" d="m0 0 2 1-4 4 28 4v1h-8l-21-2-4-2 4-4z" fill="#EEEEEF"/>
<path transform="translate(907,739)" d="m0 0 4 1 9 7 4 3 3 2h-5l-1 2-7-8-7-5z" fill="#83868F"/>
<path transform="translate(621,1257)" d="m0 0h2l-2 6-9 22h-2l-1 2 1-5z" fill="#B7B1B2"/>
<path transform="translate(1229 1e3)" d="m0 0h8l-6 7-3 3-4-1 4-6-4-1z" fill="#938584"/>
<path transform="translate(1163,890)" d="m0 0h1v13l4-2-3 9-1 2-4-1 2-9z" fill="#938584"/>
<path transform="translate(1262,1302)" d="m0 0h2l5 28-2 1-2-6z" fill="#8D8588"/>
<path transform="translate(913,1103)" d="m0 0 7 6 3 4-5-2-2 6h-4v7h-1l-2-9h6l-1-7z" fill="#938584"/>
<path transform="translate(671,1317)" d="m0 0 4 1 12 5 6 2 2 1v5l-1-3-5-1-18-8z" fill="#979092"/>
<path transform="translate(693,1332)" d="m0 0 1 3-7 19h-2v2h-2l3-9z" fill="#A59D9E"/>
<path transform="translate(662,1101)" d="m0 0 4 1 2 15 5 10-1 2-5-9-4-12z" fill="#C3BCBB"/>
<path transform="translate(886,1139)" d="m0 0 4 2 21 21 1 4-26-26z" fill="#B1A9A9"/>
<path transform="translate(1208,895)" d="m0 0 5 1 3 3-6-1v14l-3-3-1-2 1-10z" fill="#938584"/>
<path transform="translate(782,1486)" d="m0 0 3 1 7 8 10 6-1 2-10-5-7-7z" fill="#9DAAB6"/>
<path transform="translate(535,609)" d="m0 0 2 1-15 14-7 6 1-4 7-7 11-9z" fill="#B1A7A7"/>
<path transform="translate(1054,351)" d="m0 0h1v10l-3 16-1 3-2-1z" fill="#AFA8A8"/>
<path transform="translate(1539,1378)" d="m0 0 3 4 3 6 2 1 5 12v5l-2-1-2-8-2-1-7-15z" fill="#C4BEBE"/>
<path transform="translate(1080,1175)" d="m0 0v3l-8 6-13 6-8 1 3-2 13-5 8-5z" fill="#9F989A"/>
<path transform="translate(718,551)" d="m0 0 1 2-7 14-8 13-2-1 12-21z" fill="#A39A9B"/>
<path transform="translate(1069,334)" d="m0 0h13v2l-13 1-6 3h-2v2h-2l2-4 4-3z" fill="#C3BCBC"/>
<path transform="translate(750,1142)" d="m0 0 4 1 7 9v2h2l1 3-5 1v-3l-9-12z" fill="#948C8F"/>
<path transform="translate(708,959)" d="m0 0 5 2 8 6 1 4-7-3-4-4z" fill="#9B8E79"/>
<path transform="translate(686,1192)" d="m0 0 6 1 12 5-2 2-5-1-11-5z" fill="#B7B0B0"/>
<path transform="translate(1494,639)" d="m0 0 4 4 8 16-1 3v-2h-2l-8-16z" fill="#C6C1C2"/>
<path transform="translate(965,1257)" d="m0 0 9 3 8 6 4 5-1 3-4-5v-2l-4-2-11-5z" fill="#8B8589"/>
<path transform="translate(1429,1054)" d="m0 0 4 2 8 7 5 7-4-2-12-11z" fill="#C1BFC1"/>
<path transform="translate(1384,604)" d="m0 0 2 1-10 11-6 2-3-2 10-5z" fill="#BAB4B5"/>
<path transform="translate(1103,1493)" d="m0 0 3 1 2 5 4 2v2l4 1 4 3v2l-5-2-10-9z" fill="#A0ACB8"/>
<path transform="translate(1106,434)" d="m0 0h1v8l-3 10-3-1 4-16z" fill="#938584"/>
<path transform="translate(1385,1348)" d="m0 0 3 1 5 17v6h-1l-4-13z" fill="#A9A0A1"/>
<path transform="translate(627,971)" d="m0 0 3 1-5 2-1 2-17 3v-2z" fill="#D9D4D4"/>
<path transform="translate(747,487)" d="m0 0h2l-3 9-4 9-3 6-1-3z" fill="#A69D9E"/>
<path transform="translate(816,881)" d="m0 0 3 1 1 13-4-3-1 4z" fill="#86868C"/>
<path transform="translate(1e3 1032)" d="m0 0 3 1-5 3-1 12-1 1h-8v-1l7-1v-13z" fill="#908586"/>
<path transform="translate(841,970)" d="m0 0h1l1 25 1 3-1 6-2-2z" fill="#938584"/>
<path transform="translate(973,1443)" d="m0 0h1v16l-3 3 1-18z" fill="#A19A9B"/>
<path transform="translate(934,744)" d="m0 0 11 6 3 3-5-1h-4l-5-6z" fill="#938584"/>
<path transform="translate(1504,660)" d="m0 0 1 2h2l3 12v3h-2l-3-7z" fill="#A89FA0"/>
<path transform="translate(1222,585)" d="m0 0 4 5 5 9-2 4-2-3-5-12z" fill="#958786"/>
<path transform="translate(964,566)" d="m0 0 10 2 1 2-7-1-10 2-5 4 2-4 4-3z" fill="#908585"/>
<path transform="translate(556,1171)" d="m0 0 2 1-6 9-4 10h-2l-1 3-1-2 10-19z" fill="#A2AEB9"/>
<path transform="translate(1437,689)" d="m0 0 4 2 7 8-1 3-3-4-2 1-5-8z" fill="#938584"/>
<path transform="translate(1328,613)" d="m0 0 14 3 8 2v1h-8l-13-4z" fill="#A09A9D"/>
<path transform="translate(553,598)" d="m0 0 3 1h-2v2l-8 4-7 4-2-1 10-7z" fill="#C2BEC0"/>
<path transform="translate(826,370)" d="m0 0h2v2l-10 8-5 5h-2l2-4z" fill="#B1A9A9"/>
<path transform="translate(989,868)" d="m0 0 1 2-8 14-2-2 1-4z" fill="#7D8793"/>
<path transform="translate(746,649)" d="m0 0v3l-4 7h-3l-7 6 2-4 7-8z" fill="#B9AD56"/>
<path transform="translate(566,594)" d="m0 0 5 1-3 2-11 3-3-1h2v-2z" fill="#ACA4A4"/>
<path transform="translate(952,575)" d="m0 0h1v6l6 2 10 1v1l-9 2-7-4-1-1z" fill="#938584"/>
<path transform="translate(737,511)" d="m0 0 1 4-10 20-1-3z" fill="#A79D9E"/>
<path transform="translate(1094,1157)" d="m0 0 1 2h-2l-2 4-6 9-2 1 2-5 4-7z" fill="#B3AEB0"/>
<path transform="translate(772,431)" d="m0 0h2l-2 7-4 5-4 8-1-3z" fill="#A39B9C"/>
<path transform="translate(892,426)" d="m0 0h2l3 10 1 5-2 4-4-15z" fill="#908180"/>
<path transform="translate(625,1252)" d="m0 0h5l12 6 5 2-3 1-13-5-6-3z" fill="#FEFEFE"/>
<path transform="translate(1095,1101)" d="m0 0h32l-1 3-3-1-28-1z" fill="#938584"/>
<path transform="translate(903,336)" d="m0 0 4 1-8 3-9 2-1-3z" fill="#C1B9B8"/>
<path transform="translate(1082,1499)" d="m0 0h1v19h-1l-2-11v-6z" fill="#939094"/>
<path transform="translate(988,1318)" d="m0 0h1v13l-1 7-3-4z" fill="#908585"/>
<path transform="translate(1457,1206)" d="m0 0 3 3 4 5 2 10-3-3-6-13z" fill="#B5ADAD"/>
<path transform="translate(1154,1101)" d="m0 0 14 1v2h-18l1-2z" fill="#FEFEFE"/>
<path transform="translate(669,1389)" d="m0 0 2 1-7 16h-1l1-8 4-8z" fill="#B9B2B1"/>
<path transform="translate(1400,593)" d="m0 0 3 1-2 2-8 3-6 5-2-1 8-7z" fill="#A8A0A1"/>
<path transform="translate(1054,1100)" d="m0 0h15l1 3-4 4 2-5h-9l-5-1z" fill="#89858A"/>
<path transform="translate(930,1100)" d="m0 0h16v1l-13 1 1 4v3l-4-5z" fill="#8E8587"/>
<path transform="translate(876,1100)" d="m0 0 7 1 1 2-7-1 3 5 2 3-4-2-4-4v-3z" fill="#938584"/>
<path transform="translate(530,1019)" d="m0 0 3 1-10 5-4 3-3-1 9-7z" fill="#C3BEBE"/>
<path transform="translate(1347,1017)" d="m0 0 9 1 13 4v1h-9v-2l-9-2z" fill="#F4F3F3"/>
<path transform="translate(851,830)" d="m0 0 4 1-10 2 4 7-4-1-2-3 1-4z" fill="#8A858A"/>
<path transform="translate(1031,566)" d="m0 0 8 1 8 6-1 3-5-5-3-2h-9l-1-2z" fill="#938584"/>
<path transform="translate(1408,1413)" d="m0 0 2 2 3 8v3l-3-1-3-8z" fill="#A29B9D"/>
<path transform="translate(1275,1379)" d="m0 0h2l2 9v5l-3-1z" fill="#9F9799"/>
<path transform="translate(1e3 859)" d="m0 0 5 5 6 7v3l-3-1-7-11z" fill="#818690"/>
<path transform="translate(1518,1341)" d="m0 0 5 1 5 9-1 4-6-12h-5z" fill="#8C8588"/>
<path transform="translate(1380,1334)" d="m0 0h2v2h2l3 12-3-1z" fill="#B5AEAF"/>
<path transform="translate(1008,1188)" d="m0 0 11 2 5 1v1h-8l-13-2v-1z" fill="#A79FA0"/>
<path transform="translate(615,1162)" d="m0 0 10 2 5 2v1h-8l-5-2v-2z" fill="#BBB6B7"/>
<path transform="translate(1115,868)" d="m0 0 4 1-15 7-1-2 8-5z" fill="#938584"/>
<path transform="translate(1464,834)" d="m0 0 2 1-9 16-2 1 2-7z" fill="#B0AFB3"/>
<path transform="translate(498,1407)" d="m0 0 6 1 7 3 4 2-1 2-16-7z" fill="#99A6B3"/>
<path transform="translate(662,1404)" d="m0 0 1 4-5 11h-2l3-9z" fill="#ABA4A5"/>
<path transform="translate(540,1014)" d="m0 0h3v2l-7 1v2l-10 2 3-3z" fill="#F3F2F2"/>
<path transform="translate(1510,711)" d="m0 0h1v11l-2 5h-1v-8l1-7z" fill="#9B999D"/>
<path transform="translate(1483,628)" d="m0 0 4 2 7 8-1 3-9-10z" fill="#AEA8AA"/>
<path transform="translate(689,596)" d="m0 0v3l-5 6-7 4 2-4z" fill="#BAB4B4"/>
<path transform="translate(1328,1471)" d="m0 0 3 2 3 5 3 2-5 1-3-3z" fill="#95A3B0"/>
<path transform="translate(685,1354)" d="m0 0 1 3-4 9-2-3 1-5 4-2z" fill="#C0B9B9"/>
<path transform="translate(519,1249)" d="m0 0 2 4-4 9-3 1 3-9z" fill="#B5BFC8"/>
<path transform="translate(581,992)" d="m0 0 2 1-13 9-2-1 5-4 2-3z" fill="#9D9597"/>
<path transform="translate(950,868)" d="m0 0 4 1-5 5h-5l1-2h2v-2z" fill="#CECED0"/>
<path transform="translate(716,1249)" d="m0 0h2l-3 10-2 2-1-5h2l1-6z" fill="#B3AAAA"/>
<path transform="translate(935,1252)" d="m0 0 8 1 6 1-1 2h-7l-4-1v-2z" fill="#8C8589"/>
<path transform="translate(526,1237)" d="m0 0 1 2-4 9-3 1 3-9z" fill="#B2BCC6"/>
<path transform="translate(647,1176)" d="m0 0 6 1 5 1v2l5 2-2 1-14-6z" fill="#988D8D"/>
<path transform="translate(1273,1368)" d="m0 0 3 1 1 10h-2l-2-6z" fill="#A69FA0"/>
<path transform="translate(722,1236)" d="m0 0 1 4-4 9-3-1z" fill="#A09B9D"/>
<path transform="translate(532,1220)" d="m0 0 1 4-3 8-4 4 1-5z" fill="#C3CBD2"/>
<path transform="translate(1329,1013)" d="m0 0 10 1 4 2-7 1-5-1v-2z" fill="#C2BDBE"/>
<path transform="translate(853,959)" d="m0 0 3 1v22h-1l-1-20-2-2z" fill="#938584"/>
<path transform="translate(673,1379)" d="m0 0h1l-1 7-2 3h-2l1-5z" fill="#A29B9D"/>
<path transform="translate(1372,1310)" d="m0 0h2v2h2l2 6v4h-2z" fill="#B2ADAF"/>
<path transform="translate(1248,995)" d="m0 0 1 3-7 6v-6z" fill="#938584"/>
<path transform="translate(810,384)" d="m0 0v3l-5 6-4-1 3-1 2-4z" fill="#A69B9A"/>
<path transform="translate(874,345)" d="m0 0m-7 1h7l-1 2-8 3-3-1z" fill="#A69B9A"/>
<path transform="translate(1082,335)" d="m0 0h10l5 2v1l-15-1z" fill="#A5A0A3"/>
<path transform="translate(1420,1447)" d="m0 0 2 3 3 10-5-5z" fill="#D2CFD0"/>
<path transform="translate(1259,1278)" d="m0 0 2 1 1 12h-2l-2-11z" fill="#B3AFB1"/>
<path transform="translate(822,1245)" d="m0 0 4 1-9 6-5 2 5-5z" fill="#768899"/>
<path transform="translate(1229 1e3)" d="m0 0h3l-2 4-2 2-4-1z" fill="#DDD32B"/>
<path transform="translate(1490,783)" d="m0 0 2 2-6 12-1-2 3-10z" fill="#9B989C"/>
<path transform="translate(1498,762)" d="m0 0h1v6l-3 4-1-5z" fill="#9A9395"/>
<path transform="translate(1033,423)" d="m0 0 1 2-6 9-3 2 1-4z" fill="#ABA6A8"/>
<path transform="translate(1093,336)" d="m0 0 10 1 5 1-3 2-8-1v-2z" fill="#D4CFCF"/>
<path transform="translate(1517,1326)" d="m0 0" fill="#FEFEFE"/>
<path transform="translate(1509,1326)" d="m0 0" fill="#FEFEFE"/>
<path transform="translate(1516,1325)" d="m0 0" fill="#FEFEFE"/>
<path transform="translate(1375,1265)" d="m0 0" fill="#FEFEFE"/>
<path transform="translate(1374,1264)" d="m0 0" fill="#FEFEFE"/>
</svg>
